<svg width="32" height="33" viewBox="0 0 32 33" fill="none" xmlns="http://www.w3.org/2000/svg">
<path d="M16 29.3337C23.0877 29.3337 28.8333 23.5881 28.8333 16.5003C28.8333 9.41267 23.0877 3.66699 16 3.66699C8.91231 3.66699 3.16663 9.41267 3.16663 16.5003C3.16663 23.5881 8.91231 29.3337 16 29.3337Z" fill="#C2F3FF"/>
<path d="M9.27795 7.33105H30.0557" stroke="#191919" stroke-linecap="round" stroke-linejoin="round"/>
<path d="M9.27808 17.1084H30.0558" stroke="#191919" stroke-linecap="round" stroke-linejoin="round"/>
<path d="M9.27808 26.8867H30.0558" stroke="#191919" stroke-linecap="round" stroke-linejoin="round"/>
<path d="M1.9447 25.3478C2.0042 25.1277 2.12406 24.9288 2.29074 24.7732C2.45742 24.6177 2.66428 24.5118 2.88794 24.4677C3.1116 24.4236 3.34316 24.4429 3.55642 24.5234C3.76969 24.604 3.95617 24.7426 4.09481 24.9236C4.23345 25.1045 4.31869 25.3206 4.34096 25.5476C4.3632 25.7744 4.32154 26.003 4.22069 26.2076C4.11985 26.4118 3.96384 26.5841 3.77028 26.7045C3.57672 26.825 3.35333 26.8889 3.12537 26.889C3.35293 26.8896 3.57582 26.9536 3.76896 27.074C3.96209 27.1944 4.11778 27.3662 4.2185 27.5704C4.31925 27.7744 4.36101 28.0025 4.33909 28.229C4.31718 28.4554 4.23246 28.6713 4.0945 28.8524C3.95653 29.0333 3.77077 29.1721 3.55816 29.2532C3.34553 29.3344 3.11449 29.3545 2.89104 29.3114C2.66761 29.2682 2.46062 29.1636 2.29344 29.0093C2.12624 28.8549 2.00546 28.6569 1.9447 28.4376" stroke="#191919" stroke-linecap="round" stroke-linejoin="round"/>
<path d="M1.9447 15.8893C1.9447 15.5651 2.07346 15.2542 2.30268 15.025C2.53189 14.7958 2.84276 14.667 3.16692 14.667C3.49108 14.667 3.80196 14.7958 4.03117 15.025C4.26037 15.2542 4.38914 15.5651 4.38914 15.8893C4.38917 16.285 4.2547 16.669 4.00781 16.9782L1.9447 19.5559H4.38914" stroke="#191919" stroke-linecap="round" stroke-linejoin="round"/>
<path d="M1.9447 4.88867H2.55581C2.71789 4.88867 2.87333 4.95306 2.98793 5.06766C3.10253 5.18226 3.16692 5.3377 3.16692 5.49978V9.77755" stroke="#191919" stroke-linecap="round" stroke-linejoin="round"/>
<path d="M1.9447 9.77539H4.38914" stroke="#191919" stroke-linecap="round" stroke-linejoin="round"/>
</svg>
