<svg width="32" height="33" viewBox="0 0 32 33" fill="none" xmlns="http://www.w3.org/2000/svg">
<path d="M26.3885 2.44434L14.4328 14.4025C12.6194 13.4643 10.5303 13.2053 8.54279 13.6726C6.55526 14.1399 4.80038 15.3025 3.5951 16.9507C2.38983 18.5985 1.81366 20.6233 1.97066 22.6591C2.12766 24.6947 3.00748 26.6071 4.45119 28.0508C5.89491 29.4945 7.80732 30.3743 9.843 30.5313C11.8787 30.6883 13.9033 30.1121 15.5513 28.9069C17.1995 27.7017 18.3621 25.9467 18.8293 23.9592C19.2967 21.9716 19.0377 19.8825 18.0995 18.0692L22.1108 14.0555H23.9441V12.2221L24.5552 11.611H26.3885V9.77767L26.9997 9.16656H28.8331V7.33323L30.0552 6.111V2.44434H26.3885ZM8.0552 26.2776C7.69262 26.2776 7.33815 26.1701 7.03666 25.9687C6.73518 25.7672 6.50019 25.4809 6.36143 25.1459C6.22267 24.8109 6.18636 24.4423 6.2571 24.0867C6.32784 23.7311 6.50244 23.4044 6.75884 23.1479C7.01524 22.8916 7.34191 22.7169 7.69754 22.6461C8.05316 22.5755 8.42179 22.6119 8.75679 22.7505C9.09179 22.8893 9.37812 23.1243 9.57956 23.4257C9.78102 23.7272 9.88854 24.0817 9.88854 24.4443C9.88854 24.9305 9.69538 25.3969 9.35158 25.7408C9.00775 26.0845 8.54143 26.2776 8.0552 26.2776Z" fill="#FFEF5E"/>
<path d="M4.45095 28.0487L6.7585 25.7411C6.58821 25.5708 6.4531 25.3688 6.36091 25.1464C6.26873 24.9239 6.22123 24.6856 6.22118 24.4448C6.22107 23.9586 6.41413 23.4922 6.75789 23.1482C7.10166 22.8043 7.56797 22.611 8.05425 22.611C8.54051 22.6108 9.00691 22.8037 9.35083 23.1476L30.0552 2.44434H26.3885L14.4328 14.4025C12.6198 13.4647 10.5311 13.2061 8.54402 13.6733C6.55694 14.1406 4.80237 15.3027 3.59713 16.9501C2.39187 18.5977 1.81539 20.6218 1.97174 22.6571C2.1281 24.6923 3.00821 26.6047 4.45095 28.0487Z" fill="#FFF9BF"/>
<path d="M26.3885 2.44434L14.4328 14.4025C12.6194 13.4643 10.5303 13.2053 8.54279 13.6726C6.55526 14.1399 4.80038 15.3025 3.5951 16.9507C2.38983 18.5985 1.81366 20.6233 1.97066 22.6591C2.12766 24.6947 3.00748 26.6071 4.45119 28.0508C5.89491 29.4945 7.80732 30.3743 9.843 30.5313C11.8787 30.6883 13.9033 30.1121 15.5513 28.9069C17.1995 27.7017 18.3621 25.9467 18.8293 23.9592C19.2967 21.9716 19.0377 19.8825 18.0995 18.0692L22.1108 14.0555H23.9441V12.2221L24.5552 11.611H26.3885V9.77767L26.9997 9.16656H28.8331V7.33323L30.0552 6.111V2.44434H26.3885ZM8.0552 26.2776C7.69262 26.2776 7.33815 26.1701 7.03666 25.9687C6.73518 25.7672 6.50019 25.4809 6.36143 25.1459C6.22267 24.8109 6.18636 24.4423 6.2571 24.0867C6.32784 23.7311 6.50244 23.4044 6.75884 23.1479C7.01524 22.8916 7.34191 22.7169 7.69754 22.6461C8.05316 22.5755 8.42179 22.6119 8.75679 22.7505C9.09179 22.8893 9.37812 23.1243 9.57956 23.4257C9.78102 23.7272 9.88854 24.0817 9.88854 24.4443C9.88854 24.9305 9.69538 25.3969 9.35158 25.7408C9.00775 26.0845 8.54143 26.2776 8.0552 26.2776Z" stroke="#191919" stroke-linecap="round" stroke-linejoin="round"/>
</svg>
