<svg width="32" height="33" viewBox="0 0 32 33" fill="none" xmlns="http://www.w3.org/2000/svg">
<path d="M15.9957 27.3176C21.1164 27.3176 25.2674 23.1667 25.2674 18.0459C25.2674 12.9252 21.1164 8.77441 15.9957 8.77441C10.8752 8.77441 6.72424 12.9253 6.72424 18.0459C6.72424 23.1664 10.8752 27.3176 15.9957 27.3176Z" fill="#FFEF5E"/>
<path d="M21.1474 5.68359C24.0031 6.87253 26.3588 9.01306 27.8152 11.742C29.2714 14.4708 29.7383 17.6195 29.1362 20.6536C28.5343 23.6875 26.9007 26.4195 24.513 28.3857C22.1251 30.3519 19.1303 31.4309 16.0374 31.4395C12.9443 31.4483 9.9435 30.386 7.54483 28.4328C5.14617 26.4801 3.49737 23.7572 2.87857 20.7268C2.25977 17.6961 2.70897 14.5448 4.15003 11.8079C5.5911 9.07093 7.93497 6.91719 10.7839 5.71239" stroke="#191919" stroke-linecap="round" stroke-linejoin="round"/>
<path d="M15.9961 1.56055V14.9529" stroke="#191919" stroke-linecap="round" stroke-linejoin="round"/>
</svg>
