<svg width="32" height="33" viewBox="0 0 32 33" fill="none" xmlns="http://www.w3.org/2000/svg">
<path d="M5.00021 3.97456C5.00021 4.37975 4.83923 4.76835 4.55273 5.05487C4.26621 5.34138 3.87762 5.50234 3.47242 5.50234C3.06723 5.50234 2.67863 5.34138 2.39213 5.05487C2.10561 4.76835 1.94465 4.37975 1.94465 3.97456C1.94417 3.77368 1.98333 3.57468 2.05991 3.38896C2.13649 3.20326 2.24897 3.03448 2.3909 2.89232C2.53283 2.75016 2.70142 2.63742 2.88701 2.56054C3.07261 2.48367 3.27154 2.44418 3.47242 2.44434C3.67326 2.44434 3.87213 2.48394 4.05765 2.56087C4.24317 2.6378 4.41169 2.75055 4.55359 2.89268C4.69549 3.0348 4.80798 3.20352 4.88461 3.38916C4.96125 3.5748 5.00053 3.77372 5.00021 3.97456Z" fill="#66E1FF" stroke="#191919" stroke-linecap="round" stroke-linejoin="round"/>
<path d="M11.7222 3.97456C11.7222 4.37975 11.5613 4.76835 11.2748 5.05487C10.9883 5.34138 10.5997 5.50234 10.1945 5.50234C9.78928 5.50234 9.40068 5.34138 9.11417 5.05487C8.82765 4.76835 8.66669 4.37975 8.66669 3.97456C8.66637 3.77372 8.70565 3.5748 8.78229 3.38916C8.85892 3.20351 8.97141 3.0348 9.1133 2.89268C9.2552 2.75055 9.42373 2.6378 9.60925 2.56087C9.79477 2.48394 9.99364 2.44434 10.1945 2.44434C10.3953 2.44434 10.5942 2.48394 10.7797 2.56087C10.9652 2.6378 11.1337 2.75055 11.2756 2.89268C11.4175 3.0348 11.53 3.20351 11.6066 3.38916C11.6833 3.5748 11.7226 3.77372 11.7222 3.97456Z" fill="#66E1FF" stroke="#191919" stroke-linecap="round" stroke-linejoin="round"/>
<path d="M18.4443 3.97456C18.4443 4.17508 18.4047 4.37363 18.3279 4.55884C18.2511 4.74407 18.1385 4.91232 17.9967 5.054C17.8547 5.19567 17.6863 5.30798 17.5009 5.38448C17.3156 5.461 17.1169 5.50022 16.9164 5.4999C16.5112 5.4999 16.1227 5.33894 15.8361 5.05242C15.5496 4.76591 15.3887 4.37731 15.3887 3.97212C15.3887 3.56692 15.5496 3.17834 15.8361 2.89182C16.1227 2.6053 16.5112 2.44434 16.9164 2.44434C17.1173 2.44434 17.3161 2.48394 17.5017 2.56087C17.6872 2.6378 17.8557 2.75055 17.9976 2.89268C18.1395 3.0348 18.252 3.20351 18.3287 3.38916C18.4053 3.5748 18.4445 3.77372 18.4443 3.97456Z" fill="#66E1FF" stroke="#191919" stroke-linecap="round" stroke-linejoin="round"/>
<path d="M5.00021 10.0859C5.00005 10.2864 4.96039 10.4848 4.88353 10.67C4.80667 10.8551 4.69409 11.0233 4.55222 11.165C4.41035 11.3066 4.24198 11.4189 4.0567 11.4955C3.87143 11.5721 3.6729 11.6114 3.47242 11.6112C3.27195 11.6114 3.07342 11.5721 2.88814 11.4955C2.70287 11.4189 2.5345 11.3066 2.39263 11.165C2.25077 11.0233 2.13818 10.8551 2.06131 10.67C1.98445 10.4848 1.94481 10.2864 1.94465 10.0859C1.94417 9.885 1.98333 9.686 2.05991 9.50029C2.13649 9.31457 2.24897 9.1458 2.3909 9.00364C2.53283 8.86148 2.70142 8.74873 2.88701 8.67186C3.07261 8.59498 3.27154 8.5555 3.47242 8.55566C3.67326 8.55566 3.87213 8.59526 4.05765 8.67218C4.24317 8.74912 4.41169 8.86188 4.55359 9.004C4.69549 9.14613 4.80798 9.31484 4.88461 9.50048C4.96125 9.68612 5.00053 9.88505 5.00021 10.0859Z" fill="#66E1FF" stroke="#191919" stroke-linecap="round" stroke-linejoin="round"/>
<path d="M11.7222 10.0859C11.7221 10.2864 11.6824 10.4848 11.6056 10.67C11.5287 10.8551 11.4161 11.0233 11.2743 11.165C11.1324 11.3066 10.964 11.4189 10.7788 11.4955C10.5935 11.5721 10.3949 11.6114 10.1945 11.6112C9.994 11.6114 9.79546 11.5721 9.61018 11.4955C9.42492 11.4189 9.25654 11.3066 9.11468 11.165C8.97281 11.0233 8.86022 10.8551 8.78336 10.67C8.7065 10.4848 8.66685 10.2864 8.66669 10.0859C8.66637 9.88505 8.70565 9.68612 8.78229 9.50048C8.85892 9.31484 8.97141 9.14613 9.1133 9.004C9.2552 8.86188 9.42373 8.74912 9.60925 8.67218C9.79477 8.59526 9.99364 8.55566 10.1945 8.55566C10.3953 8.55566 10.5942 8.59526 10.7797 8.67218C10.9652 8.74912 11.1337 8.86188 11.2756 9.004C11.4175 9.14613 11.53 9.31484 11.6066 9.50048C11.6833 9.68612 11.7226 9.88505 11.7222 10.0859Z" fill="#66E1FF" stroke="#191919" stroke-linecap="round" stroke-linejoin="round"/>
<path d="M18.4443 10.0859C18.4443 10.2864 18.4047 10.485 18.3279 10.6702C18.2511 10.8554 18.1385 11.0237 17.9967 11.1653C17.8547 11.307 17.6863 11.4193 17.5009 11.4958C17.3156 11.5723 17.1169 11.6115 16.9164 11.6112C16.7157 11.6114 16.5171 11.572 16.3316 11.4953C16.1461 11.4185 15.9777 11.306 15.8357 11.1641C15.6939 11.0222 15.5813 10.8537 15.5047 10.6683C15.4279 10.4829 15.3885 10.2841 15.3887 10.0834C15.3889 9.67826 15.5503 9.28978 15.8371 9.0035C16.1237 8.71722 16.5125 8.55657 16.9177 8.55689C17.3228 8.55722 17.7113 8.71849 17.9976 9.00523C18.2839 9.29198 18.4445 9.6807 18.4443 10.0859Z" fill="#66E1FF" stroke="#191919" stroke-linecap="round" stroke-linejoin="round"/>
<path d="M5.00021 16.1973C5.00021 16.6025 4.83923 16.991 4.55273 17.2775C4.26621 17.5641 3.87762 17.725 3.47242 17.725C3.06723 17.725 2.67863 17.5641 2.39213 17.2775C2.10561 16.991 1.94465 16.6025 1.94465 16.1973C1.94417 15.9963 1.98333 15.7974 2.05991 15.6117C2.13649 15.4259 2.24897 15.2571 2.3909 15.115C2.53283 14.9729 2.70142 14.8601 2.88701 14.7833C3.07261 14.7063 3.27154 14.6669 3.47242 14.667C3.67326 14.667 3.87213 14.7066 4.05765 14.7835C4.24317 14.8605 4.41169 14.9733 4.55359 15.1154C4.69549 15.2575 4.80798 15.4262 4.88461 15.6118C4.96125 15.7974 5.00053 15.9963 5.00021 16.1973Z" fill="#66E1FF" stroke="#191919" stroke-linecap="round" stroke-linejoin="round"/>
<path d="M11.7223 16.1974C11.7223 16.6026 11.5613 16.9911 11.2748 17.2777C10.9883 17.5642 10.5997 17.7251 10.1945 17.7251C9.7893 17.7251 9.4007 17.5642 9.11419 17.2777C8.82767 16.9911 8.66671 16.6026 8.66671 16.1974C8.66469 15.8429 8.78611 15.4987 9.01013 15.2239C9.23415 14.9493 9.54682 14.761 9.89446 14.6917C10.2421 14.6222 10.6031 14.6761 10.9154 14.8437C11.2277 15.0114 11.4719 15.2826 11.6062 15.6107C11.6832 15.7953 11.7223 15.9945 11.7223 16.1949V16.1974Z" fill="#66E1FF" stroke="#191919" stroke-linecap="round" stroke-linejoin="round"/>
<path d="M30.0558 30.5554V28.111C30.0558 26.8145 29.5407 25.5709 28.6239 24.6541C27.7071 23.7373 26.4635 23.2221 25.167 23.2221H21.5003V15.2777C21.5003 14.7914 21.3071 14.3251 20.9634 13.9813C20.6195 13.6375 20.1532 13.4443 19.667 13.4443C19.1807 13.4443 18.7144 13.6375 18.3706 13.9813C18.0267 14.3251 17.8336 14.7914 17.8336 15.2777V27.2897L14.9663 23.8394C14.7347 23.5599 14.4254 23.3557 14.0775 23.2523C13.7296 23.149 13.359 23.1513 13.0124 23.2589C12.6659 23.3665 12.3591 23.5746 12.1309 23.8569C11.9028 24.139 11.7636 24.4826 11.731 24.8441C11.6865 25.3279 11.836 25.8098 12.1466 26.1835L15.7827 30.5554" fill="#FFDDA1"/>
<path d="M30.0558 30.5554V28.111C30.0558 26.8145 29.5407 25.5709 28.6239 24.6541C27.7071 23.7373 26.4635 23.2221 25.167 23.2221H21.5003V15.2777C21.5003 14.7914 21.3071 14.3251 20.9634 13.9813C20.6195 13.6375 20.1532 13.4443 19.667 13.4443C19.1807 13.4443 18.7144 13.6375 18.3706 13.9813C18.0267 14.3251 17.8336 14.7914 17.8336 15.2777V27.2897L14.9663 23.8394C14.7347 23.5599 14.4254 23.3557 14.0775 23.2523C13.7296 23.149 13.359 23.1513 13.0124 23.2589C12.6659 23.3665 12.3591 23.5746 12.1309 23.8569C11.9028 24.139 11.7636 24.4826 11.731 24.8441C11.6865 25.3279 11.836 25.8098 12.1466 26.1835L15.7827 30.5554" stroke="#191919" stroke-linecap="round" stroke-linejoin="round"/>
</svg>
