<svg width="32" height="33" viewBox="0 0 32 33" fill="none" xmlns="http://www.w3.org/2000/svg">
<path d="M28.7787 2.51074C28.9384 2.51074 29.0967 2.54224 29.2443 2.60344C29.3919 2.66462 29.526 2.75432 29.6389 2.86737C29.7519 2.98042 29.8415 3.11464 29.9025 3.26232C29.9636 3.41001 29.9949 3.56828 29.9948 3.72808L29.9849 12.9363C30.0119 17.0085 28.6479 20.9679 26.1187 24.1597C23.5895 27.3513 20.0467 29.5841 16.0761 30.4886C12.0974 29.6207 8.53418 27.4209 5.97567 24.2527C3.41717 21.0846 2.01669 17.1381 2.00586 13.0659L2.02175 3.7342C2.02159 3.57438 2.05293 3.41612 2.11398 3.26844C2.17502 3.12074 2.26457 2.98653 2.37751 2.87348C2.49046 2.76042 2.62457 2.67074 2.77219 2.60954C2.91982 2.54836 3.07806 2.51686 3.23786 2.51686L28.7787 2.51074Z" fill="#E3E3E3"/>
<path d="M16.0064 2.51074H3.23419C2.9123 2.51204 2.60405 2.6409 2.37701 2.86909C2.14997 3.09728 2.02265 3.40618 2.02298 3.72808L2.00586 13.0659C2.01645 17.1258 3.40833 21.0613 5.95261 24.225C8.49689 27.3889 12.0421 29.5926 16.0052 30.4739L16.0064 2.51074Z" fill="white"/>
<path d="M28.7787 2.51074C28.9384 2.51074 29.0967 2.54224 29.2443 2.60344C29.3919 2.66462 29.526 2.75432 29.6389 2.86737C29.7519 2.98042 29.8415 3.11464 29.9025 3.26232C29.9636 3.41001 29.9949 3.56828 29.9948 3.72808L29.9849 12.9363C30.0119 17.0085 28.6479 20.9679 26.1187 24.1597C23.5895 27.3513 20.0467 29.5841 16.0761 30.4886C12.0974 29.6207 8.53418 27.4209 5.97567 24.2527C3.41717 21.0846 2.01669 17.1381 2.00586 13.0659L2.02175 3.7342C2.02159 3.57438 2.05293 3.41612 2.11398 3.26844C2.17502 3.12074 2.26457 2.98653 2.37751 2.87348C2.49046 2.76042 2.62457 2.67074 2.77219 2.60954C2.91982 2.54836 3.07806 2.51686 3.23786 2.51686L28.7787 2.51074Z" stroke="#191919" stroke-linecap="round" stroke-linejoin="round"/>
<path d="M21.4998 19.517C21.5006 19.6773 21.4697 19.8362 21.4089 19.9845C21.3481 20.1329 21.2585 20.2677 21.1454 20.3813C21.0322 20.4949 20.8978 20.585 20.7497 20.6464C20.6016 20.7078 20.4429 20.7393 20.2825 20.7392L11.7673 20.777C11.4458 20.777 11.1374 20.6498 10.9095 20.423C10.6816 20.1964 10.5528 19.8885 10.5512 19.567L10.5182 12.422C10.5182 12.0994 10.6463 11.7901 10.8744 11.562C11.1024 11.334 11.4118 11.2059 11.7343 11.2059L20.2496 11.168C20.571 11.168 20.8794 11.2952 21.1073 11.522C21.3352 11.7487 21.464 12.0565 21.4657 12.378L21.4998 19.517Z" fill="#FFEF5E"/>
<path d="M16.0064 11.1797L11.7298 11.1992C11.4073 11.1992 11.0979 11.3274 10.8699 11.5554C10.6418 11.7835 10.5137 12.0928 10.5137 12.4154L10.5467 19.5604C10.5483 19.882 10.6771 20.1897 10.905 20.4164C11.1329 20.6432 11.4413 20.7705 11.7628 20.7704L16.0064 20.7583V11.1797Z" fill="#FFF9BF"/>
<path d="M21.4998 19.517C21.5006 19.6773 21.4697 19.8362 21.4089 19.9845C21.3481 20.1329 21.2585 20.2677 21.1454 20.3813C21.0322 20.4949 20.8978 20.585 20.7497 20.6464C20.6016 20.7078 20.4429 20.7393 20.2825 20.7392L11.7673 20.777C11.4458 20.777 11.1374 20.6498 10.9095 20.423C10.6816 20.1964 10.5528 19.8885 10.5512 19.567L10.5182 12.422C10.5182 12.0994 10.6463 11.7901 10.8744 11.562C11.1024 11.334 11.4118 11.2059 11.7343 11.2059L20.2496 11.168C20.571 11.168 20.8794 11.2952 21.1073 11.522C21.3352 11.7487 21.464 12.0565 21.4657 12.378L21.4998 19.517Z" stroke="#191919" stroke-linecap="round" stroke-linejoin="round"/>
<path d="M15.9634 6.16019C14.9959 6.16536 14.07 6.55451 13.3894 7.24207C12.7087 7.92963 12.3289 8.85935 12.3334 9.82686V11.1958L19.6312 11.164V9.79386C19.6268 8.82582 19.2379 7.89922 18.5503 7.2178C17.8627 6.53639 16.9315 6.15596 15.9634 6.16019Z" stroke="#191919" stroke-linecap="round" stroke-linejoin="round"/>
<path d="M16.0087 17.4896C16.4123 17.4896 16.7992 17.3294 17.0847 17.044C17.37 16.7586 17.5303 16.3715 17.5303 15.968C17.5303 15.5644 17.37 15.1774 17.0847 14.892C16.7992 14.6067 16.4123 14.4463 16.0087 14.4463C15.6051 14.4463 15.218 14.6067 14.9327 14.892C14.6473 15.1774 14.4869 15.5644 14.4869 15.968C14.4869 16.3715 14.6473 16.7586 14.9327 17.044C15.218 17.3294 15.6051 17.4896 16.0087 17.4896Z" fill="#808080" stroke="#191919" stroke-linecap="round" stroke-linejoin="round"/>
</svg>
