<svg width="63" height="70" viewBox="0 0 63 70" fill="none" xmlns="http://www.w3.org/2000/svg">
<mask id="mask0_1_611" style="mask-type:alpha" maskUnits="userSpaceOnUse" x="0" y="0" width="63" height="70">
<path fill-rule="evenodd" clip-rule="evenodd" d="M42.0135 5.67009C42.0135 8.80084 39.4742 11.3402 36.3434 11.3402C33.2127 11.3402 30.6733 8.80084 30.6733 5.67009C30.6733 2.53934 33.2127 0 36.3434 0C39.4742 0 42.0135 2.53934 42.0135 5.67009ZM62.0184 39.6532V39.6719C62.2437 51.7209 52.7107 67.2291 35.2263 69.4071C18.6244 71.4723 3.36493 59.9444 1.08375 43.5208C0.511108 39.4279 0.797429 35.5273 1.69394 31.946C1.70261 31.8968 1.71484 31.8477 1.72733 31.7975L1.72734 31.7975C1.73515 31.7661 1.74305 31.7344 1.75027 31.7019C1.75496 31.6925 1.75965 31.669 1.75965 31.669C2.13985 30.214 2.61862 28.8105 3.18187 27.4634C6.42527 20.2913 12.269 18.0758 12.4849 17.996C6.37364 25.9614 4.84816 35.2504 9.43399 45.8771C11.3819 50.3925 14.1278 54.0396 17.5495 56.7104C18.3569 57.344 19.2064 57.9214 20.0936 58.4424C18.155 56.6353 16.484 54.4808 15.1792 52.0166C15.0806 51.8288 14.982 51.6411 14.8882 51.4533C14.8225 51.3266 14.7614 51.1999 14.7051 51.0731C14.6535 50.9699 14.6018 50.8619 14.5596 50.7587C14.5127 50.6695 14.4751 50.5803 14.4376 50.4911C14.1982 49.956 13.9776 49.4209 13.7851 48.8764C13.6772 48.5807 13.5786 48.2803 13.4847 47.9846C13.4331 47.8344 13.3862 47.6889 13.3439 47.5387C13.3093 47.4311 13.2779 47.3204 13.247 47.2117L13.247 47.2116L13.2266 47.1397C13.0482 46.5014 12.8933 45.8583 12.7666 45.2153C11.7715 40.146 12.4192 34.9641 14.4798 30.3829C14.481 30.3805 14.4823 30.3783 14.4834 30.3764L14.4849 30.374C14.4874 30.37 14.4892 30.3671 14.4892 30.3642C15.0712 28.8387 15.8175 27.3554 16.7281 25.9285C16.8455 25.7455 16.9675 25.5624 17.0942 25.3794C17.1435 25.309 17.1916 25.2398 17.2397 25.1706L17.2404 25.1695L17.2405 25.1694C17.2883 25.1006 17.3362 25.0317 17.3853 24.9616C17.4131 24.9212 17.4423 24.8821 17.4721 24.8421L17.4721 24.842C17.4976 24.8079 17.5236 24.7731 17.5495 24.7363C17.5761 24.7003 17.6022 24.6644 17.6283 24.6284C17.6804 24.5564 17.7326 24.4844 17.7889 24.4124C17.8052 24.3863 17.8238 24.3625 17.8431 24.3377L17.8432 24.3376L17.8435 24.3372C17.8518 24.3266 17.8603 24.3157 17.8687 24.3045C17.9814 24.1543 18.0987 24.0041 18.2161 23.8586C26.003 14.058 40.0515 11.6454 50.697 18.4748L50.6971 18.4749L50.6972 18.4749L50.6973 18.475C50.8756 18.5923 51.0539 18.7096 51.2274 18.8268C51.3448 18.9066 51.4621 18.9864 51.5748 19.0709L51.5748 19.071L51.5749 19.071L51.5749 19.071C51.6687 19.1367 51.7626 19.2024 51.8564 19.2728L51.8565 19.2728C51.9363 19.3291 52.016 19.3854 52.0911 19.4464C52.5605 19.7891 53.0158 20.1505 53.4523 20.5307C53.6917 20.7372 53.9217 20.9437 54.1517 21.1597C54.2689 21.2675 54.3814 21.3753 54.4939 21.4831L54.4943 21.4835C54.5975 21.582 54.6913 21.6758 54.7898 21.7743L54.79 21.7745C59.5917 26.5481 62.1029 33.0068 62.0137 39.5358C62.0184 39.5733 62.0184 39.6155 62.0184 39.6531V39.6532ZM17.7655 40.498C17.7655 51.3641 26.5757 60.1744 37.4418 60.1744C48.3126 60.1744 57.1181 51.3641 57.1181 40.498C57.1181 29.6319 48.3079 20.8217 37.4418 20.8217C26.5757 20.8217 17.7655 29.6319 17.7655 40.498ZM47.7165 27.0452H27.2516V33.5884H47.7165V27.0452ZM47.7165 45.4402H33.7102V53.9501H27.1671V38.9675H27.2516V38.8971H47.7165V45.4402Z" fill="#009DCD"/>
</mask>
<g mask="url(#mask0_1_611)">
<ellipse cx="81.3093" cy="42.7216" rx="43.1156" ry="75.7969" fill="white" fill-opacity="0.16" style="mix-blend-mode:overlay"/>
</g>
</svg>
