<svg width="956" height="1039" viewBox="0 0 956 1039" fill="none" xmlns="http://www.w3.org/2000/svg">
<g opacity="0.19">
<path fill-rule="evenodd" clip-rule="evenodd" d="M347.189 38.8472C368.665 75.8233 355.913 123.13 318.716 144.478C281.518 165.826 233.928 153.15 212.453 116.174C190.977 79.1982 203.728 31.8917 240.926 10.5435C278.123 -10.8046 325.713 1.8711 347.189 38.8472ZM895.966 331.093L896.113 331.346C993.537 492.069 985.677 775.412 765.552 940.903C556.515 1098 259.226 1061.36 99.6513 857.648C59.8268 806.914 33.1619 752.087 17.2742 696.814C17.0071 696.084 16.7883 695.327 16.5645 694.552C16.4248 694.069 16.2832 693.578 16.1267 693.084C16.1169 692.921 15.9967 692.568 15.9967 692.568C9.75811 669.987 5.26101 647.335 2.35117 624.784C-9.8226 502.819 52.099 427.448 54.4031 424.691C33.8852 579.681 85.943 716.816 231.38 824.412C293.17 870.136 358.982 897.938 426.318 907.313C442.232 909.572 458.279 910.743 474.394 910.862C433.943 901.586 394.402 885.543 357.401 862.472C354.593 860.708 351.786 858.944 349.042 857.143C347.158 855.946 345.337 854.712 343.581 853.441C342.072 852.451 340.526 851.397 339.144 850.333C337.809 849.496 336.601 848.586 335.393 847.676C327.955 842.324 320.771 836.826 313.896 830.982C310.116 827.835 306.426 824.551 302.836 821.295C300.96 819.671 299.183 818.075 297.434 816.378C296.121 815.196 294.827 813.947 293.556 812.72C293.275 812.449 292.996 812.179 292.717 811.912C285.298 804.692 278.161 797.227 271.405 789.542C218.204 728.931 186.405 654.012 178.479 576.194C178.475 576.132 178.476 576.079 178.478 576.033C178.48 575.96 178.482 575.907 178.459 575.868C174.407 550.766 172.914 524.955 174.091 498.624C174.249 495.242 174.471 491.823 174.756 488.368C174.874 487.035 174.984 485.727 175.094 484.418C175.205 483.11 175.315 481.802 175.432 480.469C175.493 479.706 175.583 478.951 175.674 478.18C175.753 477.521 175.832 476.85 175.896 476.152C175.975 475.46 176.047 474.771 176.119 474.083C176.263 472.707 176.407 471.33 176.607 469.921C176.624 469.442 176.69 468.976 176.757 468.492C176.787 468.28 176.817 468.065 176.844 467.844C177.196 464.941 177.611 462.002 178.064 459.127C206.939 266.344 378.617 124.437 576.517 133.651C579.855 133.845 583.194 134.038 586.469 134.269C588.686 134.431 590.903 134.593 593.092 134.856L593.098 134.856C594.884 135.011 596.671 135.166 598.494 135.385L598.496 135.385C600.019 135.523 601.541 135.662 603.037 135.9C612.088 136.866 621.095 138.195 629.995 139.923C634.859 140.844 639.597 141.839 644.408 142.96C646.845 143.502 649.219 144.081 651.593 144.659C653.766 145.185 655.774 145.72 657.883 146.281C760.408 173.268 845.057 240.811 894.983 329.547C895.341 330.017 895.672 330.587 895.966 331.093ZM302.271 687.013C387.375 833.539 575.891 883.752 723.295 799.155C870.762 714.521 921.212 527.163 836.108 380.637C751.005 234.111 562.488 183.898 415.084 268.495C267.681 353.092 217.168 540.487 302.271 687.013Z" fill="#4CC4DC"/>
<path fill-rule="evenodd" clip-rule="evenodd" d="M347.189 38.8472C368.665 75.8233 355.913 123.13 318.716 144.478C281.518 165.826 233.928 153.15 212.453 116.174C190.977 79.1982 203.728 31.8917 240.926 10.5435C278.123 -10.8046 325.713 1.8711 347.189 38.8472ZM895.966 331.093L896.113 331.346C993.537 492.069 985.677 775.412 765.552 940.903C556.515 1098 259.226 1061.36 99.6513 857.648C59.8268 806.914 33.1619 752.087 17.2742 696.814C17.0071 696.084 16.7883 695.327 16.5645 694.552C16.4248 694.069 16.2832 693.578 16.1267 693.084C16.1169 692.921 15.9967 692.568 15.9967 692.568C9.75811 669.987 5.26101 647.335 2.35117 624.784C-9.8226 502.819 52.099 427.448 54.4031 424.691C33.8852 579.681 85.943 716.816 231.38 824.412C293.17 870.136 358.982 897.938 426.318 907.313C442.232 909.572 458.279 910.743 474.394 910.862C433.943 901.586 394.402 885.543 357.401 862.472C354.593 860.708 351.786 858.944 349.042 857.143C347.158 855.946 345.337 854.712 343.581 853.441C342.072 852.451 340.526 851.397 339.144 850.333C337.809 849.496 336.601 848.586 335.393 847.676C327.955 842.324 320.771 836.826 313.896 830.982C310.116 827.835 306.426 824.551 302.836 821.295C300.96 819.671 299.183 818.075 297.434 816.378C296.121 815.196 294.827 813.947 293.556 812.72C293.275 812.449 292.996 812.179 292.717 811.912C285.298 804.692 278.161 797.227 271.405 789.542C218.204 728.931 186.405 654.012 178.479 576.194C178.475 576.132 178.476 576.079 178.478 576.033C178.48 575.96 178.482 575.907 178.459 575.868C174.407 550.766 172.914 524.955 174.091 498.624C174.249 495.242 174.471 491.823 174.756 488.368C174.874 487.035 174.984 485.727 175.094 484.418C175.205 483.11 175.315 481.802 175.432 480.469C175.493 479.706 175.583 478.951 175.674 478.18C175.753 477.521 175.832 476.85 175.896 476.152C175.975 475.46 176.047 474.771 176.119 474.083C176.263 472.707 176.407 471.33 176.607 469.921C176.624 469.442 176.69 468.976 176.757 468.492C176.787 468.28 176.817 468.065 176.844 467.844C177.196 464.941 177.611 462.002 178.064 459.127C206.939 266.344 378.617 124.437 576.517 133.651C579.855 133.845 583.194 134.038 586.469 134.269C588.686 134.431 590.903 134.593 593.092 134.856L593.098 134.856C594.884 135.011 596.671 135.166 598.494 135.385L598.496 135.385C600.019 135.523 601.541 135.662 603.037 135.9C612.088 136.866 621.095 138.195 629.995 139.923C634.859 140.844 639.597 141.839 644.408 142.96C646.845 143.502 649.219 144.081 651.593 144.659C653.766 145.185 655.774 145.72 657.883 146.281C760.408 173.268 845.057 240.811 894.983 329.547C895.341 330.017 895.672 330.587 895.966 331.093ZM302.271 687.013C387.375 833.539 575.891 883.752 723.295 799.155C870.762 714.521 921.212 527.163 836.108 380.637C751.005 234.111 562.488 183.898 415.084 268.495C267.681 353.092 217.168 540.487 302.271 687.013Z" fill="url(#paint0_linear_1_178)"/>
</g>
<defs>
<linearGradient id="paint0_linear_1_178" x1="937.454" y1="524.93" x2="48.2347" y2="504.298" gradientUnits="userSpaceOnUse">
<stop stop-color="white" stop-opacity="0.08"/>
<stop offset="1" stop-color="#F6F9FA"/>
</linearGradient>
</defs>
</svg>
