<svg width="139" height="138" viewBox="0 0 139 138" fill="none" xmlns="http://www.w3.org/2000/svg">
<mask id="mask0_1_190" style="mask-type:luminance" maskUnits="userSpaceOnUse" x="0" y="0" width="139" height="138">
<path d="M69.3184 137.494C107.426 137.494 138.318 106.786 138.318 68.9048C138.318 31.024 107.426 0.315521 69.3184 0.315521C31.2107 0.315521 0.318359 31.024 0.318359 68.9048C0.318359 106.786 31.2107 137.494 69.3184 137.494Z" fill="white"/>
</mask>
<g mask="url(#mask0_1_190)">
<g opacity="0.1">
<path d="M28.2759 63.3817C28.2759 60.3282 30.7608 57.8581 33.8326 57.8581C36.9043 57.8581 39.3892 60.3282 39.3892 63.3817C39.3892 66.4352 36.9043 68.9053 33.8326 68.9053C30.7608 68.9053 28.2759 66.4352 28.2759 63.3817Z" fill="#009DCD"/>
<path d="M6.88367 63.3817C6.88367 60.3282 9.36858 57.8581 12.4403 57.8581C15.5121 57.8581 17.997 60.3282 17.997 63.3817C17.997 66.4352 15.5121 68.9053 12.4403 68.9053C9.36858 68.9053 6.88367 66.4352 6.88367 63.3817Z" fill="#009DCD"/>
<path d="M91.7192 63.3817C91.7192 60.3282 94.2042 57.8581 97.2759 57.8581C100.348 57.8581 102.833 60.3282 102.833 63.3817C102.833 66.4352 100.348 68.9053 97.2759 68.9053C94.2042 68.9053 91.7192 66.4352 91.7192 63.3817Z" fill="#009DCD"/>
<path d="M70.3362 63.3817C70.3362 60.3282 72.8211 57.8581 75.8929 57.8581C78.9646 57.8581 81.4495 60.3282 81.4495 63.3817C81.4495 66.4352 78.9646 68.9053 75.8929 68.9053C72.8211 68.9053 70.3362 66.4352 70.3362 63.3817Z" fill="#009DCD"/>
<path d="M48.9438 63.3817C48.9438 60.3282 51.4288 57.8581 54.5005 57.8581C57.5723 57.8581 60.0572 60.3282 60.0572 63.3817C60.0572 66.4352 57.5723 68.9053 54.5005 68.9053C51.4288 68.9053 48.9438 66.4352 48.9438 63.3817Z" fill="#009DCD"/>
<path d="M133.78 63.3817C133.78 60.3282 136.264 57.8581 139.336 57.8581C142.408 57.8581 144.893 60.3282 144.893 63.3817C144.893 66.4352 142.408 68.9053 139.336 68.9053C136.264 68.9053 133.78 66.4352 133.78 63.3817Z" fill="#009DCD"/>
<path d="M112.396 63.3817C112.396 60.3282 114.881 57.8581 117.953 57.8581C121.025 57.8581 123.51 60.3282 123.51 63.3817C123.51 66.4352 121.025 68.9053 117.953 68.9053C114.881 68.9053 112.396 66.4352 112.396 63.3817Z" fill="#009DCD"/>
<path d="M16.1541 45.6716C16.1541 42.6181 18.639 40.148 21.7107 40.148C24.7825 40.148 27.2674 42.6181 27.2674 45.6716C27.2674 48.7251 24.7825 51.1952 21.7107 51.1952C18.639 51.1952 16.1541 48.7251 16.1541 45.6716Z" fill="#009DCD"/>
<path d="M-5.23828 45.6716C-5.23828 42.6181 -2.75337 40.148 0.318396 40.148C3.39016 40.148 5.87507 42.6181 5.87507 45.6716C5.87507 48.7251 3.39016 51.1952 0.318396 51.1952C-2.75337 51.1952 -5.23828 48.7251 -5.23828 45.6716Z" fill="#009DCD"/>
<path d="M79.5973 45.6716C79.5973 42.6181 82.0822 40.148 85.154 40.148C88.2257 40.148 90.7106 42.6181 90.7106 45.6716C90.7106 48.7251 88.2257 51.1952 85.154 51.1952C82.0822 51.1952 79.5973 48.7251 79.5973 45.6716Z" fill="#009DCD"/>
<path d="M58.2142 45.6716C58.2142 42.6181 60.6992 40.148 63.7709 40.148C66.8427 40.148 69.3276 42.6181 69.3276 45.6716C69.3276 48.7251 66.8427 51.1952 63.7709 51.1952C60.6992 51.1952 58.2142 48.7251 58.2142 45.6716Z" fill="#009DCD"/>
<path d="M36.8219 45.6716C36.8219 42.6181 39.3068 40.148 42.3786 40.148C45.4503 40.148 47.9353 42.6181 47.9353 45.6716C47.9353 48.7251 45.4503 51.1952 42.3786 51.1952C39.3068 51.1952 36.8219 48.7251 36.8219 45.6716Z" fill="#009DCD"/>
<path d="M121.657 45.6716C121.657 42.6181 124.142 40.148 127.214 40.148C130.286 40.148 132.771 42.6181 132.771 45.6716C132.771 48.7251 130.286 51.1952 127.214 51.1952C124.142 51.1952 121.657 48.7251 121.657 45.6716Z" fill="#009DCD"/>
<path d="M100.274 45.6716C100.274 42.6181 102.759 40.148 105.831 40.148C108.903 40.148 111.388 42.6181 111.388 45.6716C111.388 48.7251 108.903 51.1952 105.831 51.1952C102.759 51.1952 100.274 48.7251 100.274 45.6716Z" fill="#009DCD"/>
<path d="M28.2759 27.2412C28.2759 24.1877 30.7608 21.7176 33.8326 21.7176C36.9043 21.7176 39.3892 24.1877 39.3892 27.2412C39.3892 30.2947 36.9043 32.7648 33.8326 32.7648C30.7608 32.7648 28.2759 30.2947 28.2759 27.2412Z" fill="#009DCD"/>
<path d="M6.88367 27.2412C6.88367 24.1877 9.36858 21.7176 12.4403 21.7176C15.5121 21.7176 17.997 24.1877 17.997 27.2412C17.997 30.2947 15.5121 32.7648 12.4403 32.7648C9.36858 32.7648 6.88367 30.2947 6.88367 27.2412Z" fill="#009DCD"/>
<path d="M91.7192 27.2412C91.7192 24.1877 94.2042 21.7176 97.2759 21.7176C100.348 21.7176 102.833 24.1877 102.833 27.2412C102.833 30.2947 100.348 32.7648 97.2759 32.7648C94.2042 32.7648 91.7192 30.2947 91.7192 27.2412Z" fill="#009DCD"/>
<path d="M70.3362 27.2412C70.3362 24.1877 72.8211 21.7176 75.8929 21.7176C78.9646 21.7176 81.4495 24.1877 81.4495 27.2412C81.4495 30.2947 78.9646 32.7648 75.8929 32.7648C72.8211 32.7648 70.3362 30.2947 70.3362 27.2412Z" fill="#009DCD"/>
<path d="M48.9438 27.2412C48.9438 24.1877 51.4288 21.7176 54.5005 21.7176C57.5723 21.7176 60.0572 24.1877 60.0572 27.2412C60.0572 30.2947 57.5723 32.7648 54.5005 32.7648C51.4288 32.7648 48.9438 30.2947 48.9438 27.2412Z" fill="#009DCD"/>
<path d="M133.78 27.2412C133.78 24.1877 136.264 21.7176 139.336 21.7176C142.408 21.7176 144.893 24.1877 144.893 27.2412C144.893 30.2947 142.408 32.7648 139.336 32.7648C136.264 32.7648 133.78 30.2947 133.78 27.2412Z" fill="#009DCD"/>
<path d="M112.396 27.2412C112.396 24.1877 114.881 21.7176 117.953 21.7176C121.025 21.7176 123.51 24.1877 123.51 27.2412C123.51 30.2947 121.025 32.7648 117.953 32.7648C114.881 32.7648 112.396 30.2947 112.396 27.2412Z" fill="#009DCD"/>
<path d="M16.1541 9.53126C16.1541 6.47779 18.639 4.00766 21.7107 4.00766C24.7825 4.00766 27.2674 6.47779 27.2674 9.53126C27.2674 12.5847 24.7825 15.0549 21.7107 15.0549C18.639 15.0549 16.1541 12.5847 16.1541 9.53126Z" fill="#009DCD"/>
<path d="M-5.23828 9.53126C-5.23828 6.47779 -2.75337 4.00766 0.318396 4.00766C3.39016 4.00766 5.87507 6.47779 5.87507 9.53126C5.87507 12.5847 3.39016 15.0549 0.318396 15.0549C-2.75337 15.0549 -5.23828 12.5847 -5.23828 9.53126Z" fill="#009DCD"/>
<path d="M79.5973 9.53126C79.5973 6.47779 82.0822 4.00766 85.154 4.00766C88.2257 4.00766 90.7106 6.47779 90.7106 9.53126C90.7106 12.5847 88.2257 15.0549 85.154 15.0549C82.0822 15.0549 79.5973 12.5847 79.5973 9.53126Z" fill="#009DCD"/>
<path d="M58.2142 9.53126C58.2142 6.47779 60.6992 4.00766 63.7709 4.00766C66.8427 4.00766 69.3276 6.47779 69.3276 9.53126C69.3276 12.5847 66.8427 15.0549 63.7709 15.0549C60.6992 15.0549 58.2142 12.5847 58.2142 9.53126Z" fill="#009DCD"/>
<path d="M36.8219 9.53126C36.8219 6.47779 39.3068 4.00766 42.3786 4.00766C45.4503 4.00766 47.9353 6.47779 47.9353 9.53126C47.9353 12.5847 45.4503 15.0549 42.3786 15.0549C39.3068 15.0549 36.8219 12.5847 36.8219 9.53126Z" fill="#009DCD"/>
<path d="M121.658 9.53126C121.658 6.47779 124.143 4.00766 127.214 4.00766C130.286 4.00766 132.771 6.47779 132.771 9.53126C132.771 12.5847 130.286 15.0549 127.214 15.0549C124.143 15.0549 121.658 12.5847 121.658 9.53126Z" fill="#009DCD"/>
<path d="M100.274 9.53126C100.274 6.47779 102.759 4.00766 105.831 4.00766C108.903 4.00766 111.388 6.47779 111.388 9.53126C111.388 12.5847 108.903 15.0549 105.831 15.0549C102.759 15.0549 100.274 12.5847 100.274 9.53126Z" fill="#009DCD"/>
<path d="M28.2759 134.251C28.2759 131.197 30.7608 128.727 33.8326 128.727C36.9043 128.727 39.3892 131.197 39.3892 134.251C39.3892 137.304 36.9043 139.774 33.8326 139.774C30.7608 139.774 28.2759 137.304 28.2759 134.251Z" fill="#009DCD"/>
<path d="M6.88367 134.251C6.88367 131.197 9.36858 128.727 12.4403 128.727C15.5121 128.727 17.997 131.197 17.997 134.251C17.997 137.304 15.5121 139.774 12.4403 139.774C9.36858 139.774 6.88367 137.304 6.88367 134.251Z" fill="#009DCD"/>
<path d="M91.7192 134.251C91.7192 131.197 94.2042 128.727 97.2759 128.727C100.348 128.727 102.833 131.197 102.833 134.251C102.833 137.304 100.348 139.774 97.2759 139.774C94.2042 139.774 91.7192 137.304 91.7192 134.251Z" fill="#009DCD"/>
<path d="M70.3362 134.251C70.3362 131.197 72.8211 128.727 75.8929 128.727C78.9646 128.727 81.4495 131.197 81.4495 134.251C81.4495 137.304 78.9646 139.774 75.8929 139.774C72.8211 139.774 70.3362 137.304 70.3362 134.251Z" fill="#009DCD"/>
<path d="M48.9438 134.251C48.9438 131.197 51.4288 128.727 54.5005 128.727C57.5723 128.727 60.0572 131.197 60.0572 134.251C60.0572 137.304 57.5723 139.774 54.5005 139.774C51.4288 139.774 48.9438 137.304 48.9438 134.251Z" fill="#009DCD"/>
<path d="M133.78 134.251C133.78 131.197 136.264 128.727 139.336 128.727C142.408 128.727 144.893 131.197 144.893 134.251C144.893 137.304 142.408 139.774 139.336 139.774C136.264 139.774 133.78 137.304 133.78 134.251Z" fill="#009DCD"/>
<path d="M112.396 134.251C112.396 131.197 114.881 128.727 117.953 128.727C121.025 128.727 123.51 131.197 123.51 134.251C123.51 137.304 121.025 139.774 117.953 139.774C114.881 139.774 112.396 137.304 112.396 134.251Z" fill="#009DCD"/>
<path d="M16.1541 116.54C16.1541 113.486 18.639 111.016 21.7107 111.016C24.7825 111.016 27.2674 113.486 27.2674 116.54C27.2674 119.593 24.7825 122.063 21.7107 122.063C18.639 122.063 16.1541 119.593 16.1541 116.54Z" fill="#009DCD"/>
<path d="M-5.23828 116.54C-5.23828 113.486 -2.75337 111.016 0.318396 111.016C3.39016 111.016 5.87507 113.486 5.87507 116.54C5.87507 119.593 3.39016 122.063 0.318396 122.063C-2.75337 122.063 -5.23828 119.593 -5.23828 116.54Z" fill="#009DCD"/>
<path d="M79.5973 116.54C79.5973 113.486 82.0822 111.016 85.154 111.016C88.2257 111.016 90.7106 113.486 90.7106 116.54C90.7106 119.593 88.2257 122.063 85.154 122.063C82.0822 122.063 79.5973 119.593 79.5973 116.54Z" fill="#009DCD"/>
<path d="M58.2142 116.54C58.2142 113.486 60.6992 111.016 63.7709 111.016C66.8427 111.016 69.3276 113.486 69.3276 116.54C69.3276 119.593 66.8427 122.063 63.7709 122.063C60.6992 122.063 58.2142 119.593 58.2142 116.54Z" fill="#009DCD"/>
<path d="M36.8219 116.54C36.8219 113.486 39.3068 111.016 42.3786 111.016C45.4503 111.016 47.9353 113.486 47.9353 116.54C47.9353 119.593 45.4503 122.063 42.3786 122.063C39.3068 122.063 36.8219 119.593 36.8219 116.54Z" fill="#009DCD"/>
<path d="M121.657 116.54C121.657 113.486 124.142 111.016 127.214 111.016C130.286 111.016 132.771 113.486 132.771 116.54C132.771 119.593 130.286 122.063 127.214 122.063C124.142 122.063 121.657 119.593 121.657 116.54Z" fill="#009DCD"/>
<path d="M100.274 116.54C100.274 113.486 102.759 111.016 105.831 111.016C108.903 111.016 111.388 113.486 111.388 116.54C111.388 119.593 108.903 122.063 105.831 122.063C102.759 122.063 100.274 119.593 100.274 116.54Z" fill="#009DCD"/>
<path d="M28.2759 98.1093C28.2759 95.0558 30.7608 92.5857 33.8326 92.5857C36.9043 92.5857 39.3892 95.0558 39.3892 98.1093C39.3892 101.163 36.9043 103.633 33.8326 103.633C30.7608 103.633 28.2759 101.163 28.2759 98.1093Z" fill="#009DCD"/>
<path d="M6.88367 98.1093C6.88367 95.0558 9.36858 92.5857 12.4403 92.5857C15.5121 92.5857 17.997 95.0558 17.997 98.1093C17.997 101.163 15.5121 103.633 12.4403 103.633C9.36858 103.633 6.88367 101.163 6.88367 98.1093Z" fill="#009DCD"/>
<path d="M91.7192 98.1093C91.7192 95.0558 94.2042 92.5857 97.2759 92.5857C100.348 92.5857 102.833 95.0558 102.833 98.1093C102.833 101.163 100.348 103.633 97.2759 103.633C94.2042 103.633 91.7192 101.163 91.7192 98.1093Z" fill="#009DCD"/>
<path d="M70.3362 98.1093C70.3362 95.0558 72.8211 92.5857 75.8929 92.5857C78.9646 92.5857 81.4495 95.0558 81.4495 98.1093C81.4495 101.163 78.9646 103.633 75.8929 103.633C72.8211 103.633 70.3362 101.163 70.3362 98.1093Z" fill="#009DCD"/>
<path d="M48.9438 98.1093C48.9438 95.0558 51.4288 92.5857 54.5005 92.5857C57.5723 92.5857 60.0572 95.0558 60.0572 98.1093C60.0572 101.163 57.5723 103.633 54.5005 103.633C51.4288 103.633 48.9438 101.163 48.9438 98.1093Z" fill="#009DCD"/>
<path d="M133.78 98.1093C133.78 95.0558 136.264 92.5857 139.336 92.5857C142.408 92.5857 144.893 95.0558 144.893 98.1093C144.893 101.163 142.408 103.633 139.336 103.633C136.264 103.633 133.78 101.163 133.78 98.1093Z" fill="#009DCD"/>
<path d="M112.396 98.1093C112.396 95.0558 114.881 92.5857 117.953 92.5857C121.025 92.5857 123.51 95.0558 123.51 98.1093C123.51 101.163 121.025 103.633 117.953 103.633C114.881 103.633 112.396 101.163 112.396 98.1093Z" fill="#009DCD"/>
<path d="M16.1541 80.3905C16.1541 77.3371 18.639 74.8669 21.7107 74.8669C24.7825 74.8669 27.2674 77.3371 27.2674 80.3905C27.2674 83.444 24.7825 85.9142 21.7107 85.9142C18.639 85.9142 16.1541 83.444 16.1541 80.3905Z" fill="#009DCD"/>
<path d="M-5.23828 80.3905C-5.23828 77.3371 -2.75337 74.8669 0.318396 74.8669C3.39016 74.8669 5.87507 77.3371 5.87507 80.3905C5.87507 83.444 3.39016 85.9142 0.318396 85.9142C-2.75337 85.9142 -5.23828 83.444 -5.23828 80.3905Z" fill="#009DCD"/>
<path d="M79.5973 80.3905C79.5973 77.3371 82.0822 74.8669 85.154 74.8669C88.2257 74.8669 90.7106 77.3371 90.7106 80.3905C90.7106 83.444 88.2257 85.9142 85.154 85.9142C82.0822 85.9142 79.5973 83.444 79.5973 80.3905Z" fill="#009DCD"/>
<path d="M58.2142 80.3905C58.2142 77.3371 60.6992 74.8669 63.7709 74.8669C66.8427 74.8669 69.3276 77.3371 69.3276 80.3905C69.3276 83.444 66.8427 85.9142 63.7709 85.9142C60.6992 85.9142 58.2142 83.444 58.2142 80.3905Z" fill="#009DCD"/>
<path d="M36.8219 80.3905C36.8219 77.3371 39.3068 74.8669 42.3786 74.8669C45.4503 74.8669 47.9353 77.3371 47.9353 80.3905C47.9353 83.444 45.4503 85.9142 42.3786 85.9142C39.3068 85.9142 36.8219 83.444 36.8219 80.3905Z" fill="#009DCD"/>
<path d="M121.657 80.3905C121.657 77.3371 124.142 74.8669 127.214 74.8669C130.286 74.8669 132.771 77.3371 132.771 80.3905C132.771 83.444 130.286 85.9142 127.214 85.9142C124.142 85.9142 121.657 83.444 121.657 80.3905Z" fill="#009DCD"/>
<path d="M100.274 80.3905C100.274 77.3371 102.759 74.8669 105.831 74.8669C108.903 74.8669 111.388 77.3371 111.388 80.3905C111.388 83.444 108.903 85.9142 105.831 85.9142C102.759 85.9142 100.274 83.444 100.274 80.3905Z" fill="#009DCD"/>
</g>
</g>
</svg>
