<svg width="32" height="33" viewBox="0 0 32 33" fill="none" xmlns="http://www.w3.org/2000/svg">
<path d="M22.7342 6.11133C23.0583 6.11133 23.3692 6.2401 23.5984 6.46931C23.8278 6.69853 23.9564 7.00939 23.9564 7.33355V29.3336C23.9564 29.6577 23.8278 29.9686 23.5984 30.1978C23.3692 30.4269 23.0583 30.5557 22.7342 30.5557H3.17863C2.85447 30.5557 2.54361 30.4269 2.31439 30.1978C2.08518 29.9686 1.95642 29.6577 1.95642 29.3336V7.33355C1.95642 7.00939 2.08518 6.69853 2.31439 6.46931C2.54361 6.2401 2.85447 6.11133 3.17863 6.11133H22.7342Z" fill="#FFDDA1"/>
<path d="M23.9568 19.2148L20.4564 20.8466L17.8457 24.4484L22.2836 24.7638L23.9568 23.9827V19.2148Z" fill="#FFBC44"/>
<path d="M19.6664 9.77799C19.6664 10.1022 19.5376 10.413 19.3084 10.6422C19.0793 10.8714 18.7684 11.0002 18.4443 11.0002H7.44421C7.12005 11.0002 6.80918 10.8714 6.57997 10.6422C6.35076 10.413 6.22198 10.1022 6.22198 9.77799V6.11133H19.6664V9.77799Z" fill="#FFBC44"/>
<path d="M23.9564 25.0557V29.3336C23.9564 29.6577 23.8278 29.9686 23.5984 30.1978C23.3692 30.4269 23.0583 30.5557 22.7342 30.5557H3.17863C2.85447 30.5557 2.54361 30.4269 2.31439 30.1978C2.08518 29.9686 1.95642 29.6577 1.95642 29.3336V7.33355C1.95642 7.00939 2.08518 6.69853 2.31439 6.46931C2.54361 6.2401 2.85447 6.11133 3.17863 6.11133H6.8453" stroke="#191919" stroke-linecap="round" stroke-linejoin="round"/>
<path d="M19.0677 6.11133H22.7344C23.0585 6.11133 23.3695 6.2401 23.5987 6.46931C23.8279 6.69853 23.9565 7.00939 23.9565 7.33355V11.6113" stroke="#191919" stroke-linecap="round" stroke-linejoin="round"/>
<path d="M14.6863 4.88867H17.8457C18.1699 4.88867 18.4808 5.01744 18.7099 5.24664C18.9392 5.47586 19.0679 5.78674 19.0679 6.11089V7.33311C19.0679 7.65727 18.9392 7.96814 18.7099 8.19735C18.4808 8.42656 18.1699 8.55534 17.8457 8.55534H8.06792C7.74377 8.55534 7.43289 8.42656 7.20368 8.19735C6.97448 7.96814 6.8457 7.65727 6.8457 7.33311V6.11089C6.8457 5.78674 6.97448 5.47586 7.20368 5.24664C7.43289 5.01744 7.74377 4.88867 8.06792 4.88867H11.2335" fill="#E4F1F5"/>
<path d="M14.6863 4.88867H17.8457C18.1699 4.88867 18.4808 5.01744 18.7099 5.24664C18.9392 5.47586 19.0679 5.78674 19.0679 6.11089V7.33311C19.0679 7.65727 18.9392 7.96814 18.7099 8.19735C18.4808 8.42656 18.1699 8.55534 17.8457 8.55534H8.06792C7.74377 8.55534 7.43289 8.42656 7.20368 8.19735C6.97448 7.96814 6.8457 7.65727 6.8457 7.33311V6.11089C6.8457 5.78674 6.97448 5.47586 7.20368 5.24664C7.43289 5.01744 7.74377 4.88867 8.06792 4.88867H11.2335" stroke="#191919" stroke-linecap="round" stroke-linejoin="round"/>
<path d="M12.9564 6.111C13.319 6.111 13.6735 6.00348 13.9749 5.80204C14.2764 5.60057 14.5115 5.31427 14.6501 4.97927C14.7889 4.64427 14.8253 4.27564 14.7545 3.92001C14.6837 3.56437 14.5091 3.23771 14.2528 2.98131C13.9964 2.72491 13.6696 2.55031 13.314 2.47956C12.9584 2.40883 12.5898 2.44513 12.2548 2.58389C11.9198 2.72265 11.6335 2.95764 11.432 3.25913C11.2306 3.56061 11.123 3.91508 11.123 4.27767C11.123 4.76391 11.3162 5.23023 11.66 5.57403C12.0038 5.91785 12.4702 6.111 12.9564 6.111Z" fill="#98B7C0" stroke="#191919" stroke-linecap="round" stroke-linejoin="round"/>
<path d="M5.62305 13.4443H20.2897" stroke="#191919" stroke-linecap="round" stroke-linejoin="round"/>
<path d="M5.62305 18.333H17.1925" stroke="#191919" stroke-linecap="round" stroke-linejoin="round"/>
<path d="M5.62305 23.2227H15.38" stroke="#191919" stroke-linecap="round" stroke-linejoin="round"/>
<path d="M22.1234 23.2224L17.8457 24.4445L19.0678 20.1668L26.3792 12.8554C26.7866 12.461 27.3326 12.2426 27.8998 12.2471C28.4668 12.2518 29.0092 12.479 29.4102 12.88C29.8112 13.2809 30.0385 13.8234 30.043 14.3904C30.0476 14.9574 29.8292 15.5036 29.4348 15.911L22.1234 23.2224Z" fill="#66E1FF" stroke="#191919" stroke-linecap="round" stroke-linejoin="round"/>
</svg>
