<svg width="32" height="33" viewBox="0 0 32 33" fill="none" xmlns="http://www.w3.org/2000/svg">
<path d="M26.3891 26.8889V13.0423C26.39 12.7743 26.3377 12.5088 26.2357 12.2609C26.1336 12.0131 25.9837 11.7879 25.7945 11.5981C25.6052 11.4084 25.3803 11.2579 25.1327 11.1552C24.8852 11.0526 24.6197 10.9998 24.3516 11H7.64879C7.38076 10.9998 7.11535 11.0526 6.86776 11.1552C6.62018 11.2579 6.39528 11.4084 6.206 11.5981C6.01671 11.7879 5.86674 12.0131 5.7647 12.2609C5.66264 12.5088 5.61054 12.7743 5.61134 13.0423V26.8889H26.3891Z" fill="#66E1FF"/>
<path d="M24.5436 11.0125C24.48 11.0125 24.4213 11.0039 24.3516 11.0039H7.64877C7.38106 11.0037 7.11596 11.0564 6.8686 11.1588C6.62126 11.2612 6.39653 11.4114 6.20729 11.6007C6.01805 11.7901 5.86801 12.0149 5.76574 12.2623C5.66348 12.5097 5.61101 12.7749 5.61133 13.0426V26.8891H8.66688L24.5436 11.0125Z" fill="#C2F3FF"/>
<path d="M12.3336 11H7.64879C7.38076 10.9998 7.11535 11.0526 6.86776 11.1552C6.62018 11.2579 6.39528 11.4084 6.206 11.5981C6.01671 11.7879 5.86674 12.0131 5.7647 12.2609C5.66264 12.5088 5.61054 12.7743 5.61134 13.0423V26.8889H26.3891V18.9444" stroke="#191919" stroke-linecap="round" stroke-linejoin="round"/>
<path d="M30.0557 26.8887C30.0557 27.8611 29.6694 28.7937 28.9818 29.4813C28.2941 30.1689 27.3614 30.5553 26.389 30.5553H5.61131C4.63884 30.5553 3.70621 30.1689 3.01857 29.4813C2.33095 28.7937 1.94464 27.8611 1.94464 26.8887H30.0557Z" fill="white" stroke="#191919" stroke-linecap="round" stroke-linejoin="round"/>
<path d="M22.6404 2.44434C21.6755 2.44775 20.7209 2.64295 19.8321 3.01862C18.9435 3.39428 18.1383 3.94291 17.4636 4.63258C16.7888 5.32223 16.2579 6.13919 15.9017 7.0359C15.5456 7.93262 15.3712 8.89119 15.3889 9.8559C15.3339 11.2206 15.6648 12.5732 16.3435 13.7585L14.1667 18.3333L18.7389 16.1553C19.7137 16.7595 20.8153 17.1293 21.9572 17.2355C23.0991 17.3419 24.25 17.1817 25.3196 16.7677C26.3891 16.3537 27.3479 15.6973 28.1205 14.8498C28.8932 14.0025 29.4588 12.9873 29.7727 11.8843C30.0865 10.7813 30.1401 9.62046 29.9293 8.4932C29.7185 7.36595 29.2489 6.30299 28.5575 5.388C27.8661 4.473 26.972 3.7309 25.9452 3.22011C24.9184 2.70932 23.7872 2.44376 22.6404 2.44434Z" fill="#FFEF5E" stroke="#191919" stroke-linecap="round" stroke-linejoin="round"/>
<path d="M20.8887 8.55599C20.8887 8.19339 20.9963 7.83894 21.1976 7.53746C21.3991 7.23595 21.6855 7.00097 22.0204 6.86221C22.3555 6.72346 22.7241 6.68714 23.0796 6.75789C23.4353 6.82862 23.762 7.00323 24.0184 7.25963C24.2747 7.51603 24.4493 7.84269 24.5201 8.19834C24.5909 8.55397 24.5545 8.92258 24.4157 9.25758C24.2771 9.59258 24.042 9.8789 23.7407 10.0804C23.4391 10.2818 23.0847 10.3893 22.722 10.3893" stroke="#191919" stroke-linecap="round" stroke-linejoin="round"/>
<path d="M22.7223 12.8338C22.5535 12.8338 22.4167 12.697 22.4167 12.5282C22.4167 12.3595 22.5535 12.2227 22.7223 12.2227" stroke="#191919"/>
<path d="M22.722 12.8338C22.8908 12.8338 23.0276 12.697 23.0276 12.5282C23.0276 12.3595 22.8908 12.2227 22.722 12.2227" stroke="#191919"/>
</svg>
