<svg width="32" height="33" viewBox="0 0 32 33" fill="none" xmlns="http://www.w3.org/2000/svg">
<path d="M30.0556 9.74125V29.3334C30.0556 29.6577 29.9268 29.9685 29.6976 30.1977C29.4684 30.4269 29.1574 30.5557 28.8333 30.5557H8.05554C7.73138 30.5557 7.4205 30.4269 7.1913 30.1977C6.96209 29.9685 6.83331 29.6577 6.83331 29.3334V3.66681C6.83331 3.34266 6.96209 3.03178 7.1913 2.80257C7.4205 2.57335 7.73138 2.44458 8.05554 2.44458H22.7589C23.1561 2.44458 23.5533 2.48125 23.9444 2.55458V7.33347C23.9444 7.65763 24.0732 7.9685 24.3024 8.19771C24.5316 8.42693 24.8425 8.5557 25.1666 8.5557H29.9456C30.0189 8.94681 30.0556 9.34403 30.0556 9.74125Z" fill="#66E1FF"/>
<path d="M24.3722 8.26237L6.83331 25.8134V3.66681C6.83331 3.34266 6.96209 3.03178 7.1913 2.80257C7.4205 2.57335 7.73138 2.44458 8.05554 2.44458H22.7589C23.1561 2.44458 23.5533 2.48125 23.9444 2.55458V7.33347C23.9468 7.50962 23.9861 7.68331 24.0597 7.84331C24.1334 8.00331 24.2398 8.14607 24.3722 8.26237Z" fill="#C2F3FF"/>
<path d="M29.9457 8.55556H25.1669C25.0064 8.55556 24.8474 8.52395 24.6992 8.46252C24.5509 8.4011 24.4161 8.31107 24.3026 8.19758C24.1892 8.08408 24.099 7.94935 24.0377 7.80106C23.9762 7.65278 23.9446 7.49384 23.9446 7.33334V2.55444C25.4492 2.79583 26.8393 3.50584 27.9168 4.58336C28.9944 5.66088 29.7044 7.05095 29.9457 8.55556Z" fill="#E3E3E3"/>
<path d="M17.8333 30.5557H28.8333C29.1574 30.5557 29.4684 30.4269 29.6976 30.1977C29.9268 29.9685 30.0556 29.6577 30.0556 29.3334V9.74737C30.0556 8.78835 29.8666 7.83873 29.4996 6.95271C29.1326 6.0667 28.5948 5.26165 27.9166 4.58351C27.2385 3.90539 26.4334 3.36747 25.5474 3.00047C24.6614 2.63347 23.7117 2.44458 22.7528 2.44458H8.05554C7.73138 2.44458 7.4205 2.57335 7.1913 2.80257C6.96209 3.03178 6.83331 3.34266 6.83331 3.66681V12.2224" stroke="#191919" stroke-linecap="round" stroke-linejoin="round"/>
<path d="M23.9446 2.54224V7.33334C23.9446 7.49385 23.9762 7.65278 24.0377 7.80106C24.099 7.94936 24.1892 8.08409 24.3026 8.19758C24.4161 8.31108 24.5509 8.4011 24.6992 8.46253C24.8474 8.52396 25.0064 8.55557 25.1669 8.55557H29.958" stroke="#191919" stroke-linecap="round" stroke-linejoin="round"/>
<path d="M9.27797 30.5556C11.2229 30.5556 13.0881 29.783 14.4634 28.4077C15.8386 27.0325 16.6113 25.1672 16.6113 23.2222C16.6113 21.2773 15.8386 19.4121 14.4634 18.0368C13.0881 16.6616 11.2229 15.8889 9.27797 15.8889C7.33305 15.8889 5.46779 16.6616 4.09252 18.0368C2.71725 19.4121 1.94464 21.2773 1.94464 23.2222C1.94464 25.1672 2.71725 27.0325 4.09252 28.4077C5.46779 29.783 7.33305 30.5556 9.27797 30.5556Z" fill="#FFEF5E"/>
<path d="M4.0921 28.4084C2.71671 27.0331 1.94403 25.1676 1.94403 23.2225C1.94403 21.2775 2.71671 19.412 4.0921 18.0367C5.46747 16.6613 7.3329 15.8887 9.27798 15.8887C11.2231 15.8887 13.0885 16.6613 14.4639 18.0367L4.0921 28.4084Z" fill="#FFF9BF"/>
<path d="M9.27797 30.5556C11.2229 30.5556 13.0881 29.783 14.4634 28.4077C15.8386 27.0325 16.6113 25.1672 16.6113 23.2222C16.6113 21.2773 15.8386 19.4121 14.4634 18.0368C13.0881 16.6616 11.2229 15.8889 9.27797 15.8889C7.33305 15.8889 5.46779 16.6616 4.09252 18.0368C2.71725 19.4121 1.94464 21.2773 1.94464 23.2222C1.94464 25.1672 2.71725 27.0325 4.09252 28.4077C5.46779 29.783 7.33305 30.5556 9.27797 30.5556Z" stroke="#191919" stroke-linecap="round" stroke-linejoin="round"/>
<path d="M6.83331 22H11.7222" stroke="#191919" stroke-linecap="round" stroke-linejoin="round"/>
<path d="M6.83331 24.4446H11.7222" stroke="#191919" stroke-linecap="round" stroke-linejoin="round"/>
</svg>
