<svg width="32" height="33" viewBox="0 0 32 33" fill="none" xmlns="http://www.w3.org/2000/svg">
<path d="M29.479 19.6079L13.4751 3.59555C12.8981 3.07875 12.1622 2.77398 11.3888 2.73145H3.45532C3.13117 2.73145 2.82029 2.86022 2.59108 3.08942C2.36187 3.31865 2.23309 3.62951 2.23309 3.95367L2.24043 11.8908C2.2834 12.6644 2.5886 13.4002 3.10576 13.9771L19.1071 29.9773C19.185 30.0895 19.2952 30.1755 19.4231 30.2237C19.5511 30.2721 19.6907 30.2801 19.8232 30.2471C19.956 30.2139 20.0754 30.1414 20.1659 30.0389C20.2562 29.9362 20.3132 29.8086 20.3294 29.6729L22.3986 22.8981L29.1746 20.8301C29.3099 20.8134 29.437 20.7561 29.5392 20.6655C29.6412 20.5751 29.7136 20.4558 29.7466 20.3235C29.7795 20.1911 29.7715 20.0519 29.7238 19.9242C29.6759 19.7965 29.5907 19.6861 29.479 19.6079ZM8.34299 11.287C7.85952 11.287 7.38692 11.1436 6.98492 10.875C6.58293 10.6064 6.26963 10.2247 6.08461 9.77799C5.8996 9.33134 5.85119 8.83984 5.94551 8.36567C6.03983 7.89148 6.27264 7.45594 6.61451 7.11407C6.95636 6.77221 7.39192 6.53941 7.86609 6.44509C8.34027 6.35077 8.83177 6.39916 9.27844 6.58418C9.72509 6.76919 10.1069 7.08251 10.3755 7.4845C10.6441 7.88648 10.7874 8.35909 10.7874 8.84255C10.7874 9.49086 10.5299 10.1126 10.0715 10.571C9.61304 11.0295 8.99129 11.287 8.34299 11.287Z" fill="#FFBC44"/>
<path d="M6.61469 7.11434C7.07319 6.65582 7.69507 6.39822 8.34351 6.39822C8.99195 6.39822 9.61383 6.65582 10.0724 7.11434C10.5309 7.57286 10.7885 8.19473 10.7885 8.84317C10.7885 9.49161 10.5309 10.1135 10.0724 10.572L22.3985 22.8981L29.1745 20.8301C29.3098 20.8134 29.4369 20.7561 29.539 20.6655C29.6412 20.5751 29.7136 20.4558 29.7465 20.3235C29.7794 20.1911 29.7714 20.0519 29.7237 19.9242C29.6758 19.7965 29.5905 19.6861 29.4789 19.6079L13.475 3.59555C12.898 3.07875 12.1621 2.77398 11.3887 2.73145H3.45523C3.29466 2.73163 3.1357 2.76347 2.98743 2.82513C2.83917 2.88678 2.7045 2.97706 2.59113 3.09078L6.61469 7.11434Z" fill="#FFDDA1"/>
<path d="M29.479 19.6079L13.4751 3.59555C12.8981 3.07875 12.1622 2.77398 11.3888 2.73145H3.45532C3.13117 2.73145 2.82029 2.86022 2.59108 3.08942C2.36187 3.31865 2.23309 3.62951 2.23309 3.95367L2.24043 11.8908C2.2834 12.6644 2.5886 13.4002 3.10576 13.9771L19.1071 29.9773C19.185 30.0895 19.2952 30.1755 19.4231 30.2237C19.5511 30.2721 19.6907 30.2801 19.8232 30.2471C19.956 30.2139 20.0754 30.1414 20.1659 30.0389C20.2562 29.9362 20.3132 29.8086 20.3294 29.6729L22.3986 22.8981L29.1746 20.8301C29.3099 20.8134 29.437 20.7561 29.5392 20.6655C29.6412 20.5751 29.7136 20.4558 29.7466 20.3235C29.7795 20.1911 29.7715 20.0519 29.7238 19.9242C29.6759 19.7965 29.5907 19.6861 29.479 19.6079ZM8.34299 11.287C7.85952 11.287 7.38692 11.1436 6.98492 10.875C6.58293 10.6064 6.26963 10.2247 6.08461 9.77799C5.8996 9.33134 5.85119 8.83984 5.94551 8.36567C6.03983 7.89148 6.27264 7.45594 6.61451 7.11407C6.95636 6.77221 7.39192 6.53941 7.86609 6.44509C8.34027 6.35077 8.83177 6.39916 9.27844 6.58418C9.72509 6.76919 10.1069 7.08251 10.3755 7.4845C10.6441 7.88648 10.7874 8.35909 10.7874 8.84255C10.7874 9.49086 10.5299 10.1126 10.0715 10.571C9.61304 11.0295 8.99129 11.287 8.34299 11.287Z" stroke="#191919" stroke-linecap="round" stroke-linejoin="round"/>
</svg>
