<svg width="32" height="33" viewBox="0 0 32 33" fill="none" xmlns="http://www.w3.org/2000/svg">
<path d="M27.9778 4.3999C28.114 4.21831 28.197 4.00239 28.2174 3.77634C28.2376 3.55026 28.1947 3.32299 28.0932 3.11998C27.9918 2.91695 27.8356 2.7462 27.6426 2.62688C27.4495 2.50755 27.227 2.44434 27 2.44434H4.97679C4.74982 2.44434 4.52733 2.50755 4.33423 2.62688C4.14117 2.7462 3.98513 2.91695 3.88362 3.11998C3.7821 3.32299 3.73914 3.55026 3.75951 3.77634C3.7799 4.00239 3.86283 4.21831 3.99902 4.3999L13.5422 17.2222V29.3333C13.5422 29.5602 13.6054 29.7827 13.7247 29.9758C13.844 30.1689 14.0148 30.325 14.2178 30.4263C14.4208 30.5279 14.648 30.5709 14.8742 30.5506C15.1002 30.5302 15.316 30.4471 15.4978 30.311L17.9422 28.4777C18.0939 28.3639 18.2171 28.2162 18.3019 28.0465C18.387 27.8769 18.431 27.6895 18.431 27.4999V17.221L27.9778 4.3999Z" fill="#FFEF5E"/>
<path d="M16 2.44434H4.97679C4.74982 2.44434 4.52733 2.50755 4.33423 2.62688C4.14117 2.7462 3.98513 2.91695 3.88362 3.11998C3.7821 3.32299 3.73914 3.55026 3.75951 3.77634C3.7799 4.00239 3.86283 4.21831 3.99902 4.3999L13.5422 17.2222V29.3333C13.5422 29.5602 13.6054 29.7827 13.7247 29.9758C13.844 30.1689 14.0148 30.325 14.2178 30.4263C14.4208 30.5279 14.648 30.5709 14.8742 30.5506C15.1002 30.5302 15.316 30.4471 15.4978 30.311L16 29.9358V2.44434Z" fill="#FFF9BF"/>
<path d="M27.9778 4.3999C28.114 4.21831 28.197 4.00239 28.2174 3.77634C28.2376 3.55026 28.1947 3.32299 28.0932 3.11998C27.9918 2.91695 27.8356 2.7462 27.6426 2.62688C27.4495 2.50755 27.227 2.44434 27 2.44434H4.97679C4.74982 2.44434 4.52733 2.50755 4.33423 2.62688C4.14117 2.7462 3.98513 2.91695 3.88362 3.11998C3.7821 3.32299 3.73914 3.55026 3.75951 3.77634C3.7799 4.00239 3.86283 4.21831 3.99902 4.3999L13.5422 17.2222V29.3333C13.5422 29.5602 13.6054 29.7827 13.7247 29.9758C13.844 30.1689 14.0148 30.325 14.2178 30.4263C14.4208 30.5279 14.648 30.5709 14.8742 30.5506C15.1002 30.5302 15.316 30.4471 15.4978 30.311L17.9422 28.4777C18.0939 28.3639 18.2171 28.2162 18.3019 28.0465C18.387 27.8769 18.431 27.6895 18.431 27.4999V17.221L27.9778 4.3999Z" stroke="#191919" stroke-linecap="round" stroke-linejoin="round"/>
</svg>
