<svg width="150" height="50" viewBox="0 0 150 50" fill="none" xmlns="http://www.w3.org/2000/svg">
<path d="M10.5543 48.9047C10.1735 48.9047 9.80184 48.8998 9.42399 48.8913C8.64124 48.8811 7.86033 48.813 7.08764 48.6875C6.36715 48.5634 5.66919 48.3326 5.01678 48.0026C4.37035 47.6754 3.78076 47.2464 3.27059 46.7319C2.75303 46.2235 2.32214 45.6339 1.99499 44.9863C1.66424 44.3346 1.43534 43.636 1.31626 42.9149C1.18767 42.1401 1.1181 41.3566 1.10814 40.5712C1.10022 40.3076 1.08984 39.4299 1.08984 39.4299V10.5551C1.08984 10.5551 1.10089 9.69089 1.10821 9.43698C1.11774 8.65286 1.18691 7.8706 1.31511 7.09697C1.43441 6.37389 1.66348 5.67329 1.99442 5.01941C2.32036 4.37232 2.74886 3.78224 3.2633 3.27203C3.77716 2.75697 4.36864 2.32572 5.01617 1.99398C5.66708 1.6651 6.36372 1.4359 7.08275 1.31408C7.85798 1.18729 8.64161 1.11874 9.42707 1.10901L10.5549 1.09375H139.012L140.153 1.10962C140.931 1.11887 141.708 1.18681 142.476 1.31286C143.202 1.43621 143.906 1.667 144.564 1.99765C145.862 2.66618 146.917 3.72387 147.583 5.02246C147.909 5.67183 148.134 6.36671 148.252 7.08355C148.382 7.86352 148.454 8.65193 148.469 9.44248C148.473 9.79647 148.473 10.1767 148.473 10.5551C148.483 11.0239 148.483 11.47 148.483 11.9198V38.0798C148.483 38.5339 148.483 38.977 148.473 39.4238C148.473 39.8303 148.473 40.2026 148.468 40.5859C148.453 41.3623 148.382 42.1366 148.254 42.9027C148.138 43.629 147.91 44.333 147.579 44.9901C147.25 45.6306 146.822 46.2151 146.31 46.7222C145.799 47.2394 145.209 47.6709 144.561 48.0002C143.904 48.3327 143.201 48.5644 142.476 48.6875C141.703 48.8137 140.922 48.8818 140.139 48.8913C139.773 48.8998 139.39 48.9047 139.018 48.9047L137.663 48.9072L10.5543 48.9047Z" fill="black"/>
<path d="M52.8747 33.9237H46.9581L45.5373 38.1192H43.0312L48.6353 22.5972H51.239L56.8431 38.1192H54.2943L52.8747 33.9237ZM47.5709 31.9878H52.2608L49.9488 25.1789H49.8841L47.5709 31.9878Z" fill="white"/>
<path d="M68.9453 32.4611C68.9453 35.9779 67.063 38.2373 64.2225 38.2373C63.503 38.275 62.7874 38.1092 62.1576 37.759C61.5279 37.4089 61.0095 36.8885 60.6618 36.2574H60.6081V41.8627H58.2852V26.8021H60.5336V28.6844H60.5763C60.94 28.0563 61.4672 27.5386 62.1017 27.1863C62.7362 26.834 63.4544 26.6603 64.1797 26.6837C67.052 26.6837 68.9453 28.9542 68.9453 32.4611ZM66.5576 32.4611C66.5576 30.17 65.3736 28.6637 63.567 28.6637C61.7922 28.6637 60.5983 30.2017 60.5983 32.4611C60.5983 34.7413 61.7922 36.2684 63.567 36.2684C65.3736 36.2684 66.5576 34.7731 66.5576 32.4611H66.5576Z" fill="white"/>
<path d="M81.4029 32.4611C81.4029 35.9779 79.52 38.2373 76.6795 38.2373C75.96 38.275 75.2444 38.1092 74.6147 37.759C73.9849 37.4089 73.4666 36.8885 73.1189 36.2574H73.0651V41.8627H70.7422V26.8021H72.9907V28.6844H73.0334C73.3971 28.0563 73.9242 27.5386 74.5587 27.1863C75.1932 26.834 75.9114 26.6603 76.6368 26.6837C79.509 26.6837 81.4029 28.9542 81.4029 32.4611ZM79.0147 32.4611C79.0147 30.17 77.8306 28.6637 76.024 28.6637C74.2492 28.6637 73.0554 30.2017 73.0554 32.4611C73.0554 34.7413 74.2492 36.2684 76.024 36.2684C77.8306 36.2684 79.0147 34.7731 79.0147 32.4611Z" fill="white"/>
<path d="M89.6318 33.7944C89.8039 35.3336 91.2993 36.3443 93.3426 36.3443C95.3006 36.3443 96.7092 35.3336 96.7092 33.9457C96.7092 32.7409 95.8597 32.0195 93.848 31.5251L91.8363 31.0405C88.9861 30.352 87.6629 29.0191 87.6629 26.8561C87.6629 24.1779 89.9968 22.3384 93.3097 22.3384C96.5908 22.3384 98.8393 24.1779 98.915 26.8561H96.5701C96.4297 25.307 95.1492 24.372 93.2779 24.372C91.4067 24.372 90.1262 25.318 90.1262 26.6949C90.1262 27.7923 90.944 28.438 92.9447 28.9324L94.6548 29.3523C97.8395 30.1054 99.1615 31.3847 99.1615 33.6551C99.1615 36.5591 96.8496 38.3779 93.1705 38.3779C89.7282 38.3779 87.4041 36.6018 87.2539 33.7943L89.6318 33.7944Z" fill="white"/>
<path d="M104.179 24.124V26.8022H106.331V28.6417H104.179V34.8805C104.179 35.8497 104.609 36.3014 105.555 36.3014C105.811 36.2969 106.066 36.279 106.32 36.2476V38.0762C105.894 38.1556 105.462 38.1916 105.029 38.1836C102.738 38.1836 101.845 37.323 101.845 35.1283V28.6417H100.199V26.8022H101.845V24.124H104.179Z" fill="white"/>
<path d="M107.574 32.4612C107.574 28.9006 109.671 26.6631 112.941 26.6631C116.223 26.6631 118.31 28.9005 118.31 32.4612C118.31 36.0317 116.234 38.2594 112.941 38.2594C109.651 38.2594 107.574 36.0317 107.574 32.4612ZM115.943 32.4612C115.943 30.0187 114.824 28.5771 112.941 28.5771C111.059 28.5771 109.94 30.0297 109.94 32.4612C109.94 34.9135 111.059 36.3442 112.941 36.3442C114.824 36.3442 115.943 34.9135 115.943 32.4612H115.943Z" fill="white"/>
<path d="M120.227 26.8025H122.442V28.7287H122.496C122.646 28.1271 122.998 27.5955 123.494 27.2231C123.99 26.8508 124.598 26.6604 125.218 26.6841C125.486 26.6832 125.753 26.7122 126.014 26.7708V28.9435C125.676 28.8403 125.323 28.7929 124.97 28.8032C124.633 28.7895 124.296 28.849 123.984 28.9776C123.672 29.1062 123.391 29.3009 123.161 29.5482C122.931 29.7956 122.757 30.0898 122.652 30.4106C122.546 30.7314 122.511 31.0713 122.549 31.4068V38.1193H120.227L120.227 26.8025Z" fill="white"/>
<path d="M136.724 34.7951C136.412 36.8495 134.411 38.2594 131.851 38.2594C128.559 38.2594 126.516 36.0536 126.516 32.5149C126.516 28.9653 128.57 26.6631 131.753 26.6631C134.884 26.6631 136.853 28.8139 136.853 32.2452V33.0411H128.861V33.1814C128.824 33.5979 128.876 34.0175 129.013 34.4123C129.151 34.8071 129.371 35.168 129.659 35.4712C129.947 35.7744 130.296 36.0128 130.684 36.1707C131.071 36.3286 131.487 36.4023 131.905 36.3869C132.454 36.4383 133.005 36.3112 133.476 36.0244C133.946 35.7376 134.312 35.3065 134.518 34.7951L136.724 34.7951ZM128.871 31.4176H134.529C134.55 31.0431 134.493 30.6683 134.363 30.3168C134.232 29.9653 134.03 29.6447 133.769 29.375C133.508 29.1053 133.195 28.8924 132.848 28.7496C132.501 28.6068 132.128 28.5373 131.753 28.5453C131.375 28.5431 131 28.6158 130.65 28.7592C130.3 28.9026 129.982 29.1139 129.714 29.381C129.446 29.648 129.234 29.9655 129.089 30.315C128.944 30.6646 128.871 31.0393 128.871 31.4176V31.4176Z" fill="white"/>
<path d="M47.2799 10.9132C47.7669 10.8783 48.2556 10.9519 48.7108 11.1287C49.1659 11.3054 49.5761 11.581 49.9118 11.9356C50.2475 12.2901 50.5004 12.7147 50.6521 13.1788C50.8039 13.6428 50.8508 14.1348 50.7893 14.6192C50.7893 17.0019 49.5016 18.3716 47.2799 18.3716H44.5859V10.9132H47.2799ZM45.7443 17.3168H47.1505C47.4985 17.3376 47.8468 17.2805 48.17 17.1498C48.4931 17.019 48.7831 16.8178 49.0187 16.5609C49.2543 16.3039 49.4296 15.9977 49.532 15.6644C49.6343 15.3312 49.661 14.9793 49.6102 14.6344C49.6573 14.2908 49.6279 13.9411 49.524 13.6103C49.4201 13.2795 49.2443 12.9758 49.0092 12.7209C48.7742 12.466 48.4856 12.2662 48.1643 12.1359C47.8429 12.0056 47.4968 11.948 47.1505 11.9672H45.7443V17.3168Z" fill="white"/>
<path d="M52.0985 15.5547C52.0631 15.1848 52.1054 14.8116 52.2227 14.459C52.34 14.1064 52.5297 13.7823 52.7796 13.5073C53.0295 13.2323 53.3342 13.0126 53.674 12.8623C54.0138 12.7119 54.3813 12.6343 54.7528 12.6343C55.1244 12.6343 55.4919 12.7119 55.8317 12.8623C56.1715 13.0126 56.4761 13.2323 56.726 13.5073C56.976 13.7823 57.1656 14.1064 57.2829 14.459C57.4002 14.8116 57.4425 15.1848 57.4072 15.5547C57.4432 15.9249 57.4014 16.2986 57.2844 16.6518C57.1674 17.0049 56.9779 17.3297 56.7279 17.6052C56.4779 17.8807 56.173 18.1009 55.8329 18.2515C55.4927 18.4022 55.1248 18.48 54.7528 18.48C54.3808 18.48 54.0129 18.4022 53.6728 18.2515C53.3326 18.1009 53.0278 17.8807 52.7778 17.6052C52.5278 17.3297 52.3382 17.0049 52.2212 16.6518C52.1042 16.2986 52.0624 15.9249 52.0985 15.5547ZM56.2646 15.5547C56.2646 14.3346 55.7165 13.6211 54.7547 13.6211C53.7891 13.6211 53.246 14.3346 53.246 15.5547C53.246 16.7845 53.7892 17.4925 54.7547 17.4925C55.7166 17.4925 56.2646 16.7796 56.2646 15.5547H56.2646Z" fill="white"/>
<path d="M64.4617 18.3716H63.3094L62.1461 14.2263H62.0582L60.8998 18.3716H59.7585L58.207 12.7432H59.3337L60.342 17.038H60.425L61.5822 12.7432H62.6478L63.805 17.038H63.8929L64.8963 12.7432H66.0071L64.4617 18.3716Z" fill="white"/>
<path d="M67.3125 12.7431H68.3818V13.6372H68.4648C68.6056 13.3161 68.8431 13.0469 69.1442 12.8671C69.4453 12.6874 69.7949 12.606 70.1444 12.6344C70.4183 12.6139 70.6933 12.6551 70.949 12.7553C71.2048 12.8554 71.4347 13.0118 71.6218 13.2128C71.8089 13.4139 71.9484 13.6544 72.0299 13.9167C72.1114 14.179 72.1328 14.4562 72.0926 14.7279V18.3715H70.9818V15.0068C70.9818 14.1023 70.5888 13.6525 69.7673 13.6525C69.5813 13.6438 69.3957 13.6755 69.2231 13.7453C69.0506 13.815 68.8951 13.9213 68.7675 14.0568C68.6398 14.1923 68.543 14.3538 68.4836 14.5302C68.4242 14.7066 68.4036 14.8937 68.4233 15.0788V18.3716H67.3125L67.3125 12.7431Z" fill="white"/>
<path d="M73.8633 10.5459H74.9741V18.3716H73.8633V10.5459Z" fill="white"/>
<path d="M76.5203 15.5548C76.485 15.1849 76.5273 14.8116 76.6446 14.459C76.762 14.1065 76.9517 13.7823 77.2016 13.5073C77.4516 13.2323 77.7562 13.0126 78.0961 12.8623C78.4359 12.7119 78.8034 12.6343 79.175 12.6343C79.5466 12.6343 79.9141 12.7119 80.2539 12.8623C80.5937 13.0126 80.8984 13.2323 81.1483 13.5073C81.3983 13.7823 81.588 14.1065 81.7053 14.459C81.8226 14.8116 81.865 15.1849 81.8296 15.5548C81.8656 15.925 81.8238 16.2988 81.7068 16.6519C81.5897 17.005 81.4001 17.3298 81.1501 17.6053C80.9001 17.8808 80.5952 18.101 80.2551 18.2516C79.9149 18.4023 79.547 18.4801 79.175 18.4801C78.803 18.4801 78.435 18.4023 78.0949 18.2516C77.7547 18.101 77.4498 17.8808 77.1998 17.6053C76.9498 17.3298 76.7602 17.005 76.6432 16.6519C76.5262 16.2988 76.4843 15.925 76.5203 15.5548ZM80.6865 15.5548C80.6865 14.3347 80.1384 13.6212 79.1765 13.6212C78.211 13.6212 77.6678 14.3347 77.6678 15.5548C77.6678 16.7846 78.211 17.4926 79.1765 17.4926C80.1384 17.4926 80.6865 16.7797 80.6865 15.5548H80.6865Z" fill="white"/>
<path d="M82.9961 16.7796C82.9961 15.7665 83.7505 15.1824 85.0895 15.0994L86.6141 15.0115V14.5257C86.6141 13.9312 86.2211 13.5955 85.4618 13.5955C84.8417 13.5955 84.4121 13.8232 84.2888 14.2211H83.2134C83.3269 13.2544 84.2363 12.6343 85.5131 12.6343C86.9242 12.6343 87.7201 13.3368 87.7201 14.5257V18.3714H86.6508V17.5804H86.5629C86.3845 17.8641 86.134 18.0954 85.837 18.2507C85.54 18.406 85.207 18.4796 84.8723 18.4641C84.636 18.4887 84.3972 18.4635 84.1712 18.3901C83.9453 18.3168 83.7372 18.1969 83.5604 18.0381C83.3837 17.8794 83.2421 17.6855 83.1449 17.4687C83.0477 17.2519 82.997 17.0172 82.9961 16.7796ZM86.6141 16.2987V15.8281L85.2397 15.916C84.4645 15.9679 84.113 16.2316 84.113 16.7278C84.113 17.2343 84.5524 17.5291 85.1567 17.5291C85.3338 17.547 85.5126 17.5292 85.6826 17.4766C85.8526 17.4239 86.0103 17.3377 86.1463 17.2229C86.2822 17.1081 86.3937 16.9671 86.4741 16.8083C86.5545 16.6496 86.6021 16.4762 86.6141 16.2987Z" fill="white"/>
<path d="M89.1797 15.5549C89.1797 13.7764 90.094 12.6497 91.516 12.6497C91.8678 12.6335 92.2169 12.7178 92.5226 12.8926C92.8282 13.0675 93.0778 13.3257 93.2421 13.6372H93.3251V10.5459H94.4359V18.3716H93.3715V17.4823H93.2836C93.1066 17.7917 92.8483 18.0467 92.5368 18.2198C92.2252 18.3929 91.8722 18.4775 91.516 18.4643C90.0842 18.4644 89.1797 17.3377 89.1797 15.5549ZM90.3272 15.5549C90.3272 16.7487 90.8899 17.4671 91.831 17.4671C92.7672 17.4671 93.3459 16.7384 93.3459 15.5598C93.3459 14.3867 92.7612 13.6476 91.831 13.6476C90.8959 13.6476 90.3271 14.3709 90.3271 15.5549H90.3272Z" fill="white"/>
<path d="M99.0321 15.5547C98.9967 15.1848 99.039 14.8116 99.1563 14.459C99.2736 14.1064 99.4633 13.7823 99.7132 13.5073C99.9631 13.2323 100.268 13.0126 100.608 12.8623C100.947 12.7119 101.315 12.6343 101.686 12.6343C102.058 12.6343 102.425 12.7119 102.765 12.8623C103.105 13.0126 103.41 13.2323 103.66 13.5073C103.91 13.7823 104.099 14.1064 104.217 14.459C104.334 14.8116 104.376 15.1848 104.341 15.5547C104.377 15.9249 104.335 16.2986 104.218 16.6518C104.101 17.0049 103.911 17.3297 103.661 17.6052C103.411 17.8807 103.107 18.1009 102.766 18.2515C102.426 18.4022 102.058 18.48 101.686 18.48C101.314 18.48 100.946 18.4022 100.606 18.2515C100.266 18.1009 99.9614 17.8807 99.7114 17.6052C99.4614 17.3297 99.2718 17.0049 99.1548 16.6518C99.0378 16.2986 98.996 15.9249 99.0321 15.5547ZM103.198 15.5547C103.198 14.3346 102.65 13.6211 101.688 13.6211C100.723 13.6211 100.18 14.3346 100.18 15.5547C100.18 16.7845 100.723 17.4925 101.688 17.4925C102.65 17.4925 103.198 16.7796 103.198 15.5547Z" fill="white"/>
<path d="M105.832 12.7431H106.901V13.6372H106.984C107.125 13.3161 107.363 13.0469 107.664 12.8671C107.965 12.6874 108.314 12.606 108.664 12.6344C108.938 12.6139 109.213 12.6551 109.469 12.7553C109.724 12.8554 109.954 13.0118 110.141 13.2128C110.328 13.4139 110.468 13.6544 110.549 13.9167C110.631 14.179 110.652 14.4562 110.612 14.7279V18.3715H109.501V15.0068C109.501 14.1023 109.108 13.6525 108.287 13.6525C108.101 13.6438 107.915 13.6755 107.743 13.7453C107.57 13.815 107.415 13.9213 107.287 14.0568C107.159 14.1923 107.063 14.3538 107.003 14.5302C106.944 14.7066 106.923 14.8937 106.943 15.0788V18.3716H105.832V12.7431Z" fill="white"/>
<path d="M116.888 11.3418V12.7688H118.108V13.7044H116.888V16.5986C116.888 17.1882 117.131 17.4463 117.684 17.4463C117.826 17.4459 117.967 17.4373 118.108 17.4207V18.346C117.908 18.3816 117.706 18.4006 117.504 18.4027C116.268 18.4027 115.776 17.9682 115.776 16.883V13.7043H114.883V12.7687H115.776V11.3418H116.888Z" fill="white"/>
<path d="M119.625 10.5459H120.726V13.6476H120.814C120.962 13.3235 121.206 13.0527 121.513 12.8723C121.82 12.6919 122.175 12.6105 122.53 12.6393C122.803 12.6245 123.075 12.67 123.328 12.7726C123.581 12.8751 123.808 13.0322 123.993 13.2326C124.178 13.433 124.317 13.6718 124.399 13.932C124.481 14.1921 124.505 14.4672 124.469 14.7377V18.3716H123.357V15.0117C123.357 14.1127 122.938 13.6574 122.153 13.6574C121.962 13.6417 121.77 13.6679 121.59 13.7343C121.411 13.8006 121.248 13.9054 121.113 14.0413C120.978 14.1772 120.874 14.341 120.809 14.5211C120.744 14.7013 120.719 14.8935 120.736 15.0843V18.3716H119.625L119.625 10.5459Z" fill="white"/>
<path d="M130.946 16.8518C130.795 17.3662 130.468 17.8111 130.022 18.1088C129.576 18.4065 129.04 18.5379 128.507 18.4801C128.136 18.4899 127.768 18.4189 127.427 18.272C127.086 18.1251 126.782 17.9058 126.534 17.6294C126.287 17.353 126.103 17.026 125.994 16.6713C125.886 16.3165 125.856 15.9424 125.907 15.575C125.857 15.2064 125.888 14.8315 125.996 14.4756C126.104 14.1198 126.287 13.7913 126.533 13.5125C126.779 13.2337 127.083 13.011 127.422 12.8595C127.762 12.708 128.13 12.6312 128.502 12.6344C130.068 12.6344 131.013 13.7043 131.013 15.4718V15.8594H127.038V15.9216C127.021 16.1282 127.047 16.3361 127.115 16.532C127.182 16.7279 127.29 16.9076 127.431 17.0594C127.572 17.2112 127.744 17.3319 127.934 17.4136C128.125 17.4953 128.33 17.5364 128.537 17.5341C128.803 17.566 129.072 17.5181 129.311 17.3966C129.549 17.2751 129.746 17.0854 129.876 16.8517L130.946 16.8518ZM127.038 15.0379H129.881C129.895 14.849 129.87 14.6592 129.806 14.4808C129.742 14.3024 129.642 14.1393 129.511 14.002C129.381 13.8647 129.223 13.7562 129.048 13.6835C128.873 13.6108 128.685 13.5754 128.496 13.5798C128.304 13.5774 128.113 13.6134 127.935 13.6859C127.757 13.7583 127.595 13.8656 127.46 14.0015C127.324 14.1374 127.217 14.2991 127.144 14.4771C127.072 14.6551 127.036 14.8457 127.038 15.0379H127.038Z" fill="white"/>
<path d="M31.2457 24.8606C31.2597 23.7757 31.5478 22.712 32.0834 21.7683C32.619 20.8247 33.3845 20.0319 34.3088 19.4637C33.7216 18.6251 32.947 17.9349 32.0464 17.4481C31.1459 16.9612 30.1442 16.6911 29.121 16.6591C26.9383 16.4299 24.8222 17.9652 23.7099 17.9652C22.5761 17.9652 20.8636 16.6818 19.0195 16.7197C17.8266 16.7583 16.6642 17.1051 15.6452 17.7265C14.6263 18.3479 13.7858 19.2227 13.2054 20.2655C10.6916 24.6179 12.5667 31.0144 14.9748 34.5325C16.1796 36.2553 17.5876 38.1796 19.4301 38.1114C21.233 38.0366 21.9064 36.9617 24.0827 36.9617C26.2388 36.9617 26.8706 38.1114 28.7504 38.068C30.685 38.0366 31.9039 36.3376 33.0665 34.5986C33.9322 33.371 34.5983 32.0144 35.0402 30.5788C33.9162 30.1034 32.957 29.3077 32.2823 28.2908C31.6075 27.274 31.247 26.081 31.2457 24.8606Z" fill="white"/>
<path d="M27.6965 14.3458C28.7514 13.0795 29.2711 11.4519 29.1452 9.80859C27.5336 9.97786 26.045 10.7481 24.9759 11.9658C24.4532 12.5607 24.0529 13.2528 23.7978 14.0025C23.5427 14.7522 23.4379 15.5448 23.4893 16.335C24.2954 16.3433 25.0928 16.1686 25.8216 15.8241C26.5503 15.4795 27.1914 14.9741 27.6965 14.3458Z" fill="white"/>
</svg>
