<svg viewBox="0 0 340.16 152.35" xmlns="http://www.w3.org/2000/svg"><path d="m94.5 10.02 25.28-7.49-52.06 119.4s-7.62 1.64-18.6 5.86z" fill="#9c9092"/><path d="m2.53 58.46 1.74 1.87s.97.97 2.97 0 23.64-10.46 46.76-14.4 34.88-3.1 52.51-.26 28.74 14.21 28.74 14.21 11.56 9.43 7.69 27.77c-3.88 18.34-30.62 29.84-30.62 29.84s-10.53 4.78-36.04 9.24-37.59 1.29-37.59 1.29-15.05-1.87-19.51-13.05c0 0-2.71-8.14 4.39-16.79 0 0 5.88-8.2 18.08-13.69 12.21-5.49 24.22-6.65 28.42-6.72l1.16-4.26s-6.98-.19-16.41 1.29-21.38 7.1-21.38 7.1-16.53 8.27-23.06 21.06c0 0-5.04 11.43.71 19.76 0 0 6.39 10.92 24.35 14.66 17.96 3.75 45.92-.97 45.92-.97s19.89-3.29 42.82-11.76c22.93-8.46 34.62-21.38 34.62-21.38s19.55-20.07 6.72-41.42c-12.83-21.36-45.47-26.44-45.47-26.44s-22.8-3.96-45.92-1.77c0 0-21.38 2.2-36.17 7.3s-28.78 12.36-35.43 17.52z" fill="#9c9092"/><path d="m91.97 7.49 25.28-7.49-52.06 119.4s-7.62 1.64-18.6 5.86z" fill="#f98254"/><path d="m0 55.93 1.74 1.87s.97.97 2.97 0 23.64-10.46 46.76-14.4 34.88-3.1 52.51-.26 28.74 14.21 28.74 14.21 11.56 9.43 7.69 27.77c-3.88 18.34-30.62 29.84-30.62 29.84s-10.53 4.78-36.04 9.24-37.59 1.29-37.59 1.29-15.05-1.87-19.51-13.05c0 0-2.71-8.14 4.39-16.79 0 0 5.88-8.2 18.08-13.69 12.21-5.49 24.22-6.65 28.42-6.72l1.16-4.26s-6.98-.19-16.41 1.29-21.38 7.1-21.38 7.1-16.53 8.27-23.06 21.06c0 0-5.04 11.43.71 19.76 0 0 6.39 10.92 24.35 14.66 17.96 3.75 45.92-.97 45.92-.97s19.89-3.29 42.82-11.76c22.93-8.46 34.62-21.38 34.62-21.38s19.55-20.07 6.72-41.42c-12.83-21.36-45.47-26.44-45.47-26.44s-22.8-3.96-45.92-1.77c0 0-21.38 2.2-36.17 7.3s-28.78 12.36-35.43 17.52z" fill="#f98254"/><g fill="#555c5c"><path d="m338.75 114.98c-.18 3.16-1.56 6.55-2.92 9.96-2.29 5.74-4.92 11.39-6.65 17.3-1.13 3.86-3.6 5.8-6.67 7.55-.78.44-1.59.84-2.42 1.17-2.29.89-3.83-.02-3.53-2.42.31-2.47.95-4.97 1.87-7.28 2.54-6.35 5.32-12.61 7.96-18.92.42-1.01.76-2.07.99-3.14.69-3.26-1.38-5.75-4.72-5.47-1.72.14-3.47.59-5.07 1.24-4.58 1.85-8.21 4.93-11.05 8.96-3.96 5.62-7.58 11.47-9.41 18.13-1.44 5.24-5.62 7.04-9.92 8.83-1.24.52-2.6-.7-2.52-2.36.08-1.68.3-3.45.91-5 2.63-6.63 5.31-13.24 8.18-19.76 4.19-9.51 8.56-18.93 12.85-28.4 1.73-3.82 5.14-5.1 8.88-5.87.68-.14 1.38-.25 2.06-.23 1.77.06 2.44 1.16 1.66 2.72-.53 1.06-1.21 2.04-1.72 3.1-3.19 6.6-6.36 13.2-9.5 19.83-.21.44-.07 1.04-.1 1.56.52-.15 1.11-.19 1.54-.47 3.07-2 6-4.22 9.17-6.04 4-2.3 8.32-3.81 13.05-3.4 4.39.38 7.08 3.41 7.04 8.41z"/><path d="m138.9 115.46c.63-.41 1.28-.8 1.89-1.24 3.45-2.49 7.05-4.74 11.08-6.13 2.29-.79 4.7-1.4 7.11-1.66 5.94-.65 10.01 4.11 8.95 10.13-.78 4.43-2.66 8.44-4.49 12.49-2.23 4.93-4.49 9.85-5.67 15.18-.21.93-.96 1.94-1.76 2.51-2.13 1.54-4.33 3.05-6.67 4.22-2.16 1.08-3.74-.06-3.46-2.47.26-2.2.76-4.45 1.59-6.5 2.23-5.51 4.72-10.91 7.06-16.38.8-1.87 1.64-3.75 2.16-5.7 1.11-4.11-1.61-7-5.81-6.19-5.6 1.08-10.08 4.14-13.67 8.44-5.2 6.23-9.12 13.19-11.1 21.13-.44 1.77-1.56 2.98-2.93 3.89-1.99 1.33-4.1 2.51-6.25 3.56-1.89.92-3.34-.06-3.15-2.17.16-1.72.53-3.49 1.2-5.08 2.59-6.2 5.3-12.34 8.01-18.49 1.99-4.51 4.07-8.97 6.04-13.48.63-1.43 1.69-2.47 2.95-3.16 2.29-1.24 4.77-2.11 7.42-2.16 1.75-.04 2.58 1.06 1.98 2.73-.55 1.52-1.36 2.95-2.05 4.42-.28.6-.56 1.19-.84 1.79.14.1.27.21.41.31z"/><path d="m86.45 133.19c-.37 0-.73 0-1.1 0-2.27.02-2.6.34-2.76 2.63-.37 5.48 3.31 8.95 9.02 8.58 4.81-.31 9.13-1.96 13.08-4.62 1.59-1.07 3.05-2.31 4.57-3.47.61-.47 1.19-1.04 1.88-1.33.53-.22 1.34-.26 1.78.02.27.17.29 1.18.06 1.63-.52 1.04-1.18 2.05-1.93 2.95-5.56 6.6-12.73 10.4-21.16 11.94-4.29.78-8.54.88-12.52-1.27-3.32-1.79-5.24-4.58-5.5-8.39-.43-6.25 1.43-11.89 5.02-16.87 5.88-8.17 13.12-14.7 23.06-17.57 3.06-.88 6.22-1.32 9.42-.61 5.39 1.2 7.2 5.42 4.96 10.09-2.22 4.63-5.96 8.01-10.18 10.78-5.35 3.52-11.21 5.58-17.71 5.52zm1.98-6.02c3.8-.35 7.25-.82 10.52-2.64 2.21-1.23 3.77-2.82 4.76-4.98.66-1.45 1.19-3.1.1-4.65-1.13-1.6-2.81-1.8-4.58-1.69-.49.03-.98.1-1.45.24-6.19 1.87-9.72 6.52-12.39 12.02-.31.63-.08 1.22.74 1.35.84.14 1.67.27 2.3.37z"/><path d="m218.03 133.03c-.86 0-1.71.03-2.57 0-.91-.04-1.43.31-1.63 1.23-1.23 5.46 1.6 9.67 6.96 10.07 4.14.31 8.06-.68 11.62-2.7 2.71-1.54 5.19-3.48 7.77-5.25.7-.48 1.33-1.11 2.09-1.45.48-.22 1.27-.23 1.68.04.27.17.26 1.06.1 1.53-.22.68-.63 1.33-1.08 1.9-7.01 8.98-16.34 13.31-27.63 13.55-1.63.03-3.35-.31-4.91-.84-5.62-1.89-8.2-6.48-7.47-12.7.79-6.65 3.88-12.21 8.03-17.27 5.26-6.4 11.62-11.29 19.69-13.64 3.55-1.03 7.19-1.59 10.82-.38 4.03 1.33 5.66 4.77 4.17 8.73-.44 1.17-.99 2.35-1.73 3.35-6.46 8.65-15.15 13.21-25.91 13.83zm1.34-5.44c3.29-.41 6.43-.84 9.37-2.16 3-1.34 5.46-3.25 6.5-6.54 1.02-3.25-.66-5.64-4.07-5.74-2.01-.06-3.85.61-5.57 1.59-3.64 2.09-6.27 5.16-8.31 8.74-.51.89-1.11 2.27-.75 2.95.35.69 1.84.79 2.84 1.15z"/><path d="m201.69 138.45c-.18.54-.22 1.21-.57 1.6-5.38 6.07-11.59 10.7-20.14 10.76-6.6.04-10.54-4.9-8.78-11.24 1.06-3.81 2.77-7.46 4.41-11.09 1.73-3.82 3.73-7.51 5.6-11.27.83-1.67.47-2.25-1.4-2.16-2.24.11-4.47.33-6.71.43-.51.02-1.04-.26-1.56-.4.19-.54.24-1.21.6-1.59 1.34-1.42 2.78-2.75 4.18-4.12 1.17-1.13 2.53-1.71 4.19-1.63 1.3.07 2.61 0 3.92.02 1.02.02 1.72-.32 2.22-1.32 1.47-2.95 3.18-5.79 4.56-8.78 1.92-4.13 5.58-5.05 9.52-5.43 1.77-.17 2.78 1.32 2.03 2.94-1.44 3.1-3.05 6.12-4.61 9.16-1.17 2.3-.84 2.83 1.79 2.75 2.28-.07 4.56-.19 6.84-.27.53-.02 1.07-.03 1.59.07 1.02.19 1.26.76.58 1.54-2.87 3.27-6.1 5.89-10.79 5.87-1.46 0-2.94.08-4.39.25-.49.06-1.13.39-1.38.8-3.87 6.33-7.34 12.87-9.92 19.84-.27.72-.41 1.49-.54 2.25-.6 3.39 1.31 5.76 4.76 5.86 3.56.1 6.66-1.33 9.7-2.97 1.31-.71 2.59-1.46 3.89-2.19.14.1.27.2.41.3z"/><path d="m247.5 140.82c.23-7.53 2.29-12.63 5.56-17.22 4.91-6.89 11.04-12.4 18.98-15.65 3.76-1.54 7.66-2.3 11.71-1.65 2.9.46 5.17 1.9 5.99 4.86.84 3.01 0 5.65-2.4 7.7-1.17 1-2.38 1.97-3.64 2.85-.58.4-1.32.64-2.03.8-1.32.3-1.92-.33-1.8-1.67.11-1.13.31-2.28.2-3.4-.34-3.38-2.56-5-5.93-4.48-3.14.49-5.83 1.95-7.99 4.18-4.91 5.07-7.7 11.2-8.21 18.22-.43 5.87 3.68 9.26 9.51 8.31 5.48-.89 9.9-3.8 14.14-7.11.74-.58 1.48-1.17 2.3-1.61.4-.21 1.15-.29 1.43-.06s.4 1.02.22 1.41c-.56 1.25-1.13 2.56-1.99 3.61-5.23 6.38-11.66 10.89-19.99 12.17-4.05.62-8.01.27-11.4-2.38-3.47-2.71-4.76-6.38-4.66-8.88z"/></g><path d="m340.16 114.04c-.18 3.16-1.56 6.55-2.92 9.96-2.29 5.74-4.92 11.39-6.65 17.3-1.13 3.86-3.6 5.8-6.67 7.55-.78.44-1.59.84-2.42 1.17-2.29.89-3.83-.02-3.53-2.42.31-2.47.95-4.97 1.87-7.28 2.54-6.35 5.32-12.61 7.96-18.92.42-1.01.76-2.07.99-3.14.69-3.26-1.38-5.75-4.72-5.47-1.72.14-3.47.59-5.07 1.24-4.58 1.85-8.21 4.93-11.05 8.96-3.96 5.62-7.58 11.47-9.41 18.13-1.44 5.24-5.62 7.04-9.92 8.83-1.24.52-2.6-.7-2.52-2.36.08-1.68.3-3.45.91-5 2.63-6.63 5.31-13.24 8.18-19.76 4.19-9.51 8.56-18.93 12.85-28.4 1.73-3.82 5.14-5.1 8.88-5.87.68-.14 1.38-.25 2.06-.23 1.77.06 2.44 1.16 1.66 2.72-.53 1.06-1.21 2.04-1.72 3.1-3.19 6.6-6.36 13.2-9.5 19.83v.01c-.34.74.49 1.53 1.23 1.2.08-.03.15-.07.22-.12 3.07-2 6-4.22 9.17-6.04 4-2.3 8.32-3.81 13.05-3.4 4.39.38 7.08 3.41 7.04 8.41z" fill="#2453cc"/><path d="m140.31 114.52c.63-.41 1.28-.8 1.89-1.24 3.45-2.49 7.05-4.74 11.08-6.13 2.29-.79 4.7-1.4 7.11-1.66 5.94-.65 10.01 4.11 8.95 10.13-.78 4.43-2.66 8.44-4.49 12.49-2.23 4.93-4.49 9.85-5.67 15.18-.21.93-.96 1.94-1.76 2.51-2.13 1.54-4.33 3.05-6.67 4.22-2.16 1.08-3.74-.06-3.46-2.47.26-2.2.76-4.45 1.59-6.5 2.23-5.51 4.72-10.91 7.06-16.38.8-1.87 1.64-3.75 2.16-5.7 1.11-4.11-1.61-7-5.81-6.19-5.6 1.08-10.08 4.14-13.67 8.44-5.2 6.23-9.12 13.19-11.1 21.13-.44 1.77-1.56 2.98-2.93 3.89-1.99 1.33-4.1 2.51-6.25 3.56-1.89.92-3.34-.06-3.15-2.17.16-1.72.53-3.49 1.2-5.08 2.59-6.2 5.3-12.34 8.01-18.49 1.99-4.51 4.07-8.97 6.04-13.48.63-1.43 1.69-2.47 2.95-3.16 2.29-1.24 4.77-2.11 7.42-2.16 1.75-.04 2.58 1.06 1.98 2.73-.55 1.52-1.36 2.95-2.05 4.42-.28.6-.56 1.19-.84 1.79.14.1.27.21.41.31z" fill="#2453cc"/><path d="m87.86 132.25c-.37 0-.73 0-1.1 0-2.27.02-2.6.34-2.76 2.63-.37 5.48 3.31 8.95 9.02 8.58 4.81-.31 9.13-1.96 13.08-4.62 1.59-1.07 3.05-2.31 4.57-3.47.61-.47 1.19-1.04 1.88-1.33.53-.22 1.34-.26 1.78.02.27.17.29 1.18.06 1.63-.52 1.04-1.18 2.05-1.93 2.95-5.56 6.6-12.73 10.4-21.16 11.94-4.29.78-8.54.88-12.52-1.27-3.32-1.79-5.24-4.58-5.5-8.39-.43-6.25 1.43-11.89 5.02-16.87 5.88-8.17 13.12-14.7 23.06-17.57 3.06-.88 6.22-1.32 9.42-.61 5.39 1.2 7.2 5.42 4.96 10.09-2.22 4.63-5.96 8.01-10.18 10.78-5.35 3.52-11.21 5.58-17.71 5.52zm1.98-6.02c3.8-.35 7.25-.82 10.52-2.64 2.21-1.23 3.77-2.82 4.76-4.98.66-1.45 1.19-3.1.1-4.65-1.13-1.6-2.81-1.8-4.58-1.69-.49.03-.98.1-1.45.24-6.19 1.87-9.72 6.52-12.39 12.02-.31.63-.08 1.22.74 1.35.84.14 1.67.27 2.3.37z" fill="#2453cc"/><path d="m219.44 132.09c-.86 0-1.71.03-2.57 0-.91-.04-1.43.31-1.63 1.23-1.23 5.46 1.6 9.67 6.96 10.07 4.14.31 8.06-.68 11.62-2.7 2.71-1.54 5.19-3.48 7.77-5.25.7-.48 1.33-1.11 2.09-1.45.48-.22 1.27-.23 1.68.04.27.17.26 1.06.1 1.53-.22.68-.63 1.33-1.08 1.9-7.01 8.98-16.34 13.31-27.63 13.55-1.63.03-3.35-.31-4.91-.84-5.62-1.89-8.2-6.48-7.47-12.7.79-6.65 3.88-12.21 8.03-17.27 5.26-6.4 11.62-11.29 19.69-13.64 3.55-1.03 7.19-1.59 10.82-.38 4.03 1.33 5.66 4.77 4.17 8.73-.44 1.17-.99 2.35-1.73 3.35-6.46 8.65-15.15 13.21-25.91 13.83zm-.31-5.89c1.11.32 2.28.38 3.42.22 2.65-.37 5.2-.85 7.61-1.93 2.99-1.34 5.45-3.24 6.49-6.51.93-2.91-.84-5.61-3.9-5.76-2.08-.1-3.97.57-5.73 1.59-3.64 2.09-6.27 5.16-8.31 8.74-.51.89-1.11 2.27-.75 2.95.18.34.64.54 1.18.7z" fill="#2453cc"/><path d="m203.1 137.51c-.18.54-.22 1.21-.57 1.6-5.38 6.07-11.59 10.7-20.14 10.76-6.6.04-10.54-4.9-8.78-11.24 1.06-3.81 2.77-7.46 4.41-11.09 1.73-3.82 3.73-7.51 5.6-11.27.83-1.67.47-2.25-1.4-2.16-2.24.11-4.47.33-6.71.43-.51.02-1.04-.26-1.56-.4.19-.54.24-1.21.6-1.59 1.34-1.42 2.78-2.75 4.18-4.12 1.17-1.13 2.53-1.71 4.19-1.63 1.3.07 2.61 0 3.92.02 1.02.02 1.72-.32 2.22-1.32 1.47-2.95 3.18-5.79 4.56-8.78 1.92-4.13 5.58-5.05 9.52-5.43 1.77-.17 2.78 1.32 2.03 2.94-1.44 3.1-3.05 6.12-4.61 9.16-1.17 2.3-.84 2.83 1.79 2.75 2.28-.07 4.56-.19 6.84-.27.53-.02 1.07-.03 1.59.07 1.02.19 1.26.76.58 1.54-2.87 3.27-6.1 5.89-10.79 5.87-1.46 0-2.94.08-4.39.25-.49.06-1.13.39-1.38.8-3.87 6.33-7.34 12.87-9.92 19.84-.27.72-.41 1.49-.54 2.25-.6 3.39 1.31 5.76 4.76 5.86 3.56.1 6.66-1.33 9.7-2.97 1.31-.71 2.59-1.46 3.89-2.19.14.1.27.2.41.3z" fill="#2453cc"/><path d="m248.91 139.88c.23-7.53 2.29-12.63 5.56-17.22 4.91-6.89 11.04-12.4 18.98-15.65 3.76-1.54 7.66-2.3 11.71-1.65 2.9.46 5.17 1.9 5.99 4.86.84 3.01 0 5.65-2.4 7.7-1.17 1-2.38 1.97-3.64 2.85-.58.4-1.32.64-2.03.8-1.32.3-1.92-.33-1.8-1.67.11-1.13.31-2.28.2-3.4-.34-3.38-2.56-5-5.93-4.48-3.14.49-5.83 1.95-7.99 4.18-4.91 5.07-7.7 11.2-8.21 18.22-.43 5.87 3.68 9.26 9.51 8.31 5.48-.89 9.9-3.8 14.14-7.11.74-.58 1.48-1.17 2.3-1.61.4-.21 1.15-.29 1.43-.06s.4 1.02.22 1.41c-.56 1.25-1.13 2.56-1.99 3.61-5.23 6.38-11.66 10.89-19.99 12.17-4.05.62-8.01.27-11.4-2.38-3.47-2.71-4.76-6.38-4.66-8.88z" fill="#2453cc"/></svg>