<svg width="170" height="50" viewBox="0 0 170 50" fill="none" xmlns="http://www.w3.org/2000/svg">
<g clip-path="url(#clip0_339_4666)">
<rect x="0.574219" width="168.745" height="49.9984" rx="6.2498" fill="black"/>
<path d="M163.069 0H6.82277C3.38538 0 0.574219 2.81241 0.574219 6.2498V43.7486C0.574219 47.186 3.38538 49.9984 6.82277 49.9984H163.069C166.506 49.9984 169.319 47.186 169.319 43.7486V6.2498C169.319 2.81241 166.506 0 163.069 0ZM163.069 0.999968C165.964 0.999968 168.319 3.35489 168.319 6.2498V43.7486C168.319 46.6435 165.964 48.9997 163.069 48.9997H6.82277C3.92786 48.9997 1.57419 46.6435 1.57419 43.7486V6.2498C1.57419 3.35489 3.92786 0.999968 6.82277 0.999968H163.069Z" fill="black"/>
<path d="M26.406 24.3594L13.0977 38.4839C13.0989 38.4864 13.0989 38.4889 13.1002 38.4914C13.5076 40.0264 14.9088 41.1551 16.5713 41.1551C17.2363 41.1551 17.86 40.9751 18.395 40.6601L18.4375 40.6351L33.417 31.9916L26.406 24.3594Z" fill="#EB4335"/>
<path d="M39.8713 21.9539L39.8588 21.9452L33.3915 18.1953L26.1055 24.6789L33.4165 31.9886L39.85 28.2775C40.9775 27.6688 41.7425 26.48 41.7425 25.1088C41.7425 23.7476 40.9875 22.5639 39.8713 21.9539Z" fill="#FABC13"/>
<path d="M13.0991 11.6758C13.0191 11.9708 12.9766 12.2795 12.9766 12.6008V37.5587C12.9766 37.8799 13.0178 38.1899 13.0991 38.4837L26.8649 24.7204L13.0991 11.6758Z" fill="#547DBF"/>
<path d="M26.5035 25.0794L33.392 18.1933L18.4287 9.51862C17.885 9.19238 17.2513 9.00488 16.5713 9.00488C14.9088 9.00488 13.5064 10.1361 13.0977 11.6723V11.676L26.5035 25.0794Z" fill="#30A851"/>
<path d="M85.6867 27.1306C82.7468 27.1306 80.3507 29.3655 80.3507 32.4467C80.3507 35.5078 82.7468 37.7627 85.6867 37.7627C88.6266 37.7627 91.0228 35.5078 91.0228 32.4467C91.0228 29.3655 88.6266 27.1306 85.6867 27.1306ZM85.6867 35.669C84.0755 35.669 82.6856 34.3403 82.6856 32.4467C82.6856 30.533 84.0755 29.2243 85.6867 29.2243C87.2979 29.2243 88.6866 30.533 88.6866 32.4467C88.6866 34.3391 87.2979 35.669 85.6867 35.669ZM74.0446 27.1306C71.1047 27.1306 68.7085 29.3655 68.7085 32.4467C68.7085 35.5078 71.1047 37.7627 74.0446 37.7627C76.9845 37.7627 79.3807 35.5078 79.3807 32.4467C79.3819 29.3655 76.9845 27.1306 74.0446 27.1306ZM74.0446 35.669C72.4334 35.669 71.0447 34.3403 71.0447 32.4467C71.0447 30.533 72.4347 29.2243 74.0446 29.2243C75.6558 29.2243 77.0445 30.533 77.0445 32.4467C77.0458 34.3391 75.6558 35.669 74.0446 35.669ZM60.1975 28.7618V31.0167H65.5949C65.4336 32.2854 65.0111 33.2116 64.3662 33.8566C63.5812 34.6416 62.3525 35.5078 60.1975 35.5078C56.8752 35.5078 54.2777 32.8291 54.2777 29.5067C54.2777 26.1844 56.8752 23.5057 60.1975 23.5057C61.99 23.5057 63.2987 24.2107 64.2649 25.1169L65.8561 23.5257C64.5074 22.237 62.715 21.2495 60.1975 21.2495C55.6464 21.2495 51.8203 24.9544 51.8203 29.5055C51.8203 34.0566 55.6464 37.7615 60.1975 37.7615C62.6537 37.7615 64.5074 36.9565 65.9574 35.4453C67.4473 33.9554 67.9111 31.8604 67.9111 30.1692C67.9111 29.6455 67.8711 29.1618 67.7898 28.7593H60.1975V28.7618ZM116.831 30.513C116.388 29.3243 115.038 27.1293 112.28 27.1293C109.541 27.1293 107.266 29.2843 107.266 32.4454C107.266 35.4253 109.521 37.7615 112.542 37.7615C114.978 37.7615 116.388 36.2715 116.972 35.4053L115.16 34.1966C114.556 35.0828 113.73 35.6665 112.542 35.6665C111.353 35.6665 110.508 35.1228 109.965 34.0554L117.073 31.1154L116.831 30.513ZM109.581 32.2854C109.521 30.2317 111.172 29.1843 112.36 29.1843C113.286 29.1843 114.071 29.6467 114.333 30.3117L109.581 32.2854ZM103.801 37.4402H106.137V21.8145H103.801V37.4402ZM99.975 28.318H99.895C99.3713 27.6943 98.3651 27.1293 97.0964 27.1293C94.4377 27.1293 92.0015 29.4655 92.0015 32.4654C92.0015 35.4453 94.4377 37.7615 97.0964 37.7615C98.3651 37.7615 99.3713 37.1978 99.895 36.5528H99.975V37.3177C99.975 39.3514 98.8876 40.4389 97.1351 40.4389C95.7052 40.4389 94.819 39.4114 94.4565 38.5465L92.4228 39.3927C93.0065 40.8026 94.5577 42.5338 97.1351 42.5338C99.8738 42.5338 102.19 40.9226 102.19 36.9965V27.4518H99.975V28.318ZM97.2976 35.669C95.6864 35.669 94.3377 34.3203 94.3377 32.4667C94.3377 30.5942 95.6864 29.2243 97.2976 29.2243C98.8888 29.2243 100.136 30.593 100.136 32.4667C100.136 34.3191 98.8888 35.669 97.2976 35.669ZM127.773 21.8145H122.184V37.4402H124.516V31.5204H127.772C130.357 31.5204 132.898 29.6492 132.898 26.6681C132.898 23.6869 130.358 21.8145 127.773 21.8145ZM127.833 29.3455H124.516V23.9894H127.833C129.577 23.9894 130.567 25.4331 130.567 26.6681C130.567 27.878 129.577 29.3455 127.833 29.3455ZM142.247 27.1018C140.559 27.1018 138.81 27.8455 138.086 29.4942L140.158 30.3592C140.6 29.4942 141.424 29.213 142.289 29.213C143.495 29.213 144.721 29.9367 144.741 31.2229V31.3842C144.319 31.1429 143.414 30.7805 142.309 30.7805C140.078 30.7805 137.805 32.0067 137.805 34.2991C137.805 36.3903 139.635 37.7365 141.685 37.7365C143.254 37.7365 144.117 37.0328 144.66 36.209H144.74V37.4152H146.991V31.4242C146.991 28.6493 144.921 27.1018 142.247 27.1018ZM141.965 35.6653C141.201 35.6653 140.135 35.2828 140.135 34.3391C140.135 33.1329 141.462 32.6704 142.607 32.6704C143.632 32.6704 144.115 32.8916 144.739 33.1929C144.559 34.6403 143.312 35.6653 141.965 35.6653ZM155.193 27.4431L152.52 34.2178H152.44L149.666 27.4431H147.154L151.315 36.9115L148.942 42.1788H151.375L157.788 27.4431H155.193ZM134.185 37.4402H136.518V21.8145H134.185V37.4402Z" fill="white"/>
<path fill-rule="evenodd" clip-rule="evenodd" d="M92.5817 15.2794C91.8442 16.0381 90.928 16.4156 89.8318 16.4156C88.7356 16.4156 87.8194 16.0369 87.0831 15.2794C86.3456 14.5219 85.9782 13.5944 85.9782 12.4982C85.9782 11.402 86.3456 10.4745 87.0831 9.71705C87.8194 8.95833 88.7356 8.57959 89.8318 8.57959C90.9217 8.57959 91.8367 8.96083 92.5767 9.72205C93.3167 10.4833 93.6867 11.4082 93.6867 12.4982C93.6867 13.5957 93.3179 14.5231 92.5817 15.2794ZM87.7943 14.6519C88.3493 15.2144 89.0281 15.4944 89.8318 15.4944C90.6355 15.4944 91.3142 15.2131 91.8692 14.6519C92.4242 14.0894 92.7029 13.3719 92.7029 12.4995C92.7029 11.627 92.4242 10.9083 91.8692 10.347C91.3155 9.78455 90.6355 9.50456 89.8318 9.50456C89.0281 9.50456 88.3493 9.7858 87.7943 10.347C87.2406 10.9095 86.9619 11.627 86.9619 12.4995C86.9619 13.3719 87.2406 14.0894 87.7943 14.6519Z" fill="white"/>
<path d="M59.844 12.8032C59.844 13.8507 59.534 14.6844 58.9128 15.3069C58.2078 16.0468 57.2878 16.4168 56.1578 16.4168C55.0754 16.4168 54.1542 16.0418 53.3979 15.2919C52.6405 14.5406 52.2617 13.6107 52.2617 12.5007C52.2617 11.3895 52.6405 10.4595 53.3979 9.70955C54.1542 8.95833 55.0754 8.58334 56.1578 8.58334C56.6953 8.58334 57.2091 8.68833 57.6965 8.89708C58.1853 9.10707 58.5765 9.38581 58.869 9.73455L58.2103 10.3945C57.714 9.8008 57.0303 9.50456 56.1566 9.50456C55.3666 9.50456 54.6841 9.78205 54.1079 10.337C53.5329 10.892 53.2454 11.612 53.2454 12.4995C53.2454 13.3869 53.5329 14.1069 54.1092 14.6631C54.6854 15.2181 55.3679 15.4956 56.1578 15.4956C56.9953 15.4956 57.694 15.2169 58.2528 14.6581C58.6153 14.2944 58.8253 13.7882 58.8815 13.1394H56.1578V12.237H59.7915C59.8277 12.4332 59.844 12.622 59.844 12.8032Z" fill="white"/>
<path d="M65.6063 9.67081H62.1914V12.0482H65.2713V12.9495H62.1914V15.3269H65.6063V16.2493H61.2277V8.74959H65.6063V9.67081Z" fill="white"/>
<path d="M68.705 16.2493H69.6687V9.67081H71.7636V8.74959H66.61V9.67081H68.705V16.2493Z" fill="white"/>
<path d="M75.4935 16.2493V8.74959H76.4572V16.2493H75.4935Z" fill="white"/>
<path d="M79.7659 16.2493H80.7296V9.67081H82.8245V8.74959H77.6709V9.67081H79.7659V16.2493Z" fill="white"/>
<path d="M95.0391 8.74959V16.2493H96.0003V11.577L95.9591 10.132H96.0003L99.814 16.2493H100.82V8.74959H99.8565V13.1394L99.8977 14.5844H99.8565L96.2116 8.74959H95.0391Z" fill="white"/>
<path fill-rule="evenodd" clip-rule="evenodd" d="M92.5817 15.2794C91.8442 16.0381 90.928 16.4156 89.8318 16.4156C88.7356 16.4156 87.8194 16.0369 87.0831 15.2794C86.3456 14.5219 85.9782 13.5944 85.9782 12.4982C85.9782 11.402 86.3456 10.4745 87.0831 9.71705C87.8194 8.95833 88.7356 8.57959 89.8318 8.57959C90.9217 8.57959 91.8367 8.96083 92.5767 9.72205C93.3167 10.4833 93.6867 11.4082 93.6867 12.4982C93.6867 13.5957 93.3179 14.5231 92.5817 15.2794ZM87.7943 14.6519C88.3493 15.2144 89.0281 15.4944 89.8318 15.4944C90.6355 15.4944 91.3142 15.2131 91.8692 14.6519C92.4242 14.0894 92.7029 13.3719 92.7029 12.4995C92.7029 11.627 92.4242 10.9083 91.8692 10.347C91.3155 9.78455 90.6355 9.50456 89.8318 9.50456C89.0281 9.50456 88.3493 9.7858 87.7943 10.347C87.2406 10.9095 86.9619 11.627 86.9619 12.4995C86.9619 13.3719 87.2406 14.0894 87.7943 14.6519Z" stroke="white" stroke-width="0.249992" stroke-miterlimit="10"/>
<path d="M59.844 12.8032C59.844 13.8507 59.534 14.6844 58.9128 15.3069C58.2078 16.0468 57.2878 16.4168 56.1578 16.4168C55.0754 16.4168 54.1542 16.0418 53.3979 15.2919C52.6405 14.5406 52.2617 13.6107 52.2617 12.5007C52.2617 11.3895 52.6405 10.4595 53.3979 9.70955C54.1542 8.95833 55.0754 8.58334 56.1578 8.58334C56.6953 8.58334 57.2091 8.68833 57.6965 8.89708C58.1853 9.10707 58.5765 9.38581 58.869 9.73455L58.2103 10.3945C57.714 9.8008 57.0303 9.50456 56.1566 9.50456C55.3666 9.50456 54.6841 9.78205 54.1079 10.337C53.5329 10.892 53.2454 11.612 53.2454 12.4995C53.2454 13.3869 53.5329 14.1069 54.1092 14.6631C54.6854 15.2181 55.3679 15.4956 56.1578 15.4956C56.9953 15.4956 57.694 15.2169 58.2528 14.6581C58.6153 14.2944 58.8253 13.7882 58.8815 13.1394H56.1578V12.237H59.7915C59.8277 12.4332 59.844 12.622 59.844 12.8032Z" stroke="white" stroke-width="0.249992" stroke-miterlimit="10"/>
<path d="M65.6063 9.67081H62.1914V12.0482H65.2713V12.9495H62.1914V15.3269H65.6063V16.2493H61.2277V8.74959H65.6063V9.67081Z" stroke="white" stroke-width="0.249992" stroke-miterlimit="10"/>
<path d="M68.705 16.2493H69.6687V9.67081H71.7636V8.74959H66.61V9.67081H68.705V16.2493Z" stroke="white" stroke-width="0.249992" stroke-miterlimit="10"/>
<path d="M75.4935 16.2493V8.74959H76.4572V16.2493H75.4935Z" stroke="white" stroke-width="0.249992" stroke-miterlimit="10"/>
<path d="M79.7659 16.2493H80.7296V9.67081H82.8245V8.74959H77.6709V9.67081H79.7659V16.2493Z" stroke="white" stroke-width="0.249992" stroke-miterlimit="10"/>
<path d="M95.0391 8.74959V16.2493H96.0003V11.577L95.9591 10.132H96.0003L99.814 16.2493H100.82V8.74959H99.8565V13.1394L99.8977 14.5844H99.8565L96.2116 8.74959H95.0391Z" stroke="white" stroke-width="0.249992" stroke-miterlimit="10"/>
</g>
<defs>
<clipPath id="clip0_339_4666">
<rect x="0.574219" width="168.745" height="49.9984" rx="6.2498" fill="white"/>
</clipPath>
</defs>
</svg>
