<?xml version="1.0" encoding="utf-8"?>
<!-- Generator: Adobe Illustrator 28.1.0, SVG Export Plug-In . SVG Version: 6.00 Build 0)  -->
<svg version="1.1" id="Layer_1" xmlns="http://www.w3.org/2000/svg" xmlns:xlink="http://www.w3.org/1999/xlink" x="0px" y="0px"
	 viewBox="0 0 67 23" style="enable-background:new 0 0 67 23;" xml:space="preserve">
<style type="text/css">
	.st0{opacity:0.6;fill:#FFFFFF;}
	.st1{fill:#FFFFFF;}
</style>
<path class="st0" d="M28.4,13.2H0.5v9.3h27.9V13.2z"/>
<path class="st1" d="M28.4,0.5H0.5v9.3h27.9V0.5z"/>
<path class="st1" d="M56.3,20.6l-0.1,0c-0.3,0.1-0.6,0.1-0.9,0.1c-0.7,0-1.6-0.4-1.6-2.1c0-0.9,0.1-2.1,1.5-2.1h0
	c0.3,0,0.7,0.1,1,0.2l0.1,0L56.3,20.6L56.3,20.6z M56.6,11.8l-0.2,0v3.2l-0.2-0.1l-0.1,0c-0.4-0.1-0.8-0.2-1.2-0.2
	c-2.7,0-3.3,2.1-3.3,3.8c0,2.4,1.3,3.7,3.6,3.7c0.8,0,1.6-0.1,2.4-0.3c0.3,0,0.5-0.2,0.7-0.4c0.2-0.2,0.2-0.5,0.2-0.8v-9.3
	C57.9,11.6,57.2,11.7,56.6,11.8"/>
<path class="st1" d="M64.4,20.7l-0.1,0l-0.4,0.1c-0.3,0.1-0.7,0.1-1,0.2c-0.6,0-1-0.3-1-0.9c0-0.3,0.2-0.9,1.2-0.9h1.4L64.4,20.7z
	 M63.5,14.8c-0.9,0-1.9,0.2-2.8,0.5L60,15.5l0.2,1.6l0.7-0.2c0.7-0.2,1.5-0.4,2.3-0.4c0.3,0,1.2,0,1.2,1v0.4h-1.3
	c-2.3,0-3.4,0.7-3.4,2.3c0,1.4,1,2.2,2.6,2.2c0.6,0,1.2-0.1,1.8-0.2l0,0l0,0l0.2,0c0.6,0.1,1.3,0.2,2,0.4v-5.2
	C66.4,15.6,65.4,14.8,63.5,14.8"/>
<path class="st1" d="M48.3,20.7l-0.1,0l-0.4,0.1c-0.3,0.1-0.7,0.1-1,0.2c-0.6,0-1-0.3-1-0.9c0-0.3,0.2-0.9,1.2-0.9h1.4L48.3,20.7
	L48.3,20.7z M47.4,14.8c-0.9,0-1.9,0.2-2.8,0.5l-0.7,0.2l0.2,1.6l0.7-0.2c0.7-0.2,1.5-0.4,2.3-0.4c0.3,0,1.2,0,1.2,1v0.4H47
	c-2.3,0-3.4,0.7-3.4,2.3c0,1.4,1,2.2,2.7,2.2c0.6,0,1.2-0.1,1.8-0.2l0,0l0,0l0.2,0c0.7,0.1,1.3,0.2,2,0.4v-5.2
	C50.4,15.6,49.4,14.8,47.4,14.8"/>
<path class="st1" d="M39.6,14.8c-0.8,0-1.5,0.2-2.2,0.5l-0.1,0l-0.1-0.1c-0.6-0.4-1.3-0.5-2-0.5c-0.8,0-1.6,0.1-2.4,0.4
	c-0.7,0.2-1,0.6-1,1.2v5.9H34v-5.5l0.1,0c0.3-0.1,0.6-0.2,1-0.2c0.1,0,0.3,0,0.4,0c0.1,0,0.2,0.1,0.3,0.2c0.1,0.1,0.2,0.2,0.2,0.3
	c0,0.1,0.1,0.3,0,0.4v4.7h2.2v-4.8c0-0.2,0-0.3-0.1-0.5l-0.1-0.1l0.1-0.1c0.3-0.2,0.7-0.2,1.1-0.2c0.1,0,0.3,0,0.4,0
	c0.1,0,0.2,0.1,0.3,0.2c0.1,0.1,0.2,0.2,0.2,0.3c0,0.1,0.1,0.3,0,0.4v4.7h2.2v-4.9C42.4,15.6,41.5,14.8,39.6,14.8"/>
<path class="st1" d="M62.8,6.6c-0.4,0-0.9,0-1.3-0.1l-0.1,0V3.2c0-0.2,0-0.3-0.1-0.5l-0.1-0.1l0.1-0.1c0,0,0.1,0,0.1,0l0,0l0.1,0
	c0,0,0,0,0.1,0c0.4-0.1,0.8-0.1,1.1-0.1h0c1.4,0,1.5,1.2,1.5,2.1C64.4,6.2,63.5,6.6,62.8,6.6 M62.8,0.5L62.8,0.5
	c-1.3,0-2.6,0.3-3.1,1c-0.3,0.4-0.4,0.8-0.4,1.2v3.3c0,0.1,0,0.3-0.1,0.4l-0.1,0.1h-4V4.3h0c0-2.4-1.5-3.7-3.5-3.7h-2
	c-0.1,0.6-0.1,1-0.2,1.6h2c1.1,0,1.6,0.9,1.6,2.3v2.3l-0.1-0.1c-0.2,0-0.3-0.1-0.5-0.1h-3.5c-0.1,0.4-0.1,1-0.2,1.6h10.6
	C59.7,8.1,60.1,8,60.4,8c0.7,0.3,1.5,0.4,2.2,0.4c0.5,0,1-0.1,1.5-0.2c0.5-0.2,0.9-0.5,1.3-0.9c0.4-0.4,0.6-0.8,0.8-1.3
	c0.2-0.5,0.2-1,0.2-1.5c0-0.5,0-1-0.2-1.5c-0.2-0.5-0.4-0.9-0.8-1.3S64.7,1,64.3,0.8C63.8,0.6,63.3,0.5,62.8,0.5z"/>
<path class="st1" d="M44.1,9.2L44.1,9.2c2.4,0,3.5-0.8,3.5-2.6c0-0.3-0.1-0.7-0.2-1c-0.1-0.3-0.3-0.6-0.6-0.8
	c-0.2-0.2-0.5-0.4-0.9-0.5c-0.3-0.1-0.7-0.1-1-0.1h-2.1c-0.1,0-0.3,0-0.4,0c-0.1,0-0.2-0.1-0.3-0.2c-0.1-0.1-0.2-0.2-0.2-0.3
	s-0.1-0.3-0.1-0.4c0-0.4,0.2-0.9,1.2-0.9h4.7c0.1-0.6,0.1-1,0.2-1.6h-4.8c-2.3,0-3.4,0.9-3.4,2.5c0,1.6,1,2.4,2.6,2.4h2.1
	c0.1,0,0.3,0,0.4,0.1c0.1,0.1,0.2,0.1,0.3,0.2c0.1,0.1,0.2,0.2,0.2,0.3c0,0.1,0.1,0.3,0.1,0.4c0,0.2,0,0.3-0.1,0.4
	c-0.1,0.1-0.1,0.3-0.3,0.4c-0.1,0.1-0.2,0.2-0.4,0.2c-0.1,0-0.3,0.1-0.5,0h-0.4l-6.8,0h-1.2c-1.1,0-1.8-0.6-1.8-2v-1
	c0-1.4,0.6-2.3,1.8-2.3h2c0.1-0.6,0.1-1,0.2-1.6h-2.8c-2.1,0-3.5,1.4-3.5,3.8v1.1c0,0.5,0,1,0.2,1.4c0.2,0.5,0.4,0.9,0.8,1.2
	c0.3,0.3,0.7,0.6,1.2,0.8c0.4,0.2,0.9,0.2,1.4,0.2h2l3.7,0L44.1,9.2L44.1,9.2z"/>
</svg>
