<?xml version="1.0" encoding="utf-8"?>
<!-- Generator: Adobe Illustrator 28.1.0, SVG Export Plug-In . SVG Version: 6.00 Build 0)  -->
<svg version="1.1" id="Layer_1" xmlns="http://www.w3.org/2000/svg" xmlns:xlink="http://www.w3.org/1999/xlink" x="0px" y="0px"
	 viewBox="0 0 105 31" style="enable-background:new 0 0 105 31;" xml:space="preserve">
<style type="text/css">
	.st0{opacity:0.6;fill:#FFFFFF;enable-background:new    ;}
	.st1{fill:#FFFFFF;}
</style>
<g>
	<path class="st0" d="M24,26.9c-2.5,2-5.7,3.1-8.9,3.1c-2.3,0-4.5-0.6-6.7-1.6c-2-1-3.8-2.6-5.1-4.5c-1.3-1.9-2.2-4.1-2.6-6.4
		s-0.1-4.5,0.7-6.7C2,8.4,3.2,6.5,4.9,4.9c1.6-1.6,3.7-2.8,5.9-3.5c2.2-0.6,4.5-0.7,6.9-0.3C19.9,1.5,22,2.6,24,4
		c-1.8,1.3-3.1,3.1-4.1,5.1c-1,2-1.5,4.1-1.5,6.3s0.4,4.4,1.5,6.3C20.9,23.8,22.2,25.4,24,26.9z"/>
	<path class="st1" d="M29.5,15.4c0,2.2-0.4,4.4-1.5,6.3c-0.9,2-2.3,3.7-4.1,5.1c-1.8-1.3-3.1-3.1-4.1-5.1c-1-1.9-1.5-4.1-1.5-6.3
		s0.4-4.4,1.5-6.3c1-2,2.3-3.7,4.1-5.1C25.7,5.3,27,7.1,28,9.2C29.1,11.1,29.5,13.2,29.5,15.4z"/>
	<path class="st0" d="M47.5,15.4c0,2.8-0.7,5.4-2.2,7.8s-3.5,4.2-6,5.4s-5.1,1.8-7.9,1.5S26.1,28.8,24,27c1.8-1.3,3.1-3.1,4.1-5.1
		c1-1.9,1.5-4.1,1.5-6.3s-0.4-4.4-1.5-6.3c-0.9-2-2.3-3.7-4.1-5.1c2.2-1.8,4.7-2.8,7.5-3.1s5.4,0.1,7.9,1.5c2.5,1.2,4.5,3.1,6,5.4
		C46.8,10,47.5,12.7,47.5,15.4z"/>
</g>
<path class="st1" d="M62.8,14.5V9.5c0-0.3,0-0.9-0.3-1.2c0-0.3-0.3-0.9-0.6-1.2s-0.6-0.6-1.2-0.6c-0.3,0-0.9-0.3-1.2-0.3
	c-0.6,0-1.2,0-1.5,0.3c-0.3,0.6-0.6,0.9-1.2,1.5c-0.3-0.6-0.6-0.9-1.2-1.2c-0.6-0.3-0.9-0.3-1.5-0.3s-0.9,0-1.2,0.3
	C52.6,7.1,52,7.4,52,7.7V6.8h-1.8v8H52v-4.5c0-1.5,0.6-2.1,1.8-2.1s1.8,0.6,1.8,2.1v4.5h1.8v-4.5c0-0.3,0-0.6,0-0.9
	c0-0.3,0.3-0.6,0.3-0.6C58,8.6,58,8.6,58.3,8.3c0.3,0,0.6,0,0.9,0c1.2,0,1.8,0.6,1.8,2.1v4.5h1.8V14.5z M88.4,6.8h-2.7V4.4h-1.8v2.4
	h-1.5v1.5h1.5v3.6c0,1.8,0.6,3,2.7,3c0.9,0,1.5-0.3,2.1-0.6l-0.6-1.5c-0.6,0.3-0.9,0.3-1.5,0.3c-0.9,0-1.2-0.6-1.2-1.2V8.3h2.7
	L88.4,6.8L88.4,6.8z M103.3,6.5c-0.3,0-0.9,0-1.2,0.3c-0.3,0.3-0.6,0.6-0.9,0.9V6.8h-1.8v8h1.8v-4.5c0-1.2,0.6-2.1,1.8-2.1
	c0.3,0,0.6,0,1.2,0.3l0.6-1.8C103.9,6.5,103.6,6.5,103.3,6.5L103.3,6.5z M80.9,7.4c-0.9-0.6-2.1-0.9-3.3-0.9c-2.1,0-3.3,0.9-3.3,2.7
	c0,1.2,0.9,2.1,2.7,2.4h0.9c0.9,0.3,1.5,0.3,1.5,0.9c0,0.6-0.6,0.9-1.8,0.9c-0.9,0-1.8-0.3-2.7-0.9l-0.9,1.2
	c0.9,0.6,2.1,0.9,3.3,0.9c2.4,0,3.6-1.2,3.6-2.7s-1.2-2.1-2.7-2.4h-0.9c-0.6,0-1.2-0.3-1.2-0.6c0-0.6,0.6-0.9,1.5-0.9
	s1.8,0.3,2.4,0.6L80.9,7.4L80.9,7.4z M72.3,17.8c-0.3,0-0.9,0-1.2,0.3c-0.3,0.3-0.6,0.6-0.9,0.9v-0.9h-1.8v8h1.8v-4.5
	c0-1.2,0.6-2.1,1.8-2.1c0.3,0,0.6,0,1.2,0.3l0.6-1.5C72.9,17.8,72.6,17.8,72.3,17.8L72.3,17.8z M50,22c0,0.6,0,1.2,0.3,1.5
	c0.3,0.6,0.6,0.9,0.9,1.5c0.3,0.3,0.9,0.6,1.5,0.9c0.6,0.3,1.2,0.3,1.5,0.3c0.9,0,2.1-0.3,2.7-0.9l-0.9-1.5
	c-0.6,0.6-1.2,0.6-2.1,0.6c-0.3,0-0.6,0-0.9-0.3c-0.3,0-0.6-0.3-0.9-0.6c-0.3-0.3-0.3-0.6-0.6-0.9c0-0.3,0-0.6,0-0.9
	c0-0.3,0-0.6,0-0.9c0-0.3,0.3-0.6,0.6-0.9c0.3-0.3,0.6-0.3,0.9-0.6c0.3,0,0.6-0.3,0.9-0.3c0.9,0,1.5,0.3,2.1,0.6l0.9-1.5
	c-0.9-0.6-1.8-0.9-2.7-0.9c-0.6,0-1.2,0-1.5,0.3c-0.6,0.3-0.9,0.6-1.5,0.9c-0.3,0.3-0.6,0.9-0.9,1.5C50.3,20.8,50,21.4,50,22L50,22z
	 M66,22v-3.9h-1.8V19c-0.3-0.3-0.6-0.6-1.2-0.9c-0.3-0.3-0.9-0.3-1.5-0.3c-1.2,0-2.1,0.6-2.7,1.2c-0.6,0.6-1.2,1.8-1.2,3
	s0.3,2.1,1.2,3s1.8,1.2,2.7,1.2c0.6,0,0.9,0,1.5-0.3c0.3-0.3,0.9-0.6,1.2-0.9v0.9H66V22z M59.8,22c0-0.6,0.3-1.2,0.6-1.8
	c0.3-0.6,1.2-0.6,1.8-0.6c0.6,0,1.2,0.3,1.8,0.6c0.3,0.6,0.6,1.2,0.6,1.8c0,0.6-0.3,1.2-0.6,1.8c-0.6,0.3-1.2,0.6-1.8,0.6
	c-0.6,0-1.2-0.3-1.8-0.6C60.1,23.2,59.8,22.6,59.8,22z M93.7,6.5c-1.2,0-2.1,0.6-2.7,1.2c-0.6,0.9-1.2,1.8-1.2,3s0.3,2.1,1.2,3
	c0.9,0.9,1.8,1.2,2.7,1.2c1.2,0,2.4-0.3,3.3-1.2l-0.6-1.2c-0.6,0.6-1.5,0.9-2.4,0.9c-0.6,0-1.2,0-1.5-0.6c-0.3-0.3-0.6-0.9-0.9-1.5
	h6v-0.6c0-0.6,0-1.2,0-1.5c0-0.6-0.3-0.9-0.9-1.5c-0.3-0.3-0.9-0.6-1.2-0.9C94.9,6.8,94.3,6.5,93.7,6.5L93.7,6.5z M93.7,8
	c0.3,0,0.6,0,0.9,0s0.6,0.3,0.6,0.3c0.3,0.3,0.3,0.3,0.3,0.6c0,0.3,0.3,0.6,0.3,0.6h-4.2c0-0.6,0.3-0.9,0.6-1.5
	C92.8,8.3,93.4,8,93.7,8L93.7,8z M81.8,22v-7.1h-1.5V19c-0.3-0.3-0.6-0.6-1.2-0.9c-0.3-0.3-0.9-0.3-1.5-0.3c-1.2,0-2.1,0.6-2.7,1.2
	c-0.6,0.6-1.2,1.8-1.2,3s0.3,2.1,1.2,3c0.9,0.9,1.8,1.2,2.7,1.2c0.6,0,0.9,0,1.5-0.3c0.3-0.3,0.9-0.6,1.2-0.9v0.9h1.8V22H81.8z
	 M75.6,22c0-0.6,0.3-1.2,0.6-1.8c0.3-0.3,1.2-0.6,1.8-0.6c0.6,0,1.2,0.3,1.8,0.6c0.3,0.3,0.6,1.2,0.6,1.8c0,0.6-0.3,1.2-0.6,1.8
	c-0.6,0.3-1.2,0.6-1.8,0.6c-0.6,0-1.2-0.3-1.8-0.6C75.9,23.2,75.6,22.6,75.6,22z M72.6,10.7V6.8h-1.8v0.9c-0.3-0.3-0.6-0.6-1.2-0.9
	c-0.3-0.3-0.9-0.3-1.5-0.3c-1.2,0-2.1,0.6-2.7,1.2c-0.6,0.9-1.2,1.8-1.2,3s0.3,2.1,1.2,3c0.6,0.9,1.8,1.2,2.7,1.2
	c0.6,0,0.9,0,1.5-0.3c0.3-0.3,0.9-0.6,1.2-0.9v0.9h1.8V10.7z M66,10.7c0-0.6,0.3-1.2,0.6-1.8c0.3-0.6,1.2-0.6,1.8-0.6
	c0.6,0,1.2,0.3,1.8,0.6c0.6,0.3,0.6,1.2,0.6,1.8s-0.3,1.2-0.6,1.8c-0.6,0.3-1.2,0.6-1.8,0.6s-1.2-0.3-1.8-0.6
	C66,12.2,66,11.3,66,10.7z"/>
</svg>
