<svg xmlns="http://www.w3.org/2000/svg" xmlns:xlink="http://www.w3.org/1999/xlink" width="48.043" height="64" viewBox="0 0 48.043 64"><defs><clipPath id="a"><rect width="48.043" height="64" fill="none" stroke="#002a80" stroke-width="1"/></clipPath></defs><g transform="translate(0 0.001)" opacity="0.75"><g transform="translate(0 -0.001)" clip-path="url(#a)"><path d="M43.589,60.1a2.814,2.814,0,0,1-2.814,2.814H3.439A2.814,2.814,0,0,1,.625,60.1V6.073A2.814,2.814,0,0,1,3.439,3.259h.829" transform="translate(0.074 0.385)" fill="none" stroke="#002a80" stroke-linejoin="round" stroke-width="1.25"/><path d="M32.075.624,32.027,11.57H43.569" transform="translate(3.776 0.074)" fill="none" stroke="#002a80" stroke-linejoin="round" stroke-width="1.25"/><path d="M46.882,11.024V57.468a2.813,2.813,0,0,1-2.814,2.814H6.732a2.813,2.813,0,0,1-2.814-2.813V3.439A2.814,2.814,0,0,1,6.732.625H35.389Z" transform="translate(0.462 0.074)" fill="none" stroke="#002a80" stroke-linejoin="round" stroke-width="1.25"/><path d="M39.264,34.011H34.129l-2.168-7.25-3.58,8.056L24.4,25.353l-5.525,9.061-2.826-7.148L12.584,32.49H9.765" transform="translate(1.151 2.99)" fill="none" stroke="#002a80" stroke-linecap="round" stroke-linejoin="round" stroke-width="1.25"/><line x2="24.162" transform="translate(13.635 44.303)" fill="none" stroke="#002a80" stroke-linecap="round" stroke-linejoin="round" stroke-width="1.25"/><line x2="24.162" transform="translate(13.635 49.088)" fill="none" stroke="#002a80" stroke-linecap="round" stroke-linejoin="round" stroke-width="1.25"/><line x1="1.321" transform="translate(26.004 54.632)" fill="none" stroke="#002a80" stroke-linecap="round" stroke-linejoin="round" stroke-width="1.25"/><line x2="9.22" transform="translate(13.635 54.632)" fill="none" stroke="#002a80" stroke-linecap="round" stroke-linejoin="round" stroke-width="1.25"/><line x2="7.665" transform="translate(21.576 15.532)" fill="none" stroke="#002a80" stroke-linecap="round" stroke-linejoin="round" stroke-width="1.25"/><line y2="7.665" transform="translate(25.41 11.7)" fill="none" stroke="#002a80" stroke-linecap="round" stroke-linejoin="round" stroke-width="1.25"/><path d="M31.294,14.589a7.632,7.632,0,1,1-7.633-7.633,7.633,7.633,0,0,1,7.633,7.633" transform="translate(1.89 0.821)" fill="none" stroke="#002a80" stroke-linecap="round" stroke-linejoin="round" stroke-width="1.25"/></g></g></svg>