<?xml version="1.0" encoding="utf-8"?>
<!-- Generator: Adobe Illustrator 28.1.0, SVG Export Plug-In . SVG Version: 6.00 Build 0)  -->
<svg version="1.1" id="Layer_1" xmlns="http://www.w3.org/2000/svg" xmlns:xlink="http://www.w3.org/1999/xlink" x="0px" y="0px"
	 viewBox="0 0 105 31" style="enable-background:new 0 0 105 31;" xml:space="preserve">
<style type="text/css">
	.st0{fill:#FFFFFF;}
	.st1{opacity:0.6;fill:#FFFFFF;}
</style>
<path class="st0" d="M10.2,31c2.8,0.1,5.5-0.9,7.6-2.7c0.7-0.7,1.2-1.4,1.6-2.3c0.4-0.9,0.5-1.8,0.5-2.7c0-0.9-0.2-1.7-0.5-2.6
	c-0.3-0.8-0.8-1.6-1.4-2.2c-1.5-1.4-3.3-2.3-5.3-2.6l-3.7-0.7c-1.5-0.3-2.4-1.1-2.4-2.1c0-1.4,1.4-2.4,3.5-2.4
	c1.2,0,2.4,0.4,3.3,1.2c0.5,0.5,0.8,1.2,0.9,2l5.4-1.2c-0.2-1.5-0.9-2.9-2-4c-2.1-1.9-4.8-2.9-7.6-2.8C7.4,5.7,4.9,6.6,2.9,8.3
	C2.2,9,1.6,9.8,1.2,10.7c-0.4,0.9-0.6,1.9-0.6,2.8c0,0.8,0.1,1.6,0.4,2.4c0.3,0.8,0.7,1.5,1.3,2c1.4,1.3,3.2,2.2,5.1,2.6l3.7,0.9
	c1.8,0.4,2.7,1.1,2.7,2.3c0,1.5-1.3,2.4-3.6,2.4c-0.7,0-1.4-0.1-2-0.3c-0.6-0.2-1.2-0.6-1.7-1.1c-0.6-0.6-0.9-1.4-1-2.2L0,23.7
	c0.2,1.6,0.9,3.1,2.1,4.3c1.1,1,2.4,1.8,3.8,2.3C7.2,30.8,8.7,31,10.2,31L10.2,31z M51,30.9c1.5,0,3-0.2,4.4-0.8
	c1.4-0.5,2.7-1.4,3.8-2.4c1.4-1.3,2.4-3,2.9-4.9L56.5,21c-0.3,1-0.8,1.8-1.5,2.5c-1.1,1-2.5,1.5-3.9,1.5c-0.8,0-1.6-0.1-2.3-0.4
	c-0.7-0.3-1.4-0.7-2-1.3c-1.2-1.4-1.8-3.1-1.7-4.9c-0.1-1.8,0.6-3.6,1.8-5c1.1-1.1,2.7-1.7,4.3-1.7c0.7,0,1.4,0.1,2.1,0.4
	c0.7,0.3,1.3,0.6,1.8,1.1c0.7,0.7,1.2,1.6,1.5,2.6l5.8-1.9c-0.5-1.8-1.4-3.4-2.7-4.8c-1.1-1.1-2.5-1.9-3.9-2.5
	c-1.5-0.6-3-0.8-4.6-0.8c-1.6,0-3.2,0.3-4.7,0.9c-1.5,0.6-2.9,1.5-4,2.6c-2.3,2.5-3.6,5.7-3.6,9.1c0,3.4,1.3,6.6,3.6,9
	C44.6,29.7,47.7,31,51,30.9L51,30.9z M31.5,31c1.8,0.1,3.6-0.5,5.1-1.5v-5.2c-1,0.6-2.1,1-3.2,1c-0.4,0.1-0.9,0.1-1.3-0.1
	c-0.4-0.1-0.8-0.4-1.1-0.7c-0.3-0.3-0.5-0.7-0.7-1.1c-0.1-0.4-0.1-0.9-0.1-1.3V0h-6.4v6.5h12.8v6.2H23.8v11
	c-0.1,1.9,0.6,3.8,1.9,5.3c0.8,0.7,1.7,1.3,2.7,1.6C29.4,30.9,30.5,31,31.5,31"/>
<path class="st1" d="M68.3,22.9V6.5h2.8v1.3c0.4-0.5,1-1,1.6-1.2c0.6-0.3,1.3-0.4,2-0.4c3.2,0,5.4,2.5,5.4,6.2
	c0,3.6-2.2,6.3-5.4,6.3c-0.7,0-1.4-0.1-2-0.4c-0.6-0.3-1.2-0.7-1.6-1.3v5.9L68.3,22.9z M71.1,11v3c0.3,0.6,0.7,1.2,1.3,1.5
	c0.6,0.4,1.2,0.6,1.9,0.6c1.8,0,3-1.4,3-3.6s-1.2-3.6-3-3.6c-0.7,0-1.3,0.2-1.9,0.6S71.3,10.3,71.1,11"/>
<path class="st1" d="M82,14.4c0-0.9,0.3-1.8,0.9-2.4c0.6-0.7,1.5-1.1,2.5-1.1l4.9-0.6V9.7c0-0.1,0-0.3,0-0.4c0-0.1-0.1-0.3-0.2-0.4
	c-0.1-0.1-0.2-0.2-0.4-0.2c-0.1,0-0.3-0.1-0.4-0.1h-6.2V6.2h6.2c2.5,0,3.9,1.1,3.9,3.2v8.3h-2.8v-1.5c-0.5,0.6-1.1,1-1.8,1.3
	c-0.7,0.3-1.5,0.4-2.3,0.4c-0.5,0.1-1.1,0-1.6-0.2s-1-0.4-1.4-0.8c-0.4-0.3-0.7-0.8-0.9-1.2C82.1,15.4,82,14.9,82,14.4L82,14.4z
	 M87,15.8c0.7,0,1.4-0.2,2-0.5c0.6-0.3,1.1-0.8,1.4-1.4v-1.5l-3.8,0.5c-1,0.1-1.6,0.6-1.6,1.5C85.1,15.2,85.8,15.8,87,15.8"/>
<path class="st1" d="M95.5,20.3h1.8c0.3,0,0.6-0.1,0.8-0.3c0.2-0.2,0.4-0.5,0.4-0.8l0.3-1.1l-3.9-12h2.6l2.4,8.4l2.3-8.4h2.6
	L100.7,20c-0.6,1.9-1.4,2.9-3.2,2.9h-2V20.3z"/>
</svg>
