<svg xmlns="http://www.w3.org/2000/svg" xmlns:xlink="http://www.w3.org/1999/xlink" width="77.367" height="64" viewBox="0 0 77.367 64"><defs><linearGradient id="a" x1="0.063" y1="0.977" x2="0.751" y2="0.441" gradientUnits="objectBoundingBox"><stop offset="0" stop-color="#ff6a38"/><stop offset="1" stop-color="#0054ff"/></linearGradient></defs><path d="M56.2,31.266C54.187,15.977,51.876,0,41.457,0,16.4,0-12.124,60.878,5.469,60.878c12.02,0,28-19.879,44.87-25.756C53.734,48.39,56,64,66,64c7.024,0,11.4-7.953,11.4-16.187C77.39,40.843,70.967,30.322,56.2,31.266ZM6.452,48.741c0-10.146,19.512-32,30.954-32,6.626,0,9.811,7.024,12.215,15.61C29.765,38.041,6.452,62.072,6.452,48.741ZM67.236,58.755c-7.024,0-8.937-11.957-10.693-25.077,10.1-1,18.568,5.136,18.568,14.946C75.111,52.894,71.716,58.755,67.236,58.755Z" transform="translate(-0.023)" fill="url(#a)"/></svg>