<svg xmlns="http://www.w3.org/2000/svg" xmlns:xlink="http://www.w3.org/1999/xlink" width="195.62" height="50" viewBox="0 0 195.62 50"><defs><linearGradient id="a" x1="0.063" y1="0.977" x2="0.751" y2="0.441" gradientUnits="objectBoundingBox"><stop offset="0" stop-color="#ff6a38"/><stop offset="1" stop-color="#0054ff"/></linearGradient></defs><g transform="translate(-0.023)"><g transform="translate(0.023)"><path d="M127.751,28.978a.659.659,0,0,0,.707-.677V19.423a.689.689,0,0,0-.189-.488.677.677,0,0,0-.488-.2h-1.031a.707.707,0,0,0-.488.189.61.61,0,0,0-.213.494V28.3a.653.653,0,0,0,.213.494.7.7,0,0,0,.488.183Z" transform="translate(-49.204 -7.313)" fill="#00235b"/><path d="M129.7,13.67H118.057a.652.652,0,0,0-.494.213.677.677,0,0,0-.183.463v.8a.707.707,0,0,0,.183.494.665.665,0,0,0,.494.207H129.7a.61.61,0,0,0,.683-.7v-.8a.683.683,0,0,0-.189-.463A.652.652,0,0,0,129.7,13.67Z" transform="translate(-45.821 -5.335)" fill="#00235b"/><path d="M154.049,22.38h-6.262a.665.665,0,0,0-.488.2.677.677,0,0,0-.189.488v.768a.652.652,0,0,0,.189.488.665.665,0,0,0,.488.2h6.262a.683.683,0,0,0,.463-.189.61.61,0,0,0,.213-.494v-.768a.61.61,0,0,0-.213-.494A.683.683,0,0,0,154.049,22.38Z" transform="translate(-57.423 -8.734)" fill="#00235b"/><path d="M152.694,27a.683.683,0,0,0,.476-.2.665.665,0,0,0,.207-.476v-.8a.689.689,0,0,0-.207-.5.659.659,0,0,0-.476-.2h-8.622V15.847h8.5a.683.683,0,0,0,.5-.2.658.658,0,0,0,.2-.476v-.8a.683.683,0,0,0-.2-.494.7.7,0,0,0-.5-.207h-10.2a.665.665,0,0,0-.5.2.683.683,0,0,0-.2.494V26.316a.61.61,0,0,0,.2.47.665.665,0,0,0,.476.207Z" transform="translate(-55.3 -5.334)" fill="#00235b"/><path d="M177.55,26.785a.671.671,0,0,0,.189-.463V25.5a.659.659,0,0,0-.683-.652h-9.323v-9h9a.646.646,0,0,0,.677-.677v-.823a.677.677,0,0,0-.183-.463.652.652,0,0,0-.494-.213h-9.787a1.457,1.457,0,0,0-1.22.549,1.689,1.689,0,0,0-.427,1.055V25.394a1.61,1.61,0,0,0,.445,1.1,1.512,1.512,0,0,0,1.159.5h10.122A.61.61,0,0,0,177.55,26.785Z" transform="translate(-64.522 -5.333)" fill="#00235b"/><path d="M192.892,27a.652.652,0,0,0,.494-.213.726.726,0,0,0,.177-.488V14.371a.7.7,0,0,0-.183-.488.61.61,0,0,0-.488-.213h-1.03a.689.689,0,0,0-.5.207.707.707,0,0,0-.2.494V26.3a.7.7,0,0,0,.7.7Z" transform="translate(-74.613 -5.334)" fill="#00235b"/><path d="M206.126,13.67h-.982a.61.61,0,0,0-.476.207.653.653,0,0,0-.207.494v4.561h-7.055a.652.652,0,0,0-.494.213.707.707,0,0,0-.183.494v.793a.652.652,0,0,0,.189.488.665.665,0,0,0,.488.2h7.055V26.3a.665.665,0,0,0,.207.5.653.653,0,0,0,.476.2h.982a.726.726,0,0,0,.506-.2.689.689,0,0,0,.207-.5V14.371a.677.677,0,0,0-.189-.5A.707.707,0,0,0,206.126,13.67Z" transform="translate(-76.787 -5.334)" fill="#00235b"/><path d="M240.045,14.047a.372.372,0,0,0-.409-.378H238.3a.738.738,0,0,0-.555.28l-5.1,6.152L227.4,13.937a.9.9,0,0,0-.646-.268H226a.652.652,0,0,0-.5.213.7.7,0,0,0-.183.488V26.321A.646.646,0,0,0,226,27h.707a.707.707,0,0,0,.494-.183.658.658,0,0,0,.22-.494V17.01l4.622,5.354a.488.488,0,0,0,.159.159.78.78,0,0,0,.878,0,.506.506,0,0,0,.159-.165l6.634-7.927a.72.72,0,0,0,.171-.384Z" transform="translate(-87.944 -5.333)" fill="#00235b"/><path d="M247.179,18.025l-1.22,1.433a.89.89,0,0,0-.22.537v7.927a.665.665,0,0,0,.2.488.677.677,0,0,0,.488.189h.86a.707.707,0,0,0,.494-.183.652.652,0,0,0,.213-.494V18.1a.335.335,0,0,0-.323-.378.677.677,0,0,0-.488.3Z" transform="translate(-95.913 -6.915)" fill="#00235b"/><path d="M257.207,27H267.53a.683.683,0,0,0,.476-.2.665.665,0,0,0,.207-.476v-.8a.689.689,0,0,0-.207-.5.658.658,0,0,0-.476-.2h-8.622V15.847h8.5a.7.7,0,0,0,.5-.2.658.658,0,0,0,.2-.476v-.8a.683.683,0,0,0-.2-.494.7.7,0,0,0-.5-.207h-10.2a.665.665,0,0,0-.476.207.683.683,0,0,0-.2.494V26.322a.61.61,0,0,0,.2.47.665.665,0,0,0,.476.207Z" transform="translate(-100.123 -5.335)" fill="#00235b"/><path d="M268.853,22.38h-6.287a.664.664,0,0,0-.488.2.677.677,0,0,0-.189.488v.768a.659.659,0,0,0,.677.683h6.262a.683.683,0,0,0,.463-.189.61.61,0,0,0,.213-.494v-.768a.61.61,0,0,0-.213-.494A.683.683,0,0,0,268.853,22.38Z" transform="translate(-102.215 -8.734)" fill="#00235b"/><path d="M288.061,18.74a.707.707,0,0,0-.488.189.61.61,0,0,0-.213.494V28.3a.653.653,0,0,0,.213.494.7.7,0,0,0,.488.183h1a.659.659,0,0,0,.677-.677V19.423a.665.665,0,0,0-.2-.488.652.652,0,0,0-.482-.2Z" transform="translate(-112.154 -7.313)" fill="#00235b"/><path d="M279.371,15.847h11.646a.61.61,0,0,0,.671-.7v-.8a.677.677,0,0,0-.183-.463.652.652,0,0,0-.494-.213h-11.64a.652.652,0,0,0-.488.2.677.677,0,0,0-.183.463v.8a.708.708,0,0,0,.183.494A.665.665,0,0,0,279.371,15.847Z" transform="translate(-108.775 -5.335)" fill="#00235b"/><path d="M306.522,21.725h-4.055a.61.61,0,0,0-.579.378l-.549,1.1a.531.531,0,0,0-.049.226.384.384,0,0,0,.4.409h5.841l1.384,2.841a.555.555,0,0,0,.506.329h1.4a.439.439,0,0,0,.482-.451.807.807,0,0,0-.067-.25L305.3,14.268a1.116,1.116,0,0,0-.36-.415.842.842,0,0,0-.518-.183h-1.171a.872.872,0,0,0-.524.183,1.221,1.221,0,0,0-.36.421L296.461,26.3a.972.972,0,0,0-.061.25.433.433,0,0,0,.476.451h1.25a.555.555,0,0,0,.506-.329l5.226-10.738Z" transform="translate(-115.682 -5.335)" fill="#00235b"/><path d="M128.338,53.742a3.659,3.659,0,0,0-1.22-.811,3.853,3.853,0,0,0-1.476-.287h-4.384a1.36,1.36,0,0,1-1.085-.451,1.549,1.549,0,0,1-.409-1.067,1.463,1.463,0,0,1,.415-1.061,1.4,1.4,0,0,1,1.079-.433h4.488a1.366,1.366,0,0,1,1,.366,1.561,1.561,0,0,1,.47.915.451.451,0,0,0,.482.433h1.043a.439.439,0,0,0,.482-.457,2.842,2.842,0,0,0-.335-1.341,3.658,3.658,0,0,0-.848-1.043,4.183,4.183,0,0,0-1.171-.665,3.567,3.567,0,0,0-1.28-.25h-4.232a3.439,3.439,0,0,0-1.415.293,3.619,3.619,0,0,0-2.2,3.348,3.744,3.744,0,0,0,.28,1.427,3.592,3.592,0,0,0,.768,1.159,3.792,3.792,0,0,0,1.152.732,3.537,3.537,0,0,0,1.415.287h4.335a1.549,1.549,0,0,1,1.177.482,1.6,1.6,0,0,1,.463,1.159,1.671,1.671,0,0,1-.47,1.183,1.5,1.5,0,0,1-1.171.549h-4.537a1.5,1.5,0,0,1-1.116-.427,1.762,1.762,0,0,1-.518-1.018.439.439,0,0,0-.482-.457h-1.159a.445.445,0,0,0-.482.482,2.945,2.945,0,0,0,.348,1.4,3.8,3.8,0,0,0,.884,1.1,4.177,4.177,0,0,0,1.22.732,3.787,3.787,0,0,0,1.354.262h4.476a3.659,3.659,0,0,0,1.482-.3,3.915,3.915,0,0,0,1.22-.8,3.759,3.759,0,0,0-.043-5.427Z" transform="translate(-45.828 -18.572)" fill="#00235b"/><path d="M155.918,48.138a2.548,2.548,0,0,0-.561-.421,1.457,1.457,0,0,0-.677-.177h-9.555a1.476,1.476,0,0,0-.677.177,2.549,2.549,0,0,0-.561.421,2.348,2.348,0,0,0-.415.561,1.378,1.378,0,0,0-.183.677V58.4a1.4,1.4,0,0,0,.183.677,2.354,2.354,0,0,0,.976.976,1.4,1.4,0,0,0,.677.183H154.7a1.378,1.378,0,0,0,.677-.183,2.354,2.354,0,0,0,.976-.976,1.4,1.4,0,0,0,.183-.677V49.375a1.378,1.378,0,0,0-.183-.677A2.348,2.348,0,0,0,155.918,48.138Zm-1.689,1.476v8.573h-8.646V49.65Z" transform="translate(-55.932 -18.552)" fill="#00235b"/><path d="M181.488,58.186h-7.7v-10a.61.61,0,0,0-.2-.451.646.646,0,0,0-.469-.2h-.963a.646.646,0,0,0-.47.2.61.61,0,0,0-.2.451V59.564a.659.659,0,0,0,.2.476.61.61,0,0,0,.47.2h9.323a.61.61,0,0,0,.47-.2.659.659,0,0,0,.2-.476v-.738A.659.659,0,0,0,181.488,58.186Z" transform="translate(-66.941 -18.552)" fill="#00235b"/><path d="M202.232,47.539h-1a.61.61,0,0,0-.64.671v9.976h-7.549V48.21a.61.61,0,0,0-.646-.671h-1a.61.61,0,0,0-.451.2.658.658,0,0,0-.2.476v10.5a1.518,1.518,0,0,0,1.524,1.524h9.079a1.518,1.518,0,0,0,1.524-1.524V48.21a.658.658,0,0,0-.2-.476.61.61,0,0,0-.451-.2Z" transform="translate(-74.453 -18.551)" fill="#00235b"/><path d="M224.864,47.54h-11.1a.61.61,0,0,0-.47.2.64.64,0,0,0-.177.445v.756a.683.683,0,0,0,.177.47.61.61,0,0,0,.47.2h11.1a.61.61,0,0,0,.64-.671v-.756a.646.646,0,0,0-.171-.445A.61.61,0,0,0,224.864,47.54Z" transform="translate(-83.183 -18.552)" fill="#00235b"/><path d="M222.962,52.37h-.951a.683.683,0,0,0-.47.177.61.61,0,0,0-.2.47v8.457a.61.61,0,0,0,.2.47.683.683,0,0,0,.47.177h.951a.61.61,0,0,0,.463-.183.659.659,0,0,0,.183-.463V53.016a.659.659,0,0,0-.183-.463A.61.61,0,0,0,222.962,52.37Z" transform="translate(-86.391 -20.437)" fill="#00235b"/><path d="M237.48,47.54h-.994a.645.645,0,0,0-.646.646v11.4a.667.667,0,0,0,.646.646h.994a.665.665,0,0,0,.646-.646v-11.4a.645.645,0,0,0-.646-.646Z" transform="translate(-92.049 -18.552)" fill="#00235b"/><path d="M258.706,48.138a2.547,2.547,0,0,0-.561-.421,1.433,1.433,0,0,0-.671-.177h-9.555a1.433,1.433,0,0,0-.671.177,2.439,2.439,0,0,0-.561.421,2.548,2.548,0,0,0-.421.561,1.372,1.372,0,0,0-.177.677V58.4a1.384,1.384,0,0,0,.177.677,2.548,2.548,0,0,0,.421.561,2.348,2.348,0,0,0,.561.415,1.372,1.372,0,0,0,.671.183h9.555a1.372,1.372,0,0,0,.671-.183,2.347,2.347,0,0,0,.561-.415,2.548,2.548,0,0,0,.421-.561,1.457,1.457,0,0,0,.177-.677V49.375a1.438,1.438,0,0,0-.177-.677,2.548,2.548,0,0,0-.421-.561Zm-1.7,1.476v8.573h-8.634V49.65Z" transform="translate(-96.049 -18.552)" fill="#00235b"/><path d="M275.09,51.687c-.177-.2-.311-.287-.445-.287a.317.317,0,0,0-.317.36V61.1a.647.647,0,0,0,.183.463.61.61,0,0,0,.463.183h.811a.626.626,0,0,0,.646-.646V53.516a.9.9,0,0,0-.219-.524Z" transform="translate(-107.068 -20.059)" fill="#00235b"/><path d="M286.27,47.54h-.793a.671.671,0,0,0-.482.2.61.61,0,0,0-.2.476v9.012l-8.159-9.4a.756.756,0,0,0-.512-.25h-1.445a.335.335,0,0,0-.384.335.555.555,0,0,0,.171.4l10.012,11.47a1.3,1.3,0,0,0,.445.329,1.165,1.165,0,0,0,.488.128h.878a.683.683,0,0,0,.469-.177.61.61,0,0,0,.2-.47V48.211a.671.671,0,0,0-.2-.482.7.7,0,0,0-.5-.189Z" transform="translate(-107.058 -18.552)" fill="#00235b"/><path d="M312.8,54.95a3.889,3.889,0,0,0-.823-1.22,3.659,3.659,0,0,0-1.22-.811,3.854,3.854,0,0,0-1.476-.287H304.9a1.36,1.36,0,0,1-1.085-.451,1.549,1.549,0,0,1-.409-1.067,1.464,1.464,0,0,1,.415-1.061,1.4,1.4,0,0,1,1.079-.433h4.488a1.366,1.366,0,0,1,1,.366,1.56,1.56,0,0,1,.469.915.451.451,0,0,0,.482.433h1.018a.439.439,0,0,0,.482-.457,2.842,2.842,0,0,0-.335-1.341,3.793,3.793,0,0,0-.848-1.043,4.182,4.182,0,0,0-1.146-.652,3.591,3.591,0,0,0-1.28-.25H305a3.488,3.488,0,0,0-1.421.293,3.712,3.712,0,0,0-1.146.78,3.628,3.628,0,0,0-1.049,2.567,3.742,3.742,0,0,0,.28,1.427,3.59,3.59,0,0,0,.768,1.159,3.836,3.836,0,0,0,1.146.732,3.585,3.585,0,0,0,1.421.287h4.323a1.549,1.549,0,0,1,1.177.482,1.6,1.6,0,0,1,.463,1.159,1.67,1.67,0,0,1-.469,1.183,1.5,1.5,0,0,1-1.171.5h-4.537a1.482,1.482,0,0,1-1.116-.427,1.763,1.763,0,0,1-.518-1.018.439.439,0,0,0-.482-.457H301.5a.445.445,0,0,0-.476.482,2.946,2.946,0,0,0,.348,1.4,3.774,3.774,0,0,0,.854,1.128,4.27,4.27,0,0,0,1.22.732,3.787,3.787,0,0,0,1.354.262h4.476a3.659,3.659,0,0,0,1.482-.3,3.915,3.915,0,0,0,1.219-.8,3.836,3.836,0,0,0,.823-1.22,3.751,3.751,0,0,0,.3-1.5A3.705,3.705,0,0,0,312.8,54.95Z" transform="translate(-117.488 -18.572)" fill="#00235b"/><path d="M43.912,24.427C42.338,12.482,40.533,0,32.393,0,12.814,0-9.466,47.561,4.277,47.561c9.39,0,21.878-15.53,35.055-20.122C41.985,37.8,43.753,50,51.564,50c5.488,0,8.9-6.213,8.9-12.646C60.466,31.909,55.448,23.689,43.912,24.427ZM5.046,38.079c0-7.927,15.244-25,24.183-25,5.177,0,7.665,5.488,9.543,12.2C23.259,29.72,5.046,48.494,5.046,38.079ZM52.534,45.9c-5.488,0-6.982-9.341-8.354-19.591,7.89-.78,14.506,4.012,14.506,11.677C58.686,41.323,56.033,45.9,52.534,45.9Z" transform="translate(-0.023)" fill="url(#a)"/></g></g></svg>