<svg xmlns="http://www.w3.org/2000/svg" xmlns:xlink="http://www.w3.org/1999/xlink" width="156.496" height="40" viewBox="0 0 156.496 40"><defs><linearGradient id="a" x1="0.063" y1="0.977" x2="0.751" y2="0.441" gradientUnits="objectBoundingBox"><stop offset="0" stop-color="#ff6a38"/><stop offset="1" stop-color="#0054ff"/></linearGradient></defs><g transform="translate(-0.023)"><g transform="translate(0.023)"><path d="M127.41,26.93a.527.527,0,0,0,.566-.541v-7.1a.551.551,0,0,0-.151-.39.541.541,0,0,0-.39-.156h-.824a.566.566,0,0,0-.39.151.488.488,0,0,0-.171.4v7.1a.522.522,0,0,0,.171.4.561.561,0,0,0,.39.146Z" transform="translate(-64.573 -9.598)" fill="#fff"/><path d="M127.238,13.67h-9.317a.522.522,0,0,0-.4.171.541.541,0,0,0-.146.371v.639a.566.566,0,0,0,.146.4.532.532,0,0,0,.4.166h9.317a.488.488,0,0,0,.546-.561v-.639a.546.546,0,0,0-.151-.371A.522.522,0,0,0,127.238,13.67Z" transform="translate(-60.133 -7.002)" fill="#fff"/><path d="M152.661,22.38h-5.01a.532.532,0,0,0-.39.156.542.542,0,0,0-.151.39v.615a.522.522,0,0,0,.151.39.532.532,0,0,0,.39.156h5.01a.546.546,0,0,0,.371-.151.488.488,0,0,0,.171-.4v-.615a.488.488,0,0,0-.171-.4A.546.546,0,0,0,152.661,22.38Z" transform="translate(-75.36 -11.463)" fill="#fff"/><path d="M150.489,24.333a.546.546,0,0,0,.38-.161.532.532,0,0,0,.166-.38v-.639a.551.551,0,0,0-.166-.4.527.527,0,0,0-.38-.161h-6.9v-7.18h6.8a.546.546,0,0,0,.4-.161.527.527,0,0,0,.161-.38v-.639a.546.546,0,0,0-.161-.4.561.561,0,0,0-.4-.166h-8.161a.532.532,0,0,0-.4.161.546.546,0,0,0-.161.4v9.561a.488.488,0,0,0,.161.376.532.532,0,0,0,.38.166Z" transform="translate(-72.574 -7.001)" fill="#fff"/><path d="M175.1,24.161a.537.537,0,0,0,.151-.371v-.659a.527.527,0,0,0-.546-.522h-7.459v-7.2h7.2a.517.517,0,0,0,.541-.541V14.21a.541.541,0,0,0-.146-.371.522.522,0,0,0-.4-.171h-7.829a1.166,1.166,0,0,0-.976.439,1.351,1.351,0,0,0-.341.844v8.1a1.288,1.288,0,0,0,.356.883,1.21,1.21,0,0,0,.927.4h8.1A.488.488,0,0,0,175.1,24.161Z" transform="translate(-84.677 -7)" fill="#fff"/><path d="M192.545,24.333a.522.522,0,0,0,.4-.171.58.58,0,0,0,.141-.39V14.231a.561.561,0,0,0-.146-.39.488.488,0,0,0-.39-.171h-.824a.551.551,0,0,0-.4.166.566.566,0,0,0-.161.4v9.541a.556.556,0,0,0,.561.561Z" transform="translate(-97.923 -7.001)" fill="#fff"/><path d="M204.247,13.669h-.785a.488.488,0,0,0-.38.166.522.522,0,0,0-.166.4v3.649h-5.644a.522.522,0,0,0-.4.171.566.566,0,0,0-.146.4v.634a.522.522,0,0,0,.151.39.532.532,0,0,0,.39.156h5.644v4.146a.532.532,0,0,0,.166.4.522.522,0,0,0,.38.161h.785a.581.581,0,0,0,.4-.161.551.551,0,0,0,.166-.4V14.23a.541.541,0,0,0-.151-.4A.566.566,0,0,0,204.247,13.669Z" transform="translate(-100.775 -7.001)" fill="#fff"/><path d="M237.1,13.971a.3.3,0,0,0-.327-.3H235.7a.59.59,0,0,0-.444.224l-4.078,4.922-4.19-4.932a.717.717,0,0,0-.517-.215h-.6a.522.522,0,0,0-.4.171.561.561,0,0,0-.146.39V23.79a.517.517,0,0,0,.546.541h.566a.566.566,0,0,0,.4-.146.527.527,0,0,0,.176-.4V16.342l3.7,4.283a.39.39,0,0,0,.127.127.624.624,0,0,0,.7,0,.405.405,0,0,0,.127-.132l5.307-6.341a.576.576,0,0,0,.137-.307Z" transform="translate(-115.419 -7)" fill="#fff"/><path d="M246.891,17.964l-.976,1.146a.712.712,0,0,0-.176.429v6.341a.532.532,0,0,0,.156.39.542.542,0,0,0,.39.151h.688a.566.566,0,0,0,.4-.146.522.522,0,0,0,.171-.4V18.022a.268.268,0,0,0-.259-.3.542.542,0,0,0-.39.244Z" transform="translate(-125.878 -9.076)" fill="#fff"/><path d="M257.071,24.333h8.259a.546.546,0,0,0,.38-.161.532.532,0,0,0,.166-.38v-.639a.551.551,0,0,0-.166-.4.527.527,0,0,0-.38-.161h-6.9v-7.18h6.8a.556.556,0,0,0,.4-.161.527.527,0,0,0,.161-.38v-.639a.547.547,0,0,0-.161-.4.561.561,0,0,0-.4-.166h-8.161a.532.532,0,0,0-.38.166.547.547,0,0,0-.161.4v9.561a.488.488,0,0,0,.161.376.532.532,0,0,0,.38.166Z" transform="translate(-131.405 -7.002)" fill="#fff"/><path d="M267.46,22.38h-5.029a.532.532,0,0,0-.39.156.541.541,0,0,0-.151.39v.615a.527.527,0,0,0,.541.546h5.01a.547.547,0,0,0,.371-.151.488.488,0,0,0,.171-.4v-.615a.488.488,0,0,0-.171-.4A.546.546,0,0,0,267.46,22.38Z" transform="translate(-134.15 -11.463)" fill="#fff"/><path d="M287.92,18.74a.566.566,0,0,0-.39.151.488.488,0,0,0-.171.4v7.1a.522.522,0,0,0,.171.4.561.561,0,0,0,.39.146h.8a.527.527,0,0,0,.542-.541v-7.1a.532.532,0,0,0-.156-.39.522.522,0,0,0-.385-.156Z" transform="translate(-147.195 -9.598)" fill="#fff"/><path d="M279.236,15.411h9.317a.488.488,0,0,0,.537-.561v-.639a.542.542,0,0,0-.146-.371.522.522,0,0,0-.4-.171h-9.312a.522.522,0,0,0-.39.161.541.541,0,0,0-.146.371v.639a.566.566,0,0,0,.146.4A.532.532,0,0,0,279.236,15.411Z" transform="translate(-142.76 -7.002)" fill="#fff"/><path d="M304.5,20.114h-3.244a.488.488,0,0,0-.463.3l-.439.878a.424.424,0,0,0-.039.18.307.307,0,0,0,.322.327h4.673l1.107,2.273a.444.444,0,0,0,.4.263h1.117a.351.351,0,0,0,.385-.361.646.646,0,0,0-.054-.2l-4.746-9.629a.892.892,0,0,0-.288-.332.673.673,0,0,0-.415-.146h-.937a.7.7,0,0,0-.42.146.977.977,0,0,0-.288.337l-4.727,9.62a.777.777,0,0,0-.049.2.346.346,0,0,0,.381.361h1a.444.444,0,0,0,.4-.263l4.181-8.59Z" transform="translate(-151.826 -7.002)" fill="#fff"/><path d="M126.15,52.512a2.927,2.927,0,0,0-.976-.649,3.083,3.083,0,0,0-1.18-.229h-3.507a1.088,1.088,0,0,1-.868-.361,1.239,1.239,0,0,1-.327-.854,1.171,1.171,0,0,1,.332-.849,1.117,1.117,0,0,1,.863-.346h3.59a1.093,1.093,0,0,1,.8.293,1.249,1.249,0,0,1,.376.732.361.361,0,0,0,.385.346h.834a.351.351,0,0,0,.385-.366,2.273,2.273,0,0,0-.268-1.073,2.927,2.927,0,0,0-.678-.834,3.347,3.347,0,0,0-.937-.532,2.854,2.854,0,0,0-1.024-.2h-3.385a2.751,2.751,0,0,0-1.132.234,2.9,2.9,0,0,0-1.761,2.678,3,3,0,0,0,.224,1.141,2.873,2.873,0,0,0,.615.927,3.034,3.034,0,0,0,.922.585,2.829,2.829,0,0,0,1.132.229h3.468a1.239,1.239,0,0,1,.941.385,1.278,1.278,0,0,1,.371.927,1.337,1.337,0,0,1-.376.946,1.2,1.2,0,0,1-.937.439H120.4a1.2,1.2,0,0,1-.893-.341,1.41,1.41,0,0,1-.415-.815.351.351,0,0,0-.385-.366h-.927a.356.356,0,0,0-.385.385,2.356,2.356,0,0,0,.278,1.117,3.039,3.039,0,0,0,.707.883,3.341,3.341,0,0,0,.976.585,3.029,3.029,0,0,0,1.083.21h3.58a2.927,2.927,0,0,0,1.185-.244,3.132,3.132,0,0,0,.976-.644,3.007,3.007,0,0,0-.034-4.341Z" transform="translate(-60.142 -24.375)" fill="#fff"/><path d="M153.392,48.018a2.039,2.039,0,0,0-.449-.337,1.166,1.166,0,0,0-.541-.141h-7.644a1.181,1.181,0,0,0-.541.141,2.039,2.039,0,0,0-.449.337,1.879,1.879,0,0,0-.332.449,1.1,1.1,0,0,0-.146.541v7.22a1.117,1.117,0,0,0,.146.541,1.883,1.883,0,0,0,.78.78,1.117,1.117,0,0,0,.541.146h7.658a1.1,1.1,0,0,0,.542-.146,1.883,1.883,0,0,0,.78-.78,1.117,1.117,0,0,0,.146-.541v-7.22a1.1,1.1,0,0,0-.146-.541A1.878,1.878,0,0,0,153.392,48.018Zm-1.351,1.18v6.859h-6.917V49.228Z" transform="translate(-73.404 -24.35)" fill="#fff"/><path d="M179.49,56.057h-6.156v-8a.488.488,0,0,0-.156-.361.517.517,0,0,0-.376-.156h-.771a.517.517,0,0,0-.376.156.488.488,0,0,0-.156.361v9.1a.527.527,0,0,0,.156.38.488.488,0,0,0,.376.156h7.458a.488.488,0,0,0,.376-.156.527.527,0,0,0,.156-.38v-.59A.527.527,0,0,0,179.49,56.057Z" transform="translate(-87.853 -24.35)" fill="#fff"/><path d="M199.935,47.539h-.8a.488.488,0,0,0-.512.537v7.98h-6.039v-7.98a.488.488,0,0,0-.517-.537h-.8a.488.488,0,0,0-.361.156.527.527,0,0,0-.156.38v8.4a1.215,1.215,0,0,0,1.22,1.22h7.263a1.215,1.215,0,0,0,1.22-1.22v-8.4a.527.527,0,0,0-.156-.38.488.488,0,0,0-.361-.156Z" transform="translate(-97.713 -24.349)" fill="#fff"/><path d="M222.515,47.54h-8.878a.488.488,0,0,0-.376.161.512.512,0,0,0-.141.356v.6a.546.546,0,0,0,.141.376.488.488,0,0,0,.376.161h8.878a.488.488,0,0,0,.512-.537v-.6a.517.517,0,0,0-.137-.356A.488.488,0,0,0,222.515,47.54Z" transform="translate(-109.17 -24.35)" fill="#fff"/><path d="M222.637,52.369h-.761a.546.546,0,0,0-.376.141.488.488,0,0,0-.161.376v6.766a.488.488,0,0,0,.161.376.547.547,0,0,0,.376.141h.761a.488.488,0,0,0,.371-.146.527.527,0,0,0,.146-.371V52.887a.527.527,0,0,0-.146-.371A.488.488,0,0,0,222.637,52.369Z" transform="translate(-113.38 -26.823)" fill="#fff"/><path d="M237.152,47.54h-.8a.516.516,0,0,0-.517.517v9.122a.534.534,0,0,0,.517.517h.8a.532.532,0,0,0,.517-.517V48.057a.516.516,0,0,0-.517-.517Z" transform="translate(-120.807 -24.35)" fill="#fff"/><path d="M256.183,48.018a2.037,2.037,0,0,0-.449-.337,1.146,1.146,0,0,0-.537-.141h-7.644a1.146,1.146,0,0,0-.537.141,1.951,1.951,0,0,0-.449.337,2.038,2.038,0,0,0-.337.449,1.1,1.1,0,0,0-.141.541v7.22a1.107,1.107,0,0,0,.141.541,2.038,2.038,0,0,0,.337.449,1.879,1.879,0,0,0,.449.332,1.1,1.1,0,0,0,.537.146H255.2a1.1,1.1,0,0,0,.537-.146,1.878,1.878,0,0,0,.449-.332,2.038,2.038,0,0,0,.337-.449,1.165,1.165,0,0,0,.141-.541v-7.22a1.15,1.15,0,0,0-.141-.541A2.038,2.038,0,0,0,256.183,48.018Zm-1.356,1.18v6.859h-6.907V49.228Z" transform="translate(-126.058 -24.35)" fill="#fff"/><path d="M274.937,51.629c-.141-.161-.249-.229-.356-.229a.254.254,0,0,0-.254.288v7.468a.517.517,0,0,0,.146.371.488.488,0,0,0,.371.146h.649a.5.5,0,0,0,.517-.517V53.093a.722.722,0,0,0-.176-.42Z" transform="translate(-140.52 -26.327)" fill="#fff"/><path d="M283.876,47.54h-.634a.537.537,0,0,0-.385.156.488.488,0,0,0-.156.38v7.21l-6.527-7.522a.605.605,0,0,0-.41-.2h-1.156a.268.268,0,0,0-.307.268.444.444,0,0,0,.137.322l8.01,9.176a1.043,1.043,0,0,0,.356.263.932.932,0,0,0,.39.1h.7a.546.546,0,0,0,.376-.141.488.488,0,0,0,.161-.376v-9.1a.537.537,0,0,0-.156-.385.561.561,0,0,0-.4-.151Z" transform="translate(-140.507 -24.35)" fill="#fff"/><path d="M310.448,53.478a3.112,3.112,0,0,0-.659-.976,2.927,2.927,0,0,0-.976-.649,3.083,3.083,0,0,0-1.181-.229h-3.507a1.088,1.088,0,0,1-.868-.361,1.239,1.239,0,0,1-.327-.854,1.171,1.171,0,0,1,.332-.849,1.117,1.117,0,0,1,.863-.346h3.59a1.092,1.092,0,0,1,.8.293,1.248,1.248,0,0,1,.376.732.361.361,0,0,0,.385.346h.815a.351.351,0,0,0,.385-.366,2.273,2.273,0,0,0-.268-1.073,3.035,3.035,0,0,0-.678-.834,3.346,3.346,0,0,0-.917-.522,2.872,2.872,0,0,0-1.024-.2H304.2a2.79,2.79,0,0,0-1.137.234,2.97,2.97,0,0,0-.917.624,2.9,2.9,0,0,0-.839,2.054,2.993,2.993,0,0,0,.224,1.141,2.873,2.873,0,0,0,.615.927,3.069,3.069,0,0,0,.917.585,2.868,2.868,0,0,0,1.137.229h3.459a1.239,1.239,0,0,1,.941.385,1.278,1.278,0,0,1,.371.927,1.336,1.336,0,0,1-.376.946,1.2,1.2,0,0,1-.937.4h-3.629a1.185,1.185,0,0,1-.893-.341,1.41,1.41,0,0,1-.415-.815.351.351,0,0,0-.385-.366h-.932a.356.356,0,0,0-.38.385,2.357,2.357,0,0,0,.278,1.117,3.019,3.019,0,0,0,.683.9,3.416,3.416,0,0,0,.976.585,3.029,3.029,0,0,0,1.083.21h3.58a2.927,2.927,0,0,0,1.185-.244,3.132,3.132,0,0,0,.976-.644,3.069,3.069,0,0,0,.659-.976,3,3,0,0,0,.244-1.2A2.965,2.965,0,0,0,310.448,53.478Z" transform="translate(-154.196 -24.375)" fill="#fff"/><path d="M35.134,19.541C33.875,9.985,32.431,0,25.919,0,10.256,0-7.569,38.049,3.427,38.049c7.512,0,17.5-12.424,28.044-16.1C33.592,30.244,35.007,40,41.256,40c4.39,0,7.122-4.971,7.122-10.117C48.378,25.527,44.363,18.951,35.134,19.541ZM4.041,30.463c0-6.341,12.2-20,19.346-20,4.141,0,6.132,4.39,7.634,9.756C18.612,23.776,4.041,38.8,4.041,30.463Zm37.99,6.259c-4.39,0-5.585-7.473-6.683-15.673,6.312-.624,11.6,3.21,11.6,9.341C46.953,33.059,44.831,36.722,42.031,36.722Z" transform="translate(-0.023)" fill="url(#a)"/></g></g></svg>