<?xml version="1.0" encoding="utf-8"?>
<!-- Generator: Adobe Illustrator 28.1.0, SVG Export Plug-In . SVG Version: 6.00 Build 0)  -->
<svg version="1.1" id="Layer_1" xmlns="http://www.w3.org/2000/svg" xmlns:xlink="http://www.w3.org/1999/xlink" x="0px" y="0px"
	 viewBox="0 0 62 20" style="enable-background:new 0 0 62 20;" xml:space="preserve">
<style type="text/css">
	.st0{opacity:0.6;fill:#FFFFFF;}
	.st1{fill:#FFFFFF;}
</style>
<path class="st0" d="M26.8,19.7h-5l3.1-19.4h5L26.8,19.7z"/>
<path class="st0" d="M44.9,0.8C43.5,0.3,42,0,40.5,0C35.5,0,32,2.6,32,6.4c0,2.8,2.5,4.3,4.4,5.3c1.9,0.9,2.6,1.6,2.6,2.4
	c0,1.3-1.6,1.9-3,1.9c-1.6,0-3.2-0.3-4.7-1l-0.7-0.3L29.9,19c1.8,0.7,3.7,1,5.6,1c5.3,0,8.7-2.6,8.7-6.6c0-2.2-1.3-3.9-4.2-5.3
	c-1.8-0.9-2.8-1.5-2.8-2.4c0-0.8,0.9-1.7,2.9-1.7c1.3,0,2.6,0.2,3.7,0.7L44.3,5L44.9,0.8L44.9,0.8z"/>
<path class="st0" d="M51.6,12.9c0.4-1.1,2-5.4,2-5.4c0,0,0.4-1.1,0.7-1.9l0.3,1.7c0,0,0.9,4.6,1.2,5.6L51.6,12.9z M57.8,0.4h-3.9
	c-0.6-0.1-1.1,0.1-1.6,0.3c-0.5,0.3-0.8,0.7-1,1.3l-7.4,17.8h5.3l1.1-2.9h6.4c0.1,0.7,0.6,2.9,0.6,2.9h4.6L57.8,0.4L57.8,0.4z"/>
<path class="st0" d="M17.6,0.4l-4.9,13.2l-0.5-2.7c-1.2-3.5-3.7-6.4-6.9-8.1l4.5,16.9H15l7.9-19.3L17.6,0.4z"/>
<path class="st1" d="M8.1,0.4H0.1L0,0.7c6.3,1.6,10.4,5.5,12.2,10.1L10.4,2C10.3,1.5,10,1,9.6,0.7C9.2,0.4,8.7,0.3,8.1,0.4L8.1,0.4z
	"/>
</svg>
