<svg width="25" height="25" viewBox="0 0 25 25" fill="none" xmlns="http://www.w3.org/2000/svg">
<path d="M1.75634 9.5059C-0.726419 13.0274 0.854004 18.3684 3.59839 21.6281C4.97058 23.247 6.35879 24.6826 8.25423 24.6826H8.36101C9.10352 24.64 9.82885 24.4799 10.4967 24.2114C11.2945 23.8904 12.1704 23.7204 13.0596 23.7139C13.907 23.7201 14.7415 23.8842 15.4996 24.1939C16.2248 24.4867 17.024 24.6362 17.8329 24.6303C19.9686 24.5997 21.2874 23.0288 22.446 21.6455C23.3147 20.6015 23.9961 19.4612 24.4696 18.2594C24.4881 18.2135 24.4852 18.1636 24.4616 18.1194C24.438 18.0751 24.3952 18.0395 24.3414 18.0194C23.2377 17.6364 22.2955 16.9975 21.6312 16.1817C20.967 15.3658 20.6098 14.4088 20.6039 13.4288C20.6184 12.5626 20.8993 11.7132 21.4209 10.959C21.9425 10.2048 22.688 9.57006 23.5886 9.11318C23.6155 9.09905 23.6387 9.08066 23.6568 9.05911C23.6749 9.03755 23.6876 9.01326 23.694 8.98765C23.7005 8.96205 23.7006 8.93564 23.6945 8.90999C23.6883 8.88434 23.6759 8.85995 23.658 8.83827C23.041 8.11468 22.2261 7.51864 21.2779 7.09748C20.3297 6.67631 19.2745 6.44164 18.1959 6.41209C18.0411 6.41209 17.8809 6.41209 17.7207 6.41209C16.5349 6.4681 15.3723 6.7049 14.2929 7.11027C13.7738 7.31346 13.2189 7.44893 12.6484 7.51172C12.0589 7.45407 11.4852 7.31694 10.9506 7.1059C10.0237 6.73685 9.02037 6.51334 7.9926 6.447H7.91785C6.65563 6.48069 5.42539 6.77993 4.34604 7.31578C3.26668 7.85163 2.37471 8.60597 1.75634 9.5059Z" fill="black"/>
<path d="M18.2547 0.682581C16.5429 0.814186 14.9584 1.47808 13.8284 2.53713C12.9047 3.40985 12.0024 4.87167 12.2266 6.34222C12.2338 6.38677 12.2594 6.42798 12.2993 6.45895C12.3391 6.48992 12.3907 6.50879 12.4456 6.5124H12.7552C13.5642 6.4823 14.3558 6.31095 15.077 6.00988C15.7981 5.7088 16.4319 5.28498 16.9359 4.76694C18.0703 3.67772 18.6308 2.26572 18.4949 0.839672C18.4837 0.79465 18.4535 0.754274 18.4096 0.72557C18.3657 0.696867 18.3109 0.681654 18.2547 0.682581Z" fill="black"/>
</svg>
