<svg width="43" height="43" viewBox="0 0 43 43" fill="none" xmlns="http://www.w3.org/2000/svg">
<rect x="0.628418" y="0.628418" width="42" height="42" rx="21" fill="#000F41"/>
<path d="M31.6285 22.0284H25.8285C23.9285 22.0284 22.4985 20.5984 22.4985 18.6984V15.4784C22.4985 13.5784 23.9285 12.1484 25.8285 12.1484H29.0485C30.8785 12.1484 32.3785 13.6384 32.3785 15.4784V21.2784C32.3785 21.6984 32.0385 22.0284 31.6285 22.0284ZM25.8285 13.6584C24.7685 13.6584 23.9985 14.4284 23.9985 15.4884V18.7084C23.9985 19.7684 24.7685 20.5384 25.8285 20.5384H30.8785V15.4884C30.8785 14.4784 30.0585 13.6584 29.0485 13.6584H25.8285Z" fill="white"/>
<path d="M27.0984 31.0983C26.8384 31.0983 26.5884 30.9683 26.4484 30.7283C26.2384 30.3683 26.3584 29.9083 26.7084 29.6983C29.9384 27.7783 30.8784 26.9783 30.8784 21.2783C30.8784 20.8683 31.2184 20.5283 31.6284 20.5283C32.0384 20.5283 32.3784 20.8683 32.3784 21.2783C32.3784 27.5283 31.1084 28.8383 27.4784 30.9883C27.3584 31.0683 27.2284 31.0983 27.0984 31.0983Z" fill="white"/>
<path d="M19.9987 22.0284H14.1987C12.2987 22.0284 10.8687 20.5984 10.8687 18.6984V15.4784C10.8687 13.5784 12.2987 12.1484 14.1987 12.1484H17.4287C19.2587 12.1484 20.7587 13.6384 20.7587 15.4784V21.2784C20.7487 21.6984 20.4187 22.0284 19.9987 22.0284ZM14.2087 13.6584C13.1487 13.6584 12.3787 14.4284 12.3787 15.4884V18.7084C12.3787 19.7684 13.1487 20.5384 14.2087 20.5384H19.2587V15.4884C19.2587 14.4784 18.4387 13.6584 17.4287 13.6584H14.2087Z" fill="white"/>
<path d="M15.4686 31.0983C15.2086 31.0983 14.9586 30.9683 14.8186 30.7283C14.6086 30.3683 14.7286 29.9083 15.0786 29.6983C18.3086 27.7783 19.2486 26.9783 19.2486 21.2783C19.2486 20.8683 19.5886 20.5283 19.9986 20.5283C20.4086 20.5283 20.7486 20.8683 20.7486 21.2783C20.7486 27.5283 19.4786 28.8383 15.8486 30.9883C15.7286 31.0683 15.5986 31.0983 15.4686 31.0983Z" fill="white"/>
</svg>
